<svg id="Ebene_1" data-name="Ebene 1" xmlns="http://www.w3.org/2000/svg" viewBox="0 0 167.24 167.24"><defs><style>.cls-1{fill:#1d1d1b;}</style></defs><title>Zeichenfläche 1</title><polygon class="cls-1" points="148.52 150.93 22.98 150.93 31.33 139.18 140.17 139.18 148.52 150.93"/><polygon class="cls-1" points="110.98 108.59 110.98 139.18 119.33 139.18 119.33 116.94 110.98 108.59"/><polygon class="cls-1" points="50.78 113.88 50.78 139.18 59.13 139.18 59.13 105.53 50.78 113.88"/><polygon class="cls-1" points="95.41 41.05 73.58 41.05 50.78 67.33 50.78 95.97 52.8 93.95 58.74 100.02 59.13 99.62 59.13 70.44 77.39 49.4 91.75 49.4 110.98 70.17 110.98 90.68 119.33 99.03 119.33 66.91 95.41 41.05"/><path class="cls-1" d="M90.94,86.16H79.16l-8.32-8.32V66.09l8.32-8.32H90.93l8.32,8.32V77.85Zm-8.31-8.35h4.85l3.43-3.43V69.53l-3.43-3.37H82.63l-3.47,3.39V74.4Z"/><path class="cls-1" d="M96.16,63.42l-3-3,40.3-40.3,9,9L117.31,54.26l-5.93-6.1Zm18.19-18.18,3,3.08,19.19-19.16-3-3.05Z"/><path class="cls-1" d="M127.56,129.34l-25.13-25.18,6.06-5.93L93.26,83l3-3,40.3,40.3Zm-19.2-25.1,19.2,19.2,3-3.05-19.16-19.16Z"/><path class="cls-1" d="M36.62,123.86l-9-9L52.76,89.72l5.94,6.07L73.93,80.56l3,3Zm-3.05-9,3.05,3.05L55.79,98.74l-3-3.08Z"/><path class="cls-1" d="M73.51,63.47,33.16,23.16l9-9L67.3,39.3l-6.07,5.94L76.46,60.47ZM39.16,23.16,58.33,42.33l3.08-3L42.16,20.16Z"/><rect class="cls-1" x="75.03" y="100.29" width="11.8" height="4.18"/><rect class="cls-1" x="83.38" y="108.65" width="11.8" height="4.18"/><rect class="cls-1" x="91.73" y="129.52" width="11.8" height="4.18"/><rect class="cls-1" x="100.08" y="121.17" width="11.8" height="4.18"/><rect class="cls-1" x="54.15" y="129.52" width="11.8" height="4.18"/></svg>