<svg xmlns="http://www.w3.org/2000/svg" xmlns:xlink="http://www.w3.org/1999/xlink" viewBox="0 0 773.51 208.32"><defs><style>.cls-1,.cls-16,.cls-28{fill:none;}.cls-10,.cls-15,.cls-16,.cls-17,.cls-19,.cls-2,.cls-22,.cls-28,.cls-3,.cls-4,.cls-5,.cls-6,.cls-7,.cls-8,.cls-9{stroke:#000;}.cls-16,.cls-17,.cls-18,.cls-19,.cls-2,.cls-20,.cls-3,.cls-7{fill-rule:evenodd;}.cls-22,.cls-3{stroke-miterlimit:10;}.cls-10,.cls-11,.cls-12,.cls-13,.cls-14,.cls-15,.cls-16,.cls-17,.cls-18,.cls-20,.cls-4,.cls-5,.cls-6,.cls-7,.cls-8,.cls-9{stroke-miterlimit:2.61;}.cls-4{stroke-width:1px;}.cls-5{stroke-width:1px;}.cls-6{stroke-width:1px;}.cls-7{stroke-width:0.22px;}.cls-8{stroke-width:1px;}.cls-9{stroke-width:0.22px;}.cls-10{stroke-width:0.22px;}.cls-11,.cls-14,.cls-15,.cls-18,.cls-19,.cls-20{fill:#fff;}.cls-11,.cls-12,.cls-13,.cls-14,.cls-18,.cls-20{stroke:#fff;}.cls-11{stroke-width:0.63px;}.cls-12,.cls-13,.cls-22{fill:#1d1d1b;}.cls-12{stroke-width:0.56px;}.cls-13{stroke-width:0.53px;}.cls-14{stroke-width:0.57px;}.cls-15,.cls-16,.cls-17{stroke-width:0.68px;}.cls-18{stroke-width:0.22px;}.cls-20{stroke-width:0.22px;}.cls-21{clip-path:url(#clip-path);}.cls-22{font-size:38.36px;font-family:FranklinGothic-Heavy, Franklin Gothic Heavy;letter-spacing:0.76em;}.cls-23{letter-spacing:0.78em;}.cls-24{letter-spacing:0.75em;}.cls-25{letter-spacing:0.79em;}.cls-26{letter-spacing:0.75em;}.cls-27{letter-spacing:0em;}.cls-28{stroke-width:1.93px;}</style><clipPath id="clip-path" transform="translate(-23.15)"><rect class="cls-1" y="145.57" width="840.76" height="72.16"/></clipPath></defs><title>Element 6</title><g id="Ebene_2" data-name="Ebene 2"><g id="Ebene_1-2" data-name="Ebene 1"><polygon class="cls-2" points="536.05 3.24 543.13 6.71 542.02 9.64 534.95 6.49 536.05 3.24 536.05 3.24"/><polygon class="cls-3" points="557.27 12.69 564.35 15.71 563.24 18.64 556.18 15.49 557.27 12.69 557.27 12.69"/><polyline class="cls-4" points="548.92 52.56 564.47 59.4 563.34 62.06 547.88 55.34 548.92 52.56"/><polygon class="cls-3" points="515.7 38.3 521.36 40.64 520.09 43.35 514.43 41.09 515.7 38.3 515.7 38.3"/><polyline class="cls-4" points="525.87 42.59 541.56 49.39 540.43 52.1 524.67 45.3 525.87 42.59"/><path class="cls-5" d="M612.28,29.71c-3.65-1.53-59.45-24.93-59.47-25l-14,33.83,59.1,25.33m0,0,4.93-11.57" transform="translate(-23.15)"/><polyline class="cls-6" points="516.41 38.71 521.36 40.55 520.09 43.35 514.57 41.24 515.73 38.13"/><path class="cls-7" d="M553.79,4.13l59.16,24.8a.43.43,0,0,1,.17.58L598.76,63.39a.43.43,0,0,1-.53.28l-59.16-24.8a.43.43,0,0,1-.17-.58L553.25,4.41a.43.43,0,0,1,.53-.28Z" transform="translate(-23.15)"/><polygon class="cls-3" points="531.26 1.61 537.15 4.09 536.07 6.62 530.13 4.17 531.26 1.61 531.26 1.61"/><polygon class="cls-8" points="530.74 1.6 536.81 3.93 535.93 6.09 529.79 4.22 530.74 1.6 530.74 1.6"/><polygon class="cls-3" points="564.92 15.99 579.92 22.24 578.93 24.55 563.94 18.4 564.92 15.99 564.92 15.99"/><polyline class="cls-9" points="564.92 15.99 579.92 22.24 578.93 24.55 563.94 18.4 564.92 15.99"/><polygon class="cls-3" points="584.91 24.43 591.01 27.06 590.03 29.25 583.94 26.61 584.91 24.43 584.91 24.43"/><polyline class="cls-9" points="584.91 24.43 591.01 27.06 590.03 29.25 583.94 26.61 584.91 24.43"/><polygon class="cls-2" points="520.78 40.8 526.88 43.57 525.91 46.35 519.62 43.55 520.78 40.8 520.78 40.8"/><polyline class="cls-4" points="569.23 61.51 575.33 64.09 574.36 66.69 568.18 63.87 569.23 61.51"/><path class="cls-10" d="M603.86,52.06c-2.81,6.39-4.78,11.64-4.78,11.64L536.56,37.9,551.77,4.21s58.19,23.57,62,25.11" transform="translate(-23.15)"/><path class="cls-11" d="M562.21,8.84,562,9m1.39.15-1.05.93m2.18-.55-1.94,1.72m3-1.31-2.71,2.39m3.83-2-3.09,2.74m4.22-2.36-3.25,2.88m4.35-2.48-3.54,3.14m4.66-2.75L566,15.13m5.21-3.23-4.47,4m5.53-3.52-4.81,4.26m5.91-3.85-5.15,4.56m6.2-4.11-5.34,4.72m6.38-4.28-5.3,4.69m6.4-4.29-4.71,4.17m5.83-3.78-4.25,3.76m5.35-3.36-3.83,3.39m5.91-2.35-.22.2M577,19.29l-3.19,2.83m7.94-5.65-7.6,6.73m8.66-6.29-7.88,7m9-6.6-8.1,7.17m9.26-6.82L576.71,25m9.51-7-8.72,7.72m9.89-7.38-9.33,8.26m10.37-7.8-9.85,8.72m10.85-8.23-10.09,8.93M590.5,19.7l-9.92,8.79m11.07-8.43-9,8m10.21-7.66-8,7.11m9.1-6.68-7.53,6.67m8.57-6.22L587.32,28M596,21.72l-7.92,7m9-6.6-8.2,7.26m9.3-6.86-8.26,7.31m9.43-7-8.22,7.28m0,0,8.22-7.28m1.24.43-8,7.11m9.12-6.7-7.75,6.86m8.76-6.38-7.29,6.46m8.39-6.05-6.79,6m8-5.73-6.15,5.45m7.3-5.09-5.09,4.5m6.21-4.12L603,29.39m5.31-3.33-3.77,3.34m4.84-2.91-3.3,2.92m4.44-2.55-2.66,2.36m3.72-1.92-1.73,1.53" transform="translate(-23.15)"/><path class="cls-12" d="M549.2,40.43l-1.57,1.3M551.14,40l-2.48,2.05m3.94-2-2.93,2.43m4.64-2.62-3.6,3m6-3.77-5,4.11m6.59-4.23-5.55,4.59m6.43-4.1-5.44,4.5M560,40.07l-5.12,4.23m5.71-3.5-4.73,3.91m4.83-2.77-3.8,3.14m3.87-2-2.88,2.38M561,44.08l-2.21,1.83M561.4,45l-1.52,1.26m1.83-.29-.82.68" transform="translate(-23.15)"/><path class="cls-13" d="M567.87,36.68l-3.2,2.5M569,37l-4.46,3.48m4.92-2.69-5.07,4m5.49-3.14L564.18,43m6.15-3.65-6.39,5m7-4.29-7.42,5.8m8.24-5.29-8.88,6.95m11.68-8L563.8,47.95m11.56-7.88-10.5,8.21m10.87-7.35L566,48.54m9.69-6.42-8.51,6.66m8.57-5.55-7.54,5.9m7.8-4.95-6.9,5.4M576,45.35l-1.89,1.48m-3.87,3-.25.2" transform="translate(-23.15)"/><path class="cls-14" d="M579.15,44.24l-1.89,1.61m-4.55,3.87L571,51.14m8.61-6.07-2.88,2.45m-1.14,1L572,51.55m8.16-5.69-7.14,6.08M581,46.46l-6.89,5.86M582,46.84l-6.9,5.87M583.24,47l-7.12,6.06m8.43-5.91-7.42,6.31m8.68-6.13-7.7,6.55m8.82-6.25-7.81,6.65m8.72-6.17-7.7,6.56m8.42-5.91-7.39,6.29m8-5.53-7,5.92m7.51-5.13-6.51,5.54m7.14-4.82-6.13,5.22M591,51.73l-5.81,4.94m6.52-4.29-5.5,4.68m6.17-4-5.15,4.39M593,53.83l-4.75,4m5.28-3.23-4.38,3.73M594,55.51l-4,3.4m4.17-2.29-3.23,2.75M594,57.95l-2.1,1.79m2.22-.63-1.19,1m1.47,0-.45.38" transform="translate(-23.15)"/><path class="cls-15" d="M587.44,67.63a9.49,9.49,0,0,0,1.63-1.28c.1-.21,1.44-2.17,1.63-2.38l2.14,1c-.07.14-1,2-1.18,2.34s-1.18,2.06-1.41,2.35a6.88,6.88,0,0,0-.81,1.23,8.05,8.05,0,0,0-.45,1.14l-1.13,7.6a10.27,10.27,0,0,0,.58,2.41l-9.67.23A19.86,19.86,0,0,0,578,73c-.07-.41-.15-.82-.21-1.06a5.55,5.55,0,0,0-.25-1c-.14-.29-.77-1.4-1-1.69s-1.32-2.42-1.48-2.71-1-2.39-1.15-2.65-.59-2.12-.77-2.36a8.63,8.63,0,0,1-.57-1.57c-.09-.29-.57-1.64-.66-1.88s-.35-1.92-.46-2.26L574.08,57c0,.12.21.67.27.84s.36,1.23.41,1.42.26,1.39.31,1.56a11,11,0,0,0,1.05,1.38,14,14,0,0,1,.93,1.74,16.14,16.14,0,0,0,.86,1.71l2.21,2.78a4.66,4.66,0,0,0,1.6-.2,1.86,1.86,0,0,0,.38-1,1.79,1.79,0,0,0-.29-.94c-.19-.27-.47-.3-.69-.39a1,1,0,0,1-.37-.8,2.28,2.28,0,0,0-.06-.7,2.07,2.07,0,0,1,.09-.88c.08-.14.2-.31.15-.43a.8.8,0,0,1,0-.53l.17-.28a3.41,3.41,0,0,1,.13-.5,2.55,2.55,0,0,0,.11-.67c0-.19.67-.61.89-.75,0,0,3.08,1.27,3.2,1.27l2,6Zm-3.22,28.45c0-.23.28-3.07.2-3.41s-.14-1.41-.18-1.8-.19-2.2-.19-2.2l-.23.06s0,.91,0,1.09.13.6.17,1,.25,3.31.26,3.72.09,2,.13,2.45.19,1.28.18,1.56-.07,1.17-.07,1.53,0,1.9,0,2.29.16,1.65.2,1.94a16,16,0,0,1,.18,1.68c0,.39-.12,1.17-.17,1.82s-.15,2.18-.16,2.62a16.69,16.69,0,0,0,.14,2.1c.08.52.08,1.29.12,1.6s.12,2.6.11,2.89a4.32,4.32,0,0,1,0,1,15.32,15.32,0,0,0-.09,2.26l-1.81.44c0-.31.11-2,.12-2.45a4.63,4.63,0,0,0,0-1.14c-.09-.44-.3-1.41-.42-1.75s-.78-3.42-.94-3.94-.45-5.31-.42-5.7.06-3.46,0-3.85-.79-3.19-.92-3.5-1.09-3.45-1.31-4.13a41.32,41.32,0,0,1-1-5.13c-.05-.65,0-3.36,0-4.25a25.85,25.85,0,0,1,.42-2.69l9.62-.26c.11.42.3.24.36.43.13.39.7,2.17.78,2.72s.22,2.08.24,2.45-.18,5.25-.23,5.67-.82,5.13-.88,5.62-.11,1.09-.12,1.35a13.06,13.06,0,0,0,0,1.38c0,.34,0,1.46,0,1.87s0,1.27,0,1.66a16.15,16.15,0,0,1,.14,2.45c-.06.78-.08,1.92-.18,2.42s-.29,1.66-.39,2.2-.6,3.55-.68,4.07a6.21,6.21,0,0,0-.19,1.43,7.32,7.32,0,0,1,0,1.17,5.16,5.16,0,0,0,.13,1.7l-2.36-.23s-.48-22.54-.64-24.2Z" transform="translate(-23.15)"/><path class="cls-16" d="M581,68.66a3.28,3.28,0,0,1-.78-.35,5.23,5.23,0,0,0-.78,1.39,11.34,11.34,0,0,1-.5,1.31c-.15.33-.48,1.26-.58,1.52a4.75,4.75,0,0,0-.27,1.44c0,.31.11,1.14.17,1.41s.19,1.42.3,1.73a18.32,18.32,0,0,1,.51,2.6c0,.36-.25,2.1-.26,2.32a3.73,3.73,0,0,1-.13.56,6.21,6.21,0,0,1,1.48,1.14,28,28,0,0,1,1.71,2.21c.34.57,1,1.24,1.19,1.68s.73,1.36.82,1.52.15.22.34.16.38-.35.51-.8a6.83,6.83,0,0,1,.65-1.21c.13-.25.45-1,.58-1.4a14.46,14.46,0,0,1,1.39-2.51,9.26,9.26,0,0,1,1.22-1c.22-.15,0-1-.13-1.23a9.83,9.83,0,0,1-.69-2.77,4.53,4.53,0,0,1,.33-1.77c.08-.26.22-.79.29-1.15s.56-2.12.64-2.43.17-1,0-1.08a10.57,10.57,0,0,1-.88-.92,8.91,8.91,0,0,1-.67-1.66,10.09,10.09,0,0,1-.41-1.57c0-.24-.07,0-.48.16s-.51-.1-.53.11.09.87-.16,1.2A2.46,2.46,0,0,1,585,70a6.94,6.94,0,0,1-2.69.41,2.82,2.82,0,0,1-1.49-.82c-.21-.27.07-.85.12-1Z" transform="translate(-23.15)"/><path class="cls-17" d="M585.29,61.82c-.1.13-.37.25-.37.36a3.22,3.22,0,0,0,.23.79c.09.21.09.67.23.76s.45-.26.72,0,.32.51.2.72a3.74,3.74,0,0,1-.58.71,2,2,0,0,0-.37.84c0,.18-.13.81-.11,1s.11.69.16.87,0,.36.29.27a1.88,1.88,0,0,1,.75,0l.55-.35s.24-.12.48-.2a.8.8,0,0,0,.42-.32,3.72,3.72,0,0,1,.53-.56A13.66,13.66,0,0,0,590.37,64c-.66-.24-5.08-2.15-5.08-2.15Z" transform="translate(-23.15)"/><polygon class="cls-2" points="530.57 0.69 591.45 26.67 591.1 27.43 530.35 1.51 530.57 0.69 530.57 0.69"/><polygon class="cls-2" points="530.06 3.81 590.32 28.98 590.13 29.52 529.87 4.35 530.06 3.81 530.06 3.81"/><polygon class="cls-18" points="541.17 6.13 556.86 12.99 556.21 14.68 540.41 8.33 541.17 6.13 541.17 6.13"/><path class="cls-3" d="M578.86,125.64a4.83,4.83,0,0,1,1.85-3.8,7.28,7.28,0,0,1,9.05,0,4.8,4.8,0,0,1,0,7.59,7.31,7.31,0,0,1-9.07,0,4.83,4.83,0,0,1-1.84-3.79Z" transform="translate(-23.15)"/><path class="cls-3" d="M26.45,124.45l6.47-15.78a41.93,41.93,0,0,0,7.76,4.45,16.83,16.83,0,0,0,6.38,1.4,5.89,5.89,0,0,0,3.27-.79,2.44,2.44,0,0,0,1.2-2.14q0-2.35-6-3.58l-3-.65a17.81,17.81,0,0,1-9.67-5.47,14.55,14.55,0,0,1-3.35-9.79A18.73,18.73,0,0,1,36,77.32q6.51-5.71,17.06-5.7a36.34,36.34,0,0,1,9.55,1.27,44.39,44.39,0,0,1,9.47,3.85L66,91.5a25.31,25.31,0,0,0-5.87-3.29,15.87,15.87,0,0,0-5.71-1.13,6.27,6.27,0,0,0-3.27.71,2.22,2.22,0,0,0-1.15,2q0,2.39,8.43,4.2l2.08.46a16.06,16.06,0,0,1,9.17,5.35A14.81,14.81,0,0,1,73,109.55a19.39,19.39,0,0,1-6.76,15.28q-6.76,5.93-17.58,5.93a40.43,40.43,0,0,1-11.09-1.58,50.22,50.22,0,0,1-11.09-4.74Z" transform="translate(-23.15)"/><path class="cls-3" d="M81.07,103.47V72.88h20.27v30.75q0,5.35,1.27,7.38a5.64,5.64,0,0,0,8.7-.06q1.31-2.08,1.31-7.32V72.88h20.27v30.59a51.09,51.09,0,0,1-.79,9.9,18.27,18.27,0,0,1-2.52,6.5,22.09,22.09,0,0,1-9.25,8.09A30.52,30.52,0,0,1,107,130.76,30.61,30.61,0,0,1,93.55,128a22.09,22.09,0,0,1-9.25-8.09,18.06,18.06,0,0,1-2.47-6.43,52.5,52.5,0,0,1-.77-10Z" transform="translate(-23.15)"/><path class="cls-3" d="M145.28,129.27V72.88h19.86l17.51,29.5a36.84,36.84,0,0,1-.48-4.35q-.13-2.39-.13-6.24V72.88h19.56v56.39h-20L164.23,100q.31,1.88.46,4.06t.15,4.87v20.34Z" transform="translate(-23.15)"/><path class="cls-3" d="M233,106.31v9h3.4a7.91,7.91,0,0,0,4.67-1.17,4.22,4.22,0,0,0,0-6.67,8,8,0,0,0-4.67-1.15Zm0-20v7.89h2.67a6,6,0,0,0,3.77-1,3.53,3.53,0,0,0,1.29-2.95,3.47,3.47,0,0,0-1.29-2.92,6.06,6.06,0,0,0-3.77-1Zm-19,43V72.88h27q8.65,0,13.5,4.07t4.85,11.3A12.47,12.47,0,0,1,257,95.93a10.61,10.61,0,0,1-6.49,4q5.75,1.2,8.57,4.51t2.82,8.9q0,7.89-5.33,11.92t-15.69,4Z" transform="translate(-23.15)"/><path class="cls-3" d="M299.26,111.84a8.79,8.79,0,0,0,6.88-2.91,11.15,11.15,0,0,0,2.6-7.72,11.36,11.36,0,0,0-2.6-7.8,9.51,9.51,0,0,0-13.78,0,11.3,11.3,0,0,0-2.62,7.78,11.09,11.09,0,0,0,2.62,7.72,8.85,8.85,0,0,0,6.9,2.91Zm30.14-10.65a30,30,0,0,1-2.19,11.53,28.72,28.72,0,0,1-6.43,9.53,29.47,29.47,0,0,1-9.76,6.31,32.79,32.79,0,0,1-23.58,0,29.3,29.3,0,0,1-9.78-6.39,27.29,27.29,0,0,1-6.35-9.39,32.34,32.34,0,0,1,0-23.22,27.22,27.22,0,0,1,6.35-9.44,28.92,28.92,0,0,1,9.74-6.33,33.38,33.38,0,0,1,23.72,0,29.34,29.34,0,0,1,9.78,6.33,28.16,28.16,0,0,1,6.33,9.47,30.5,30.5,0,0,1,2.17,11.59Z" transform="translate(-23.15)"/><path class="cls-3" d="M339.2,103.47V72.88h20.27v30.75q0,5.35,1.27,7.38t4.35,2a4.75,4.75,0,0,0,4.35-2.08q1.31-2.08,1.31-7.32V72.88H391v30.59a51.19,51.19,0,0,1-.79,9.9,18.26,18.26,0,0,1-2.53,6.5,22.07,22.07,0,0,1-9.25,8.09,33.29,33.29,0,0,1-26.77,0,22.06,22.06,0,0,1-9.24-8.09,18,18,0,0,1-2.47-6.43,52.25,52.25,0,0,1-.77-10Z" transform="translate(-23.15)"/><path class="cls-3" d="M403.42,129.27V72.88h19.86l17.51,29.5A37.45,37.45,0,0,1,440.3,98q-.14-2.39-.13-6.24V72.88h19.56v56.39h-20L422.36,100q.31,1.88.46,4.06t.15,4.87v20.34Z" transform="translate(-23.15)"/><path class="cls-3" d="M513.57,95.27a20.39,20.39,0,0,0-5.66-4A14.55,14.55,0,0,0,501.83,90a10.73,10.73,0,0,0-8,3.06,11.07,11.07,0,0,0-3,8.13,10.86,10.86,0,0,0,2.89,7.92,10.32,10.32,0,0,0,7.74,3,15.57,15.57,0,0,0,6-1.24,30.35,30.35,0,0,0,6.61-4l-.65,21.2a37.29,37.29,0,0,1-6.62,2,33.8,33.8,0,0,1-14.56-.25,27.86,27.86,0,0,1-6.89-2.62,30.14,30.14,0,0,1-11.3-10.9,29.58,29.58,0,0,1-3.83-15.14,31,31,0,0,1,2.17-11.71,28.36,28.36,0,0,1,16.05-15.81,32.86,32.86,0,0,1,12-2.14,31.95,31.95,0,0,1,13.24,2.85V95.27Z" transform="translate(-23.15)"/><polygon class="cls-3" points="501.37 129.27 501.37 72.88 539.08 72.88 539.08 88.17 521.24 88.17 521.24 93.62 537.42 93.62 537.42 108.05 521.24 108.05 521.24 113.97 539.54 113.97 539.54 129.27 501.37 129.27 501.37 129.27"/><path class="cls-3" d="M644.74,95.27a20.45,20.45,0,0,0-5.66-4A14.54,14.54,0,0,0,633,90a10.74,10.74,0,0,0-8,3.06,11.07,11.07,0,0,0-3,8.13,10.86,10.86,0,0,0,2.89,7.92,10.32,10.32,0,0,0,7.74,3,15.57,15.57,0,0,0,6-1.24,30.28,30.28,0,0,0,6.6-4l-.65,21.2a37.34,37.34,0,0,1-6.62,2,33.78,33.78,0,0,1-14.55-.25,27.85,27.85,0,0,1-6.89-2.62,30.14,30.14,0,0,1-11.3-10.9,29.58,29.58,0,0,1-3.83-15.14,30.93,30.93,0,0,1,2.18-11.71,28.33,28.33,0,0,1,16.05-15.81,32.83,32.83,0,0,1,12-2.14,32,32,0,0,1,13.24,2.85V95.27Z" transform="translate(-23.15)"/><path class="cls-3" d="M683.82,111.84a8.79,8.79,0,0,0,6.88-2.91,11.13,11.13,0,0,0,2.6-7.72,11.34,11.34,0,0,0-2.6-7.8,9.51,9.51,0,0,0-13.78,0,11.29,11.29,0,0,0-2.62,7.78,11.08,11.08,0,0,0,2.62,7.72,8.85,8.85,0,0,0,6.9,2.91ZM714,101.19a30,30,0,0,1-2.19,11.53,28.81,28.81,0,0,1-6.43,9.53,29.51,29.51,0,0,1-9.76,6.31,32.79,32.79,0,0,1-23.58,0,29.32,29.32,0,0,1-9.78-6.39,27.27,27.27,0,0,1-6.35-9.39,32.35,32.35,0,0,1,0-23.22,27.2,27.2,0,0,1,6.35-9.44A28.91,28.91,0,0,1,672,73.79a33.37,33.37,0,0,1,23.72,0,29.3,29.3,0,0,1,9.78,6.33,28.14,28.14,0,0,1,6.33,9.47A30.45,30.45,0,0,1,714,101.19Z" transform="translate(-23.15)"/><path class="cls-3" d="M775.89,129.27l-2.46-22.34q-.23-2.58-.46-5.14t-.39-5.14q-.35,2.43-1,5.14t-1.56,5.8l-6.47,21.69H751.52l-6.47-21.69q-1-3.08-1.58-5.8t-1-5.14q-.19,2.62-.41,5.16t-.44,5.12l-2.46,22.34H719.34L729,72.88h20.91l4,13.95.58,2a86.17,86.17,0,0,1,3.12,14.52h.34q.47-3.58,1.39-7.63t2.46-9.09L766,72.88h20.87l8.93,56.39Z" transform="translate(-23.15)"/><polygon class="cls-3" points="541.72 49.47 548.8 52.49 547.69 55.42 540.62 52.27 541.72 49.47 541.72 49.47"/><polygon class="cls-3" points="563.34 58.13 569.44 61.29 568.47 64.47 562.29 61.02 563.34 58.13 563.34 58.13"/><polygon class="cls-2" points="512.58 40.3 574.42 66.16 574.06 66.93 512.12 40.56 512.58 40.3 512.58 40.3"/><polygon class="cls-19" points="514.01 37.18 522.22 40.52 520.84 44.02 512.66 40.77 514.01 37.18 514.01 37.18"/><polygon class="cls-19" points="526.99 43.35 541.69 49.33 540.65 52.24 525.84 46.13 526.99 43.35 526.99 43.35"/><polygon class="cls-19" points="549.21 52.47 563.58 58.44 562.54 61.36 548.18 55.13 549.21 52.47 549.21 52.47"/><polygon class="cls-19" points="569.23 60.69 575.33 63.46 574.25 66.36 568.07 63.44 569.23 60.69 569.23 60.69"/><polygon class="cls-19" points="529.96 1.44 537.39 4.16 536.14 7 528.62 4.58 529.96 1.44 529.96 1.44"/><polygon class="cls-20" points="564.51 16.24 579.75 22.66 579.1 24.35 563.3 18 564.51 16.24 564.51 16.24"/><polygon class="cls-2" points="580.05 22.69 586.69 25.34 586.02 27.13 578.96 24.6 580.05 22.69 580.05 22.69"/><polygon class="cls-19" points="584.9 24.58 591.23 27.02 590.32 28.8 583.9 26.45 584.9 24.58 584.9 24.58"/><g class="cls-21"><text class="cls-22" transform="translate(0.5 196.06) scale(1.02 1)">MADE<tspan class="cls-23" x="220.96" y="0"> </tspan><tspan x="260.66" y="0">I</tspan><tspan class="cls-24" x="301.92" y="0">N</tspan><tspan class="cls-25" x="357.16" y="0"> </tspan><tspan class="cls-26" x="396.86" y="0">GERMA</tspan><tspan class="cls-24" x="673.41" y="0">N</tspan><tspan class="cls-27" x="728.65" y="0">Y</tspan></text><line class="cls-28" x1="2.23" y1="151.3" x2="773.51" y2="151.3"/></g></g></g></svg>