<?xml version="1.0" encoding="utf-8"?>
<!-- Generator: Adobe Illustrator 21.0.2, SVG Export Plug-In . SVG Version: 6.00 Build 0)  -->
<svg version="1.1" id="Ebene_1" xmlns="http://www.w3.org/2000/svg" xmlns:xlink="http://www.w3.org/1999/xlink" x="0px" y="0px"
	 viewBox="0 0 74.6 67.3" style="enable-background:new 0 0 74.6 67.3;" xml:space="preserve">
<style type="text/css">
	.st0{fill:none;stroke:#000000;stroke-width:0.37;}
	.st1{stroke:#000000;stroke-width:0.37;}
</style>
<path class="st0" d="M42.5,20.8c0.2-4.2,3.7-7.5,7.9-7.3s7.5,3.7,7.3,7.9s-3.7,7.5-7.9,7.3c-4-0.1-7.2-3.3-7.3-7.3
	C42.5,21.2,42.5,21,42.5,20.8z"/>
<title>Zeichenfläche 1</title>
<path d="M0.8,50.4h3.8v1.1H2.1v1.7h2.3v1.1H2.1v3H0.8V50.4z"/>
<path d="M7.7,52.1c1.4-0.1,2.6,1,2.6,2.4c0,0.1,0,0.2,0,0.3c0.1,1.3-1,2.5-2.3,2.6H7.7c-1.4,0.1-2.5-1-2.6-2.3c0-0.1,0-0.2,0-0.3
	c-0.1-1.4,1-2.6,2.3-2.7H7.7z M7.7,56.3c1,0,1.3-0.9,1.3-1.7c0.1-0.7-0.4-1.4-1.1-1.5c0,0,0,0,0,0H7.7c-0.7,0-1.3,0.7-1.3,1.4
	c0,0,0,0,0,0c0,0,0,0.1,0,0.1C6.4,55.4,6.7,56.3,7.7,56.3z"/>
<path d="M11.3,52.2h1.1v1.1l0,0c0.1-0.7,0.7-1.2,1.4-1.3c0.1,0,0.3,0,0.4,0v1.3c-0.2-0.1-0.4-0.1-0.6-0.1c-1.1,0-1.1,1.3-1.1,2v1.9
	h-1.3L11.3,52.2z"/>
<path d="M19.5,57.2h-1.2v-0.7l0,0c-0.4,0.5-1,0.8-1.6,0.8c-1.2,0-1.7-0.8-1.7-2v-3.1h1.3v2.7c0,0.6,0,1.4,0.8,1.4s1.1-1,1.1-1.7
	v-2.5h1.3L19.5,57.2z"/>
<path d="M20.7,52.2h1.2v0.7l0,0c0.3-0.5,0.9-0.8,1.5-0.8c0.6-0.1,1.2,0.3,1.5,0.9c0.3-0.6,0.9-0.9,1.6-0.9c1.2,0,1.6,0.8,1.6,2v3.1
	h-1.3v-3c0-0.5,0-1.1-0.8-1.1s-1,1-1,1.7v2.5h-1.3v-3c0-0.5,0-1.1-0.8-1.1s-1,1-1,1.7v2.5h-1.3L20.7,52.2z"/>
<path d="M31.9,50.4h1.7c1.5,0,2.8,0.4,2.8,2s-1.2,2.2-2.6,2.2h-0.6v2.6h-1.4V50.4z M33.2,53.5h0.5c0.7,0,1.3-0.2,1.3-1
	s-0.6-1.1-1.3-1.1h-0.5V53.5z"/>
<path d="M39.5,52.1c1.4-0.1,2.6,1,2.6,2.4c0,0.1,0,0.2,0,0.3c-0.1,1.4-1.3,2.5-2.8,2.5c-1.3-0.1-2.4-1.1-2.5-2.5
	c-0.1-1.4,1-2.6,2.3-2.7H39.5z M39.5,56.3c1,0,1.3-0.9,1.3-1.7c0.1-0.7-0.4-1.3-1.1-1.4s-1.3,0.4-1.4,1.1c0,0.1,0,0.3,0,0.4
	C38.2,55.4,38.5,56.3,39.5,56.3z"/>
<path d="M43,49.9h1.3v7.3H43V49.9z"/>
<path d="M45.6,50h1.3v1.2h-1.3V50z M45.6,52.2h1.3v5h-1.3V52.2z"/>
<path d="M48.6,53.2h-1v-1h1v-1l1.3-0.4v1.5h1.2v1h-1.2v2.3c0,0.4,0.1,0.8,0.6,0.8c0.2,0,0.4,0,0.6-0.1v1c-0.3,0.1-0.7,0.1-1,0.1
	c-0.8,0.1-1.5-0.5-1.6-1.3c0-0.1,0-0.2,0-0.3L48.6,53.2z"/>
<path d="M51.9,50h1.3v1.2h-1.3V50z M51.9,52.2h1.3v5h-1.3V52.2z"/>
<path d="M54.5,49.9h1.3v4.3l0,0l1.5-2h1.6L57,54.4l2.1,2.8h-1.6l-1.7-2.4l0,0v2.4h-1.3L54.5,49.9z"/>
<path d="M5.2,67.2H4v-0.7l0,0c-0.4,0.5-1,0.8-1.6,0.8c-1.2,0-1.7-0.8-1.7-2v-3.1H2v2.7c0,0.6,0,1.4,0.8,1.4s1.2-1,1.2-1.7v-2.5h1.3
	L5.2,67.2z"/>
<path d="M6.5,62.2h1.2v0.7l0,0c0.4-0.5,1-0.8,1.6-0.8c1.2,0,1.7,0.8,1.7,2v3.1H9.8v-2.7c0-0.6,0-1.4-0.8-1.4s-1.1,1-1.1,1.7v2.4H6.5
	V62.2z"/>
<path d="M15.6,66.6L15.6,66.6c-0.4,0.5-0.9,0.7-1.5,0.7c-1.5,0-2.1-1.3-2.1-2.6s0.6-2.6,2.1-2.6c0.6,0,1.1,0.2,1.5,0.7l0,0v-2.9h1.3
	v7.3h-1.3V66.6z M14.5,66.3c0.9,0,1.1-0.9,1.1-1.6s-0.3-1.6-1.2-1.6s-1.1,0.9-1.1,1.6S13.6,66.3,14.5,66.3z"/>
<path d="M26.1,61.7c-0.6-0.2-1.1-0.4-1.8-0.4c-1.3-0.1-2.4,0.9-2.5,2.1c0,0.1,0,0.2,0,0.3c-0.1,1.2,0.8,2.3,2,2.4h0.3
	c0.3,0,0.6,0,0.9-0.1v-1.8h-1.4v-1.1h2.7V67c-0.7,0.2-1.4,0.3-2.2,0.3c-2.2,0-3.7-1.1-3.7-3.4c-0.2-1.8,1.2-3.5,3.1-3.6
	c0.2,0,0.4,0,0.7,0c0.7,0,1.4,0.1,2,0.3L26.1,61.7z"/>
<path d="M31.7,66.9c-0.5,0.3-1.1,0.4-1.7,0.4c-1.3,0.1-2.5-0.8-2.6-2.1c0-0.2,0-0.3,0-0.5c-0.2-1.3,0.7-2.4,2-2.6h0.3
	c1.9,0,2.4,1.3,2.4,3h-3.4c0,0.7,0.6,1.3,1.3,1.3c0,0,0,0,0,0H30c0.6,0,1.2-0.2,1.7-0.5V66.9z M30.8,64.2c0.1-0.5-0.2-1.1-0.8-1.2
	c-0.1,0-0.2,0-0.3,0c-0.6,0-1.1,0.5-1.1,1.1c0,0,0,0,0,0c0,0,0,0,0,0.1L30.8,64.2z"/>
<path d="M35.9,63.3c-0.4-0.2-0.8-0.2-1.2-0.3c-0.3,0-0.8,0.1-0.8,0.5c0,0.8,2.3,0.3,2.3,2.1c0,1.2-1,1.6-2.1,1.6
	c-0.5,0-1-0.1-1.5-0.2l0.1-1.1c0.4,0.2,0.8,0.3,1.3,0.3c0.3,0,0.8-0.1,0.8-0.6c0-1-2.3-0.3-2.3-2.1c0-1.1,0.9-1.5,2-1.5
	c0.5,0,1,0.1,1.4,0.2L35.9,63.3z"/>
<path d="M41.2,66.9c-0.5,0.3-1.1,0.4-1.7,0.4c-1.3,0.1-2.5-0.8-2.6-2.1c0-0.2,0-0.3,0-0.5c-0.2-1.3,0.7-2.4,2-2.6h0.3
	c1.8,0,2.4,1.3,2.4,3h-3.4c0,0.7,0.6,1.3,1.3,1.3h0.1c0.6,0,1.2-0.2,1.7-0.5L41.2,66.9z M40.3,64.2c0.1-0.5-0.2-1.1-0.8-1.2
	c-0.1,0-0.2,0-0.3,0c-0.6,0-1.1,0.5-1.1,1.1c0,0,0,0,0,0c0,0,0,0,0,0.1L40.3,64.2z"/>
<path d="M42.5,59.9h1.3v7.3h-1.3V59.9z"/>
<path d="M45.1,59.9h1.3v7.3h-1.3V59.9z"/>
<path d="M50.6,63.3c-0.4-0.2-0.8-0.2-1.2-0.3c-0.3,0-0.8,0.1-0.8,0.5c0,0.8,2.3,0.3,2.3,2.1c0,1.2-1,1.6-2.1,1.6
	c-0.5,0-1-0.1-1.5-0.2l0.1-1.1c0.4,0.2,0.8,0.3,1.3,0.3c0.3,0,0.8-0.1,0.8-0.6c0-1-2.3-0.3-2.3-2.1c0-1.1,0.9-1.5,2-1.5
	c0.5,0,1,0.1,1.4,0.2L50.6,63.3z"/>
<path d="M55.1,63.3c-0.3-0.1-0.6-0.2-0.9-0.2c-0.8,0-1.3,0.6-1.3,1.6c0,0.9,0.4,1.6,1.3,1.6c0.3,0,0.7-0.1,1-0.2l0.1,1.1
	c-0.4,0.1-0.9,0.2-1.3,0.2c-1.4-0.1-2.5-1.3-2.5-2.8c0.1-1.3,1.1-2.4,2.5-2.5c0.4,0,0.9,0.1,1.3,0.2L55.1,63.3z"/>
<path d="M56.1,59.9h1.3v3l0,0c0.4-0.5,0.9-0.8,1.6-0.8c1.2,0,1.7,0.8,1.7,2v3.1h-1.3v-2.7c0-0.6,0-1.4-0.8-1.4s-1.1,1-1.1,1.7v2.4
	h-1.3L56.1,59.9z"/>
<path d="M62.1,62.5c0.5-0.2,1.1-0.4,1.7-0.4c1.5,0,2.2,0.6,2.2,2.1v1.9c0,0.4,0,0.7,0.1,1.1h-1.1c0-0.2-0.1-0.5-0.1-0.8l0,0
	c-0.3,0.5-0.9,0.9-1.5,0.9c-0.9,0.1-1.7-0.5-1.7-1.4v-0.1c0-0.6,0.3-1.2,0.8-1.4c0.5-0.2,1.1-0.3,1.7-0.3h0.7c0-0.8-0.4-1.1-1.1-1.1
	c-0.6,0-1.1,0.2-1.5,0.5L62.1,62.5z M63.6,66.4c0.4,0,0.7-0.2,0.9-0.4c0.2-0.3,0.3-0.6,0.3-1h-0.6c-0.6,0-1.5,0.1-1.5,0.9
	C62.8,66.2,63.2,66.4,63.6,66.4z"/>
<path d="M67.7,63.2h-1v-1h1v-0.7c-0.1-0.8,0.5-1.6,1.3-1.7h0.2c0.3,0,0.7,0,1,0.1L70.1,61c-0.2-0.1-0.4-0.2-0.6-0.2
	c-0.4,0-0.6,0.4-0.6,0.8v0.6h1.1v1H69v4h-1.3L67.7,63.2z"/>
<path d="M71.3,63.2h-1v-1h1v-1l1.3-0.4v1.5h1.2v1h-1.2v2.3c0,0.4,0.1,0.8,0.6,0.8c0.2,0,0.4,0,0.6-0.1v1c-0.3,0.1-0.7,0.1-1,0.1
	c-0.8,0.1-1.5-0.5-1.6-1.3c0-0.1,0-0.2,0-0.3L71.3,63.2z"/>
<path d="M8.9,30.3c-1.2-0.6-2.6-1-4-1c-2.3-0.1-4.2,1.6-4.4,3.9c0,0.1,0,0.2,0,0.4c0,2.5,1.4,3,3.5,3.6c0.7,0.2,2,0.5,2,1.5
	s-0.8,1.3-1.6,1.3c-1.1-0.1-2.2-0.5-3-1.3L0,41.2c1.3,0.9,2.9,1.4,4.5,1.5c1.3,0,2.6-0.4,3.6-1.2c0.9-0.9,1.4-2.2,1.3-3.5
	c0-2.1-1.4-3-3.2-3.5l-0.8-0.3C4.9,34.1,4,33.8,4,33.1S4.8,32,5.4,32c0.8,0,1.6,0.3,2.2,0.8L8.9,30.3z"/>
<polygon points="14.3,32.4 17.1,32.4 17.1,29.5 8.3,29.5 8.3,32.4 11,32.4 11,42.3 14.3,42.3 14.3,32.4 "/>
<polygon points="20.7,29.5 17.4,29.5 17.4,42.3 20.7,42.3 20.7,29.5 "/>
<polygon points="28.5,32.4 28.5,29.5 21.1,29.5 21.1,42.3 24.5,42.3 24.5,37.3 28.1,37.3 28.1,34.5 24.5,34.5 24.5,32.4 28.5,32.4 
	"/>
<polygon points="34.7,32.4 37.4,32.4 37.4,29.5 28.6,29.5 28.6,32.4 31.3,32.4 31.3,42.3 34.7,42.3 34.7,32.4 "/>
<path d="M45.5,29.5v6.7c0,1.7-0.1,3.5-2.3,3.5S41,37.9,41,36.3v-6.7h-3.4v7.2c0,1.6,0.1,3.3,1.3,4.5c1.2,1,2.7,1.5,4.2,1.4
	c1.5,0.1,3.1-0.4,4.2-1.4c1.3-1.2,1.3-2.9,1.3-4.5v-7.2H45.5z"/>
<polygon points="49.1,42.3 52.5,42.3 52.5,34.5 52.5,34.5 58.6,42.3 61.9,42.3 61.9,29.5 58.6,29.5 58.6,37.4 58.5,37.4 52.5,29.5 
	49.1,29.5 49.1,42.3 "/>
<path d="M68,35.2v2.6h2.7c-0.1,1.3-1.3,2.3-2.6,2.2H68c-2.2,0-3.4-2-3.4-4s1.1-4,3.3-4c1.3,0,2.4,0.8,2.8,2l3.2-1.3
	c-1-2.3-3.3-3.7-5.8-3.6c-3.6-0.2-6.7,2.5-6.9,6.1c0,0.3,0,0.5,0,0.8c-0.2,3.6,2.6,6.6,6.2,6.8c0.2,0,0.5,0,0.7,0
	c2.1,0.1,4-0.8,5.3-2.5c1-1.5,1.4-3.2,1.3-5L68,35.2z"/>
<polygon points="7.8,17.8 7.8,14.9 0.6,14.9 0.6,27.7 7.8,27.7 7.8,24.9 3.9,24.9 3.9,22.7 7.6,22.7 7.6,19.9 3.9,19.9 3.9,17.8 
	7.8,17.8 "/>
<path d="M11.5,17.5h0.2c0.9,0,1.9,0.1,1.9,1.2S12.8,20,11.9,20h-0.4L11.5,17.5L11.5,17.5z M13.3,27.7c2.3,0,4.6-0.9,4.6-3.6
	c0-1.8-0.8-3-2.6-3.3l0,0c1-0.5,1.5-1.5,1.4-2.6c0-2.4-1.5-3.3-3.8-3.3H8.2v12.7L13.3,27.7z M11.5,22.4h0.3c1.1,0,2.7-0.1,2.7,1.4
	s-1.7,1.4-2.6,1.4h-0.4L11.5,22.4L11.5,22.4z"/>
<polygon points="24.6,17.8 24.6,14.9 17.3,14.9 17.3,27.7 24.6,27.7 24.6,24.9 20.6,24.9 20.6,22.7 24.4,22.7 24.4,19.9 20.6,19.9 
	20.6,17.8 24.6,17.8 "/>
<path d="M28.3,17.5h0.3c1.1,0,2.3,0.2,2.3,1.6s-1.2,1.6-2.3,1.6h-0.3V17.5z M31.6,22.5c1.7-0.3,2.9-1.9,2.8-3.6
	c0-2.7-1.9-3.9-4.4-3.9H25v12.8h3.3v-4.9l0,0l3.1,4.9h4.1L31.6,22.5L31.6,22.5z"/>
<polygon points="40.7,17.8 43.5,17.8 43.5,14.9 34.7,14.9 34.7,17.8 37.4,17.8 37.4,27.7 40.7,27.7 40.7,17.8 "/>
<polygon points="7.9,3.2 7.9,0.3 0.6,0.3 0.6,13.1 3.9,13.1 3.9,8.1 7.5,8.1 7.5,5.3 3.9,5.3 3.9,3.2 7.9,3.2 "/>
<path d="M11.4,2.9h0.3c1.1,0,2.3,0.2,2.3,1.6s-1.2,1.6-2.3,1.6h-0.3V2.9z M14.7,7.9c1.7-0.3,2.9-1.9,2.8-3.6c0-2.7-1.9-3.9-4.5-3.9
	H8v12.8h3.4V8.2l0,0l3.1,4.9h4.2L14.7,7.9L14.7,7.9z"/>
<polygon points="21.1,0.3 17.8,0.3 17.8,13.1 21.1,13.1 21.1,0.3 "/>
<polygon points="28.8,3.2 28.8,0.3 21.6,0.3 21.6,13.1 28.8,13.1 28.8,10.3 24.9,10.3 24.9,8.1 28.6,8.1 28.6,5.3 24.9,5.3 
	24.9,3.2 28.8,3.2 "/>
<path d="M32.5,3.2h0.8c1.8-0.2,3.5,1.2,3.6,3.1c0,0.2,0,0.3,0,0.5c0.1,1.9-1.3,3.5-3.1,3.6c-0.2,0-0.4,0-0.6,0h-0.8L32.5,3.2
	L32.5,3.2z M29.2,13.1h4.7c3.5,0,6.4-2.9,6.4-6.4s-2.9-6.4-6.4-6.4c0,0,0,0,0,0h-4.7V13.1z"/>
<path d="M43.1,2.9h0.3c1.1,0,2.3,0.2,2.3,1.6s-1.2,1.6-2.3,1.6h-0.3V2.9z M46.4,7.9c1.7-0.3,2.9-1.9,2.8-3.6c0-2.7-1.9-3.9-4.4-3.9
	h-5v12.8H43V8.2l0,0l3.1,4.9h4.2L46.4,7.9L46.4,7.9z"/>
<polygon points="52.8,0.3 49.4,0.3 49.4,13.1 52.8,13.1 52.8,0.3 "/>
<path d="M62,0.6C61.1,0.2,60,0,59,0c-1.8,0-3.6,0.8-4.9,2.1c-1.2,1.3-1.9,2.9-1.9,4.7c-0.1,1.8,0.7,3.6,2,4.8c1.3,1.2,3,1.9,4.8,1.9
	c1,0,2-0.2,3-0.6v-4c-0.7,0.8-1.8,1.3-2.9,1.4c-1.8,0.1-3.4-1.3-3.5-3.2c0-0.1,0-0.2,0-0.3c-0.1-1.9,1.3-3.4,3.2-3.5c0,0,0,0,0,0
	h0.2c1.1,0,2.2,0.5,2.9,1.4V0.6L62,0.6z"/>
<polygon points="65.7,5.3 65.7,0.3 62.4,0.3 62.4,13.1 65.7,13.1 65.7,7.9 70.5,7.9 70.5,13.1 73.8,13.1 73.8,0.3 70.5,0.3 
	70.5,5.3 65.7,5.3 "/>
<path class="st1" d="M42.6,21h15.2 M42.9,23.4h14.4 M44.3,25.9H56 M42.9,19.1h14.6 M44.6,15.9h11.1 M45.9,14.8h8.5 M43.5,17.5h13.2"
	/>
<line class="st0" x1="50.1" y1="28.7" x2="50.1" y2="14.3"/>
<polyline class="st0" points="47,17.5 50.1,14.3 53.3,17.5 "/>
</svg>
