<svg id="Ebene_1" data-name="Ebene 1" xmlns="http://www.w3.org/2000/svg" viewBox="0 0 170.08 170.08"><defs><style>.cls-1{fill:#fff;}</style></defs><title>Zeichenfläche 2</title><path class="cls-1" d="M34.79,72.36C32.36,67.77,30,63.64,27.62,60q2.12-.69,4.24-1.32,1.66,2.78,3.35,5.9a31.8,31.8,0,0,1,1.56,3.83s.73-2.65,1.44-4.38q1.57-3.84,3.12-7.91,2-.48,4-.91C43.14,61,40.95,66.56,38.74,71.69q0,3.69.07,7.37h-4q0-3.36,0-6.72"/><path class="cls-1" d="M44.24,70c-.06-5.46,3.47-9.91,7.75-10.58s7.93,3.24,8,9.47S56.5,79.42,52.22,79.37s-7.91-3.94-8-9.33M56,69.14c0-3.34-1.69-5.54-4-5.27s-4,2.7-3.91,5.83,1.68,5.29,4,5.23,4-2.37,3.92-5.79"/><path class="cls-1" d="M61.93,70.92q-.06-6.17-.11-12.34l3.83-.34q0,6.23.1,12.46c0,2.54.81,3.79,2.52,3.77s2.49-1.28,2.47-3.91q0-6.33-.07-12.66,1.92-.11,3.84-.19,0,6.43,0,12.86c0,5.75-2.59,8.76-6.23,8.75s-6.35-2.91-6.4-8.39"/><path class="cls-1" d="M79.58,51.11Q81.7,51,83.83,51q1.66,5.38,3.31,10.78c.73,2.39,1.48,6.34,1.48,6.34s.74-3.89,1.48-6.3q1.62-5.34,3.25-10.61,1.93.09,3.85.22c-2.86,9.06-5.7,18.38-8.49,27.76h-.39c-2.88-9.38-5.79-18.83-8.74-28.12"/><path class="cls-1" d="M98,57.92l3.84.25q-.08,10.42-.15,20.87H97.92Q98,68.46,98,57.92"/><path class="cls-1" d="M103.59,74.57q1.49-1.2,3-2.37c.6,1.51,1.52,2.7,3,2.73,1,0,1.8-.49,1.81-1.41s-.52-1.39-2-2.26l-.61-.37c-2.4-1.46-4-3.19-4-6.87s2-5.81,4.86-5.49c2.11.23,3.56,1.26,4.74,3.95l-2.91,2c-.49-1.15-1-1.51-1.76-1.57s-1.27.44-1.28,1.33c0,1.09.63,1.52,1.5,2.08l.61.39c2.68,1.69,4.63,3.27,4.59,7s-2.1,5.73-5.58,5.75c-3,0-5.11-2-6-4.8"/><path class="cls-1" d="M120,64.46,115.9,64V59.61q6.07.81,12.09,1.93v4L123.86,65Q123.78,72,123.71,79h-3.84L120,64.51"/><path class="cls-1" d="M134.5,62.66l.3.07c2.23,5.95,4.48,11.44,6.78,16.38h-3.95l-.5-1.26-5.4-.11-.51,1.35h-3.7c2.35-5.92,4.68-11.42,7-16.4M136.22,75l-.61-1.63a35.17,35.17,0,0,1-1.06-3.5,25.42,25.42,0,0,1-1.08,3.33l-.65,1.6,3.4.2"/><polygon class="cls-1" points="84.71 86.25 11.04 85.25 84.71 84.25 158.38 85.25 84.71 86.25"/><rect class="cls-1" x="34.15" y="95.33" width="2.22" height="0.7"/><path class="cls-1" d="M54.1,97.8h-1l-.85-2.07H49.65l-.86,2.07h-.86l2.92-6.85h.21Zm-2-2.67L51,92.26,49.9,95.14Z"/><path class="cls-1" d="M63.63,97.8H62.55l-2.5-3.4v3.4h-.84V91.14h2.47a1.45,1.45,0,0,1,1.16.54,1.88,1.88,0,0,1,.46,1.25,1.85,1.85,0,0,1-.13.7,1.58,1.58,0,0,1-.43.59,2.06,2.06,0,0,1-.73.39h-.86ZM61.8,91.92l-.25-.08h-1.5V94h1.48a.8.8,0,0,0,.67-.3,1.14,1.14,0,0,0,.24-.73,1.35,1.35,0,0,0-.16-.66,1,1,0,0,0-.48-.43"/><polygon class="cls-1" points="72.64 97.8 69.02 97.8 69.02 91.14 72.64 91.14 72.64 91.86 69.82 91.86 69.82 93.83 72.64 93.83 72.64 94.51 69.82 94.51 69.82 97.08 72.64 97.08 72.64 97.8"/><polygon class="cls-1" points="83.8 97.95 83.64 97.95 78.77 92.6 78.77 97.8 78.03 97.8 78.03 90.98 78.21 90.98 83.03 96.33 83.03 91.14 83.8 91.14 83.8 97.95"/><path class="cls-1" d="M92.15,97.43a4.23,4.23,0,0,1-.7.27,2.61,2.61,0,0,1-.69.1H88.25V91.14h2.84a2.73,2.73,0,0,1,2,1.12,3.71,3.71,0,0,1,.74,2.27,3.6,3.6,0,0,1-.41,1.72,2.73,2.73,0,0,1-1.27,1.18M93,94a2.39,2.39,0,0,0-.61-1.39A2.42,2.42,0,0,0,91,91.88H89V97h1.72a1.92,1.92,0,0,0,1.62-.81,3,3,0,0,0,.6-1.85A2.83,2.83,0,0,0,93,94"/><path class="cls-1" d="M102.54,92.3l-.71.33a1.11,1.11,0,0,0-.48-.67,1.44,1.44,0,0,0-.83-.26,1.27,1.27,0,0,0-.59.13,1,1,0,0,0-.41.43,1.24,1.24,0,0,0-.11.5,1,1,0,0,0,.57.91l1.71.63a1.8,1.8,0,0,1,.72.71,1.92,1.92,0,0,1,.25,1,2,2,0,0,1-.7,1.53,2.42,2.42,0,0,1-1.41.44,2.46,2.46,0,0,1-1.29-.35,1.74,1.74,0,0,1-.48-.53,3.54,3.54,0,0,1-.3-.76l.73-.37a1.24,1.24,0,0,0,.4.94,1.35,1.35,0,0,0,1,.38,1.45,1.45,0,0,0,.43-.07,1.41,1.41,0,0,0,.41-.22,1.08,1.08,0,0,0,.32-.41,1.26,1.26,0,0,0,.12-.55.9.9,0,0,0-.2-.64,1.84,1.84,0,0,0-.3-.28,4,4,0,0,0-.45-.22l-1.15-.41a2.19,2.19,0,0,1-.83-.66,1.54,1.54,0,0,1-.31-1,3.21,3.21,0,0,1,.07-.49,1.6,1.6,0,0,1,.43-.75,1.46,1.46,0,0,1,.79-.48,4,4,0,0,1,.76-.09h.22l.42.08a1.64,1.64,0,0,1,.72.39,1.7,1.7,0,0,1,.54.8"/><polygon class="cls-1" points="112.24 97.8 108.62 97.8 108.62 91.14 112.24 91.14 112.24 91.86 109.42 91.86 109.42 93.83 112.24 93.83 112.24 94.51 109.42 94.51 109.42 97.08 112.24 97.08 112.24 97.8"/><polygon class="cls-1" points="122.14 97.8 118.52 97.8 118.52 91.14 122.14 91.14 122.14 91.86 119.32 91.86 119.32 93.83 122.14 93.83 122.14 94.51 119.32 94.51 119.32 97.08 122.14 97.08 122.14 97.8"/><rect class="cls-1" x="133.16" y="95.33" width="2.22" height="0.7"/></svg>