<?xml version="1.0" encoding="utf-8"?>
<!-- Generator: Adobe Illustrator 22.1.0, SVG Export Plug-In . SVG Version: 6.00 Build 0)  -->
<svg version="1.1" baseProfile="tiny" id="Ebene_1" xmlns="http://www.w3.org/2000/svg" xmlns:xlink="http://www.w3.org/1999/xlink"
	 x="0px" y="0px" viewBox="0 0 500.7 422.8" xml:space="preserve">
<title>Element 1</title>
<g id="Ebene_2_1_">
	<image width="486" height="411" xlink:href="3D78FE96.png"  transform="matrix(1 0 0 1 8.6667 6.7244)">
	</image>
	<g>
		<path fill="#FFFFFF" d="M63.6,322.3v-1.8h4.5L60.5,304H41.8l-7.7,16.5h4.5v1.8h-12v-1.8H32l19.3-42l0.7-1.4
			c0.2-0.5,0.5-0.9,0.7-1.3s0.4-0.9,0.6-1.4h0.9l21.3,46.1h5.3v1.8H63.6z M51.1,283.7l-8.5,18.5h17L51.1,283.7z"/>
		<path fill="#FFFFFF" d="M122.7,322.3v-1.8h5c-0.1-1.5-0.3-3-0.7-4.5c-0.3-1.5-0.9-2.9-1.6-4.2c-0.7-1.3-1.6-2.5-2.7-3.6
			c-1.2-1.1-2.5-2-4-2.8c-0.9-0.5-1.8-0.8-2.7-1.1c-0.9-0.3-1.9-0.4-2.9-0.4c-1.7,0.1-3.4-0.5-4.6-1.6c-1.2-1.1-1.9-2.8-1.8-4.5h2
			c0,1.2,0.4,2.4,1.2,3.3c0.8,0.8,1.9,1.1,3,1c1.5,0,3-0.5,4.3-1.4c1.2-0.8,2.2-1.9,2.9-3.1c0.8-1.3,1.4-2.7,1.7-4.1
			c0.8-3,0.7-6.1-0.2-9c-0.4-1.6-1.2-3.1-2.2-4.4c-0.4-0.5-0.8-1-1.3-1.5c-0.5-0.5-1-0.8-1.6-1.1c-0.7-0.3-1.4-0.6-2.2-0.8
			c-1-0.2-2-0.3-2.9-0.3h-7.9v44h5v1.8H91.3v-1.8h5v-44h-5v-1.7H113c2.2,0,4.4,0.4,6.5,1.2c1.9,0.7,3.7,1.8,5.3,3.1
			c1.5,1.3,2.7,2.9,3.6,4.6c1.6,3.2,1.7,6.9,0.5,10.2c-0.6,1.5-1.4,2.8-2.4,4c-1,1.3-2.3,2.3-3.7,3.2c-1.4,0.9-3,1.6-4.6,2.1
			c1.9,0.6,3.6,1.6,5.1,2.9c1.4,1.2,2.6,2.6,3.5,4.2c0.9,1.5,1.6,3.2,2.1,4.9c0.5,1.7,0.7,3.5,0.8,5.2h5v1.8L122.7,322.3z"/>
		<path fill="#FFFFFF" d="M187.8,281.2c-1-0.9-2.2-1.6-3.4-2.2c-1.3-0.6-2.8-1.1-4.2-1.5c-1.5-0.4-3.1-0.7-4.7-0.8
			c-1.6-0.2-3.2-0.3-4.9-0.3h-13.1v21.1h15.1l6,5.3l-1.4,1.2c-1-0.9-2.2-1.6-3.4-2.2c-1.3-0.6-2.6-1.1-4-1.5
			c-1.4-0.4-2.8-0.7-4.2-0.8c-1.3-0.2-2.6-0.3-3.9-0.3h-4.3v17.1c0.7,0.5,1.4,1,2.1,1.5c0.8,0.5,1.6,0.9,2.4,1.3
			c0.8,0.4,1.6,0.7,2.5,0.9c0.8,0.2,1.6,0.3,2.5,0.3h6.1c1.3,0,2.5-0.1,3.8-0.3c1.4-0.2,2.7-0.5,4-0.9c1.3-0.4,2.5-0.9,3.8-1.5
			c1.1-0.6,2.2-1.2,3.2-2.1l1.4,1.3l-6,5.3h-16.2c-1.9,0-3.8-0.4-5.5-1.3c-1.7-0.8-3.3-1.7-4.7-2.9c-1.2-1-2.3-1.9-3.3-2.8
			c-1-0.9-2-1.8-3.1-2.7v-0.1c-1.4-1.3-2.6-2.8-3.6-4.4c-1.1-1.7-1.7-3.7-1.7-5.7h2c0,1.4,0.3,2.8,1,4c0.6,1.2,1.4,2.4,2.3,3.4
			v-33.4h-5v-1.7h37.7l6,5.3L187.8,281.2z"/>
		<path fill="#FFFFFF" d="M241.7,322.3v-1.8h10.1c-0.3-1.5-0.9-2.9-1.8-4.1c-0.9-1.3-1.9-2.5-3.1-3.5l-35.2-30.6v38.2h5v1.8h-7.3
			v-0.1c-0.8,0-1.8,0.1-2.9,0.1h-7.1v-1.8h5v-47.1l7.1,6.2l35.1,30.5v-33.7h-5v-1.7h17.2v1.8h-5v44.1h5v1.8L241.7,322.3z"/>
		<path fill="#FFFFFF" d="M274.9,279.8l1.3-1.1l2.4-2.1l3.4-3v47h10.1c1,0,2-0.2,3-0.5c0.9-0.4,1.8-0.8,2.6-1.4
			c0.8-0.6,1.6-1.3,2.2-2c0.7-0.8,1.3-1.5,1.9-2.3c1.5-2.2,2.6-4.7,3.3-7.3c1.5-5.5,1.5-11.3,0-16.9c-0.7-2.6-1.8-5.1-3.3-7.3
			c-1.2-1.7-2.7-3.2-4.4-4.4c-1.9-1.3-4.2-2-6.5-1.9v-1.6h0.8c3.3,0,6.5,0.7,9.4,2.3c2.6,1.4,4.9,3.3,6.8,5.6
			c1.8,2.3,3.2,4.8,4.1,7.6c0.9,2.7,1.4,5.5,1.4,8.3c0,2.8-0.5,5.6-1.4,8.3c-0.9,2.7-2.3,5.3-4.1,7.5c-1.9,2.3-4.2,4.2-6.8,5.5
			c-2.9,1.5-6.1,2.3-9.4,2.4c-0.9,0-1.8,0-2.7,0s-1.8,0-2.7,0h-16.4v-1.6h4.9l0.1-38.2c-0.9,1.1-1.7,2.3-2.4,3.5c-0.6,1.2-1,2.6-1,4
			h-1.9c0-1,0.2-2,0.5-3c0.3-1,0.7-1.9,1.2-2.7c0.5-0.8,1.1-1.6,1.7-2.4c0.6-0.7,1.2-1.4,1.9-2 M287.3,280.6h-2
			c-0.1-1.7,0.6-3.3,1.8-4.5c1.5-1.2,3.3-1.7,5.1-1.6v1.8C289,276.3,287.3,277.8,287.3,280.6"/>
		<path fill="#FFFFFF" d="M324.1,303.9l-0.1-1.1l0.1-4.3v-0.6h2c0,2.9,1.8,4.3,5.3,4.3v0.1c1.4,0.1,2.8,0.8,3.8,1.9
			c1,1.2,1.5,2.7,1.4,4.2h-1.9c0-1.1-0.3-2.1-0.9-3c-0.6-0.7-1.4-1.2-2.3-1.3c0.1,2.1,0.5,4.1,1.2,6c0.7,2,1.8,3.8,3.2,5.4
			c1.3,1.5,2.8,2.7,4.5,3.6c3.6,1.9,7.9,1.9,11.5,0c1.7-0.9,3.3-2.1,4.5-3.6c1.4-1.7,2.6-3.7,3.3-5.8c0.7-2.1,1.1-4.3,1.1-6.5
			c0-2-0.4-4.1-1-6c-0.6-2-1.6-3.9-2.8-5.6c-1.3-1.7-2.8-3.1-4.6-4.2c-1.9-1.1-4.1-1.7-6.3-1.7c-1.1,0-2.2-0.2-3.2-0.7
			c-1-0.4-1.8-1.1-2.3-2.1c-1-1.6-1-3.7,0-5.3c0.6-1.2,1.6-2,2.9-2.4c1.3-0.4,2.6-0.5,3.9-0.2c1.3,0.3,2.5,1,3.5,1.9
			c1,1.1,1.6,2.5,1.5,4h-2c0.1-1.2-0.4-2.4-1.2-3.2c-0.8-0.7-1.9-1.1-3.1-1.1c-1.2-0.1-2.3,0.3-3.2,1.1c-0.7,0.7-1,1.6-1,2.6
			c0,1,0.5,1.9,1.2,2.5c0.8,0.8,2.4,1.2,4.6,1.2l-0.1,0.1c2.7,0.1,5.4,0.7,7.9,1.8c2.4,1,4.5,2.4,6.4,4.2c1.8,1.7,3.3,3.7,4.3,6
			c2.2,4.6,2.1,10-0.1,14.6c-1.1,2.3-2.7,4.3-4.6,6c-2,1.7-4.4,3.1-6.9,4c-2.7,1-5.6,1.6-8.5,1.6c-2.8,0.1-5.7-0.4-8.4-1.4
			c-2.5-0.9-4.9-2.3-6.9-4c-2-1.6-3.6-3.6-4.8-5.9C324.9,308.8,324.3,306.3,324.1,303.9"/>
		<path fill="#FFFFFF" d="M421.2,281.2c-1-0.9-2.2-1.6-3.4-2.2c-1.3-0.6-2.8-1.1-4.2-1.5c-1.5-0.4-3.1-0.7-4.7-0.8
			c-1.6-0.2-3.2-0.3-4.9-0.3H391v21.1h15.1l6,5.3l-1.4,1.2c-1-0.9-2.2-1.6-3.4-2.2c-1.3-0.6-2.6-1.1-4-1.5c-1.4-0.4-2.8-0.7-4.2-0.8
			c-1.3-0.2-2.6-0.3-3.9-0.3h-4.3v17.1c0.7,0.5,1.4,1,2.1,1.5c0.8,0.5,1.6,0.9,2.4,1.3c0.8,0.4,1.6,0.7,2.5,0.9
			c0.8,0.2,1.6,0.3,2.5,0.3h6.1c1.3,0,2.5-0.1,3.8-0.3c1.4-0.2,2.7-0.5,4-0.9c1.3-0.4,2.5-0.9,3.8-1.5c1.1-0.6,2.2-1.2,3.2-2.1
			l1.4,1.3l-6,5.3h-16.1c-1.9,0-3.8-0.4-5.5-1.3c-1.7-0.8-3.3-1.7-4.7-2.9c-1.2-1-2.3-1.9-3.3-2.8c-1-0.9-2-1.8-3.1-2.7v-0.1
			c-1.4-1.3-2.6-2.8-3.6-4.4c-1.1-1.7-1.7-3.7-1.7-5.7h2c0,1.4,0.3,2.8,1,4c0.6,1.2,1.4,2.4,2.3,3.4v-33.4h-5v-1.7h37.7l6,5.3
			L421.2,281.2z"/>
		<path fill="#FFFFFF" d="M475.5,281.2c-1-0.9-2.2-1.6-3.4-2.2c-1.3-0.6-2.8-1.1-4.2-1.5c-1.5-0.4-3.1-0.7-4.7-0.8
			c-1.6-0.2-3.2-0.3-4.9-0.3h-13.1v21.1h15.1l6,5.3l-1.4,1.2c-1-0.9-2.2-1.6-3.4-2.2c-1.3-0.6-2.6-1.1-4-1.5
			c-1.4-0.4-2.8-0.7-4.2-0.8c-1.3-0.2-2.6-0.3-3.9-0.3h-4.3v17.1c0.7,0.5,1.4,1,2.1,1.5c0.8,0.5,1.6,0.9,2.4,1.3
			c0.8,0.4,1.6,0.7,2.5,0.9c0.8,0.2,1.6,0.3,2.5,0.3h6.1c1.3,0,2.5-0.1,3.8-0.3c1.4-0.2,2.7-0.5,4-0.9c1.3-0.4,2.5-0.9,3.8-1.5
			c1.1-0.6,2.2-1.3,3.2-2.1l1.4,1.3l-6,5.3h-16.2c-1.9,0-3.8-0.4-5.5-1.3c-1.7-0.8-3.3-1.7-4.7-2.9c-1.2-1-2.3-1.9-3.3-2.8
			s-2-1.8-3.1-2.7v-0.1c-1.4-1.3-2.6-2.8-3.6-4.4c-1.1-1.7-1.7-3.7-1.7-5.7h2c0,1.4,0.3,2.8,1,4c0.6,1.2,1.4,2.4,2.3,3.4v-33.3h-5
			v-1.7h37.7l6,5.3L475.5,281.2z"/>
		<path fill="#FFFFFF" d="M201.8,363.5c0-4.8-2.9-7.9-7.5-7.9h-5.3v15.8h5.3C198.9,371.5,201.8,368.3,201.8,363.5 M194.3,370h-3.9
			v-13h3.9c3.7,0,6,2.4,6,6.5S198,370,194.3,370"/>
		<rect x="207.6" y="355.6" fill="#FFFFFF" width="1.4" height="15.8"/>
		<polygon fill="#FFFFFF" points="225.8,370 216.5,370 216.5,364.1 224.5,364.1 224.5,362.7 216.5,362.7 216.5,357 225.6,357 
			225.6,355.6 215.1,355.6 215.1,371.5 225.8,371.5 		"/>
		<path fill="#FFFFFF" d="M248.1,355.6h-6.5v15.8h1.4v-5.8h5.3c2.8,0,4.5-2.6,4.5-5C252.9,358,250.8,355.8,248.1,355.6 M248.3,364.2
			H243v-7.2h5.1c1.9,0.1,3.3,1.7,3.3,3.6C251.5,362.5,250.2,364.1,248.3,364.2L248.3,364.2"/>
		<polygon fill="#FFFFFF" points="268.5,370 259.2,370 259.2,364.1 267.2,364.1 267.2,362.7 259.2,362.7 259.2,357 268.3,357 
			268.3,355.6 257.7,355.6 257.7,371.5 268.5,371.5 		"/>
		<path fill="#FFFFFF" d="M274.7,365.6h4.7l3.8,5.8h1.7l-3.9-6c2.7-0.9,4.1-3.8,3.2-6.5c-0.7-1.9-2.4-3.3-4.4-3.4h-6.5v15.8h1.4
			L274.7,365.6z M280,364.2h-5.3V357h5.1c1.9,0.1,3.3,1.7,3.3,3.6C283.2,362.5,281.8,364.1,280,364.2L280,364.2"/>
		<polygon fill="#FFFFFF" points="301.3,370 292,370 292,355.6 290.5,355.6 290.5,371.5 301.3,371.5 		"/>
		<polygon fill="#FFFFFF" points="316.8,370 307.4,370 307.4,364.1 315.4,364.1 315.4,362.7 307.4,362.7 307.4,357 316.6,357 
			316.6,355.6 306,355.6 306,371.5 316.8,371.5 		"/>
		<path fill="#FFFFFF" d="M166.5,384.9h-5.3v15.9h5.3c4.5,0,7.5-3.1,7.5-7.9S171,384.9,166.5,384.9 M166.5,399.3h-3.9v-13h3.9
			c3.7,0,6,2.4,6,6.5S170.2,399.3,166.5,399.3"/>
		<polygon fill="#FFFFFF" points="181.2,393.3 189.2,393.3 189.2,391.9 181.2,391.9 181.2,386.3 190.3,386.3 190.3,384.9 
			179.8,384.9 179.8,400.7 190.5,400.7 190.5,399.3 181.2,399.3 		"/>
		<path fill="#FFFFFF" d="M206.5,389.8c0-2.7-2-4.9-4.7-5h-6.5v15.9h1.4v-5.8h4.7l3.8,5.8h1.7l-3.9-6
			C205.2,394.1,206.6,392.1,206.5,389.8 M196.7,386.3h5.1c1.9,0.1,3.3,1.7,3.3,3.6c0.1,1.9-1.3,3.5-3.1,3.6h-5.3L196.7,386.3z"/>
		<path fill="#FFFFFF" d="M229.7,384.9v-0.1V384.9l-0.5,0l-7,15.9h1.6l2.3-5.3h7.1l2.3,5.3h1.6l-6.9-15.8L229.7,384.9z M226.7,394
			l3-6.8l2.9,6.8H226.7z"/>
		<polygon fill="#FFFFFF" points="243.5,384.9 242.1,384.9 242.1,400.7 252.8,400.7 252.8,399.3 243.5,399.3 		"/>
		<polygon fill="#FFFFFF" points="256,386.3 261.7,386.3 261.7,400.7 263.1,400.7 263.1,386.3 268.8,386.3 268.8,384.9 256,384.9 		
			"/>
		<polygon fill="#FFFFFF" points="288.6,384.5 288.4,384.9 287.9,384.9 281.4,395.8 274.8,384.9 274.3,384.9 274.1,384.5 
			274.1,384.9 273.7,384.9 273.7,400.7 275.1,400.7 275.1,388.1 280.9,397.8 281.8,397.8 287.6,388.1 287.6,400.7 289,400.7 
			289,384.9 288.6,384.9 		"/>
		<path fill="#FFFFFF" d="M301.5,384.9l-0.1-0.1l-0.1,0.1h-0.5l-6.9,15.9h1.5l2.3-5.3h7.1l2.3,5.3h1.5l-6.9-15.8L301.5,384.9z
			 M298.5,394l3-6.8l2.9,6.8H298.5z"/>
		<path fill="#FFFFFF" d="M325.2,389.8c0-2.7-2-4.9-4.7-5H314v15.9h1.4v-5.8h4.8l3.8,5.8h1.7l-3.9-6
			C323.9,394.1,325.3,392.1,325.2,389.8 M315.4,386.3h5.1c1.9,0.1,3.3,1.7,3.3,3.6c0.1,1.9-1.3,3.5-3.1,3.6h-5.3L315.4,386.3z"/>
		<polygon fill="#FFFFFF" points="344.4,384.9 342.3,384.9 332.6,393.8 332.6,384.9 331.2,384.9 331.2,400.7 332.6,400.7 
			332.6,395.8 335.6,393 341.7,400.7 343.5,400.7 336.6,392.1 		"/>
		
			<rect x="81.2" y="204.1" transform="matrix(1.692891e-02 -0.9999 0.9999 1.692891e-02 -121.6925 292.262)" fill="#FFFFFF" width="13.2" height="7.9"/>
		<polygon fill="#FFFFFF" points="72.5,162.1 80.6,138.4 88.5,141.1 83.6,155.4 91.7,158.2 96,145.5 103.9,148.2 99.6,160.9 
			110.7,164.7 107.5,174.1 		"/>
		
			<rect x="101.6" y="110.1" transform="matrix(0.4926 -0.8703 0.8703 0.4926 -57.7786 157.9776)" fill="#FFFFFF" width="9.9" height="36.9"/>
		<polygon fill="#FFFFFF" points="102.7,99.9 109.1,92.4 131,110.9 141.1,98.9 147.4,104.2 130.9,123.8 		"/>
		<path fill="#FFFFFF" d="M133.3,66.5c-0.2-0.3,0-0.4,0.4-0.3l25.8,6.6l3.4-26.2c0-0.3,0.2-0.5,0.4-0.2l22.6,29.8l-8.1,5.4L168.3,69
			l-1.7,14c0,0.2-0.1,0.3-0.3,0.3c0,0,0,0,0,0h-0.1l-14-3.6l8.1,13.6l-8,5.4L133.3,66.5z"/>
		<polygon fill="#FFFFFF" points="183.3,38.1 207.1,30.3 209.7,38.2 195.2,42.9 197.9,51.1 210.6,46.9 213.2,54.8 200.5,59 
			204.1,70.1 194.7,73.2 		"/>
		<polygon fill="#FFFFFF" points="224.5,26.9 250.3,24.7 251,33 235,34.3 235.7,42.9 249,41.8 249.7,49.6 236.4,50.7 236.7,54.6 
			253.4,53.2 254.1,61.5 227.5,63.7 		"/>
		<path fill="#FFFFFF" d="M261,55.3l7.9-4.2c1.4,2.5,3.4,4.6,7,5.2c2.9,0.4,4.8-0.1,5.1-2.2c0.3-1.6-0.8-2.5-3.1-3.7l-4.1-2.1
			c-5-2.6-8.3-6.4-7.4-12.4c1.1-7.2,7.6-10,14.1-9c6.5,1.1,9.6,3.9,11.4,6.7l-6.5,5c-1.2-2-3.3-3.3-5.6-3.6c-2.4-0.4-3.7,0.5-3.9,2
			c-0.2,1.5,0.5,2.2,2.2,3.1l4.6,2.4c6.9,3.5,8.8,7.4,8,12.6c-1,6.7-6,10.9-15.6,9.4C266.8,63.2,262.8,58.7,261,55.3"/>
		<polygon fill="#FFFFFF" points="313.9,44.6 304.8,40.9 307.9,33.2 335.2,44.2 332.1,51.9 323.1,48.3 312.3,74.8 303.2,71.1 		"/>
		
			<rect x="324.8" y="65.7" transform="matrix(0.5435 -0.8394 0.8394 0.5435 97.36 320.3637)" fill="#FFFFFF" width="36.9" height="9.9"/>
		<path fill="#FFFFFF" d="M356.9,105.8c-0.3,0.1-0.6-0.1-0.5-0.5l14-38.6l7.5,7.4l-6.8,17.5l17.3-7l7.1,7.1L356.9,105.8z"/>
		<path fill="#FFFFFF" d="M372.6,123.2l-5.2-8.1l41.3-5.2c0.4-0.1,0.6,0.2,0.4,0.5l-21.9,35.3l-5.5-8.6l1.9-2.9l-7.5-11.7
			L372.6,123.2z M393.1,119.7l-9.2,1.5l4,6.3L393.1,119.7z"/>
		<polygon fill="#FFFFFF" points="424.7,141.2 427.8,150.6 400.6,159.6 405.5,174.5 397.6,177.1 389.6,152.8 		"/>
		
			<rect x="412.5" y="202.8" transform="matrix(0.9999 -1.012274e-02 1.012274e-02 0.9999 -2.0991 4.2264)" fill="#FFFFFF" width="7.9" height="13.2"/>
		<polygon fill="#FFFFFF" points="313.8,241.5 188.3,241.5 196.6,229.7 305.5,229.7 		"/>
		<polygon fill="#FFFFFF" points="276.3,199.2 276.3,229.7 284.6,229.7 284.6,207.5 		"/>
		<polygon fill="#FFFFFF" points="216.1,204.4 216.1,229.7 224.4,229.7 224.4,196.1 		"/>
		<polygon fill="#FFFFFF" points="260.7,131.6 238.9,131.6 216.1,157.9 216.1,186.5 218.1,184.5 224,190.6 224.4,190.2 224.4,161 
			242.7,140 257,140 276.3,160.7 276.3,181.2 284.6,189.6 284.6,157.5 		"/>
		<path fill="#FFFFFF" d="M256.2,176.7h-11.8l-8.3-8.3v-11.8l8.3-8.3h11.8l8.3,8.3v11.8L256.2,176.7z M247.9,168.4h4.9l3.4-3.4v-4.9
			l-3.4-3.4h-4.9l-3.5,3.4v4.9L247.9,168.4z"/>
		<path fill="#FFFFFF" d="M261.5,154l-3-3l40.3-40.3l9,9l-25.1,25.1l-5.9-6.1L261.5,154z M279.7,135.8l3,3.1l19.2-19.2l-3-3.1
			L279.7,135.8z"/>
		<path fill="#FFFFFF" d="M292.9,219.9l-25.1-25.2l6.1-5.9l-15.2-15.2l3-3l40.3,40.3L292.9,219.9z M273.7,194.8l19.2,19.2l3-3.1
			l-19.2-19.2L273.7,194.8z"/>
		<path fill="#FFFFFF" d="M201.9,214.4l-9-9l25.1-25.1l5.9,6.1l15.2-15.2l3,3L201.9,214.4z M198.9,205.4l3.1,3.1l19.2-19.2l-3-3.1
			L198.9,205.4z"/>
		<path fill="#FFFFFF" d="M238.8,154l-40.4-40.3l9-9l25.1,25.1l-6.1,5.9l15.2,15.2L238.8,154z M204.5,113.7l19.2,19.2l3.1-3
			l-19.3-19.2L204.5,113.7z"/>
		<rect x="240.3" y="190.9" fill="#FFFFFF" width="11.8" height="4.2"/>
		<rect x="248.7" y="199.2" fill="#FFFFFF" width="11.8" height="4.2"/>
		<rect x="257" y="220.1" fill="#FFFFFF" width="11.8" height="4.2"/>
		<rect x="265.4" y="211.7" fill="#FFFFFF" width="11.8" height="4.2"/>
		<rect x="219.4" y="220.1" fill="#FFFFFF" width="11.8" height="4.2"/>
	</g>
</g>
</svg>
