<svg xmlns="http://www.w3.org/2000/svg" viewBox="0 0 450.28 376"><defs><style>.cls-1{fill:#fff;}</style></defs><title>Element 1</title><g id="Ebene_2" data-name="Ebene 2"><g id="Ebene_1-2" data-name="Ebene 1"><path class="cls-1" d="M36.89,297.53v-1.75H41.4l-7.61-16.49H15.14L7.49,295.78H12v1.75H0v-1.75H5.33l19.3-42,.66-1.41c.23-.48.45-.93.66-1.34s.42-.92.63-1.37h.94l21.31,46.12h5.26v1.75ZM24.47,259,16,277.55H33Z"/><path class="cls-1" d="M96,297.53v-1.75h5a26.27,26.27,0,0,0-.66-4.53,16.44,16.44,0,0,0-1.63-4.18A15.1,15.1,0,0,0,96,283.48a15.77,15.77,0,0,0-4-2.75,12.7,12.7,0,0,0-2.69-1.09,10.51,10.51,0,0,0-2.88-.4,6.36,6.36,0,0,1-4.62-1.64A5.75,5.75,0,0,1,80,273.15h2a4.64,4.64,0,0,0,1.22,3.29,3.74,3.74,0,0,0,3,1A7.77,7.77,0,0,0,90.49,276a10.81,10.81,0,0,0,2.94-3.15,13.67,13.67,0,0,0,1.69-4.1,17,17,0,0,0-.15-9,12.68,12.68,0,0,0-2.2-4.38,13.52,13.52,0,0,0-1.32-1.47,6.71,6.71,0,0,0-1.63-1.13,9.8,9.8,0,0,0-2.19-.75,13.27,13.27,0,0,0-2.94-.28h-7.9v44h5v1.75H64.65v-1.75h5v-44h-5V250H86.34a18,18,0,0,1,6.48,1.16,17.21,17.21,0,0,1,5.29,3.13,14.72,14.72,0,0,1,3.58,4.63,12.87,12.87,0,0,1,.47,10.24,14.46,14.46,0,0,1-2.38,4,15.46,15.46,0,0,1-3.67,3.19,18.65,18.65,0,0,1-4.64,2.1,15.6,15.6,0,0,1,5.08,2.94,17.48,17.48,0,0,1,3.51,4.2,19.22,19.22,0,0,1,2.07,4.91,25.55,25.55,0,0,1,.82,5.22h5v1.75Z"/><path class="cls-1" d="M161.17,256.48a14.45,14.45,0,0,0-3.38-2.16,23.17,23.17,0,0,0-4.2-1.47,35.92,35.92,0,0,0-4.66-.84,41.71,41.71,0,0,0-4.85-.29H131v21.12h15.09l6,5.33-1.37,1.19a14.57,14.57,0,0,0-3.39-2.16,26.19,26.19,0,0,0-4-1.47,32.12,32.12,0,0,0-4.17-.84,29.16,29.16,0,0,0-3.86-.29H131v17.1a20,20,0,0,0,2.09,1.47q1.16.72,2.38,1.32a14.13,14.13,0,0,0,2.51.94,9.67,9.67,0,0,0,2.47.34h6.08a24.71,24.71,0,0,0,3.76-.31,30.28,30.28,0,0,0,4-.91,24.12,24.12,0,0,0,3.75-1.47,14.79,14.79,0,0,0,3.17-2.07l1.38,1.25-6,5.26H140.42a13,13,0,0,1-5.52-1.25,22.2,22.2,0,0,1-4.69-2.89c-1.2-1-2.3-1.88-3.29-2.79s-2-1.81-3.11-2.73v-.06a22,22,0,0,1-3.61-4.42,10.81,10.81,0,0,1-1.72-5.68h2a8.59,8.59,0,0,0,1,4,17,17,0,0,0,2.32,3.38V251.72h-5V250h37.72l6,5.26Z"/><path class="cls-1" d="M215.07,297.53v-1.75h10.15a10.93,10.93,0,0,0-1.76-4.14,15.74,15.74,0,0,0-3.13-3.51L185.1,257.55v38.23h5v1.75h-7.31v-.06c-.79,0-1.75.06-2.88.06h-7.12v-1.75h5V248.71l7.08,6.21L220,285.38V251.72h-5V250h17.24v1.76h-5v44.06h5v1.75Z"/><path class="cls-1" d="M248.28,255.1l1.26-1.13,2.38-2.13,3.39-3v47h10.15a8.31,8.31,0,0,0,3-.54,10.67,10.67,0,0,0,2.63-1.44,14.35,14.35,0,0,0,2.23-2c.67-.75,1.29-1.52,1.88-2.32a23.39,23.39,0,0,0,3.29-7.33,32.75,32.75,0,0,0,0-16.86A23.41,23.41,0,0,0,275.2,258a18,18,0,0,0-4.41-4.41,11.45,11.45,0,0,0-6.55-1.94V250h.82a19.85,19.85,0,0,1,9.37,2.25,22.22,22.22,0,0,1,6.77,5.58,24.37,24.37,0,0,1,4.13,7.58,25.92,25.92,0,0,1,1.41,8.34,25.37,25.37,0,0,1-1.41,8.27,24.19,24.19,0,0,1-4.13,7.49,22.45,22.45,0,0,1-6.77,5.55,21,21,0,0,1-9.37,2.38c-.88,0-1.78,0-2.69,0s-1.82,0-2.7,0h-16.4v-1.63h4.89l.07-38.23a18.5,18.5,0,0,0-2.35,3.51,9.21,9.21,0,0,0-1,4H243a11.67,11.67,0,0,1,.5-3,12.58,12.58,0,0,1,1.19-2.73,16.13,16.13,0,0,1,1.69-2.38,19.27,19.27,0,0,1,1.94-2m12.35.94h-2a5.68,5.68,0,0,1,1.81-4.45,7.46,7.46,0,0,1,5.14-1.63v1.76c-3.3,0-5,1.44-5,4.32"/><path class="cls-1" d="M297.43,279.17l-.06-1.13.06-4.26v-.62h2q.06,4.32,5.26,4.33v.06a6,6,0,0,1,3.79,1.85,5.93,5.93,0,0,1,1.41,4.17H308a4.72,4.72,0,0,0-.94-3,3.79,3.79,0,0,0-2.32-1.29,19.57,19.57,0,0,0,1.22,6,17.84,17.84,0,0,0,3.16,5.42,15.54,15.54,0,0,0,4.51,3.6,12.54,12.54,0,0,0,11.54,0,16.44,16.44,0,0,0,4.54-3.6A18.32,18.32,0,0,0,333,284.9a20.25,20.25,0,0,0,1.09-6.54,20.48,20.48,0,0,0-1-6,18.23,18.23,0,0,0-2.81-5.63,16.13,16.13,0,0,0-4.63-4.2,12.11,12.11,0,0,0-6.33-1.66,8,8,0,0,1-3.17-.66,4.49,4.49,0,0,1-2.29-2.1,5.1,5.1,0,0,1,0-5.33,4.93,4.93,0,0,1,2.88-2.41,7.11,7.11,0,0,1,3.92-.22,6.92,6.92,0,0,1,3.45,1.91,5.37,5.37,0,0,1,1.48,4h-2a4.2,4.2,0,0,0-1.19-3.23,4.38,4.38,0,0,0-3.07-1.09,4.11,4.11,0,0,0-3.17,1.13,3.72,3.72,0,0,0-1,2.57,3.45,3.45,0,0,0,1.22,2.54c.82.78,2.35,1.18,4.61,1.22l-.07.06a22.36,22.36,0,0,1,7.94,1.79,22,22,0,0,1,6.43,4.2,19.74,19.74,0,0,1,4.34,6,17.08,17.08,0,0,1-.1,14.61,18.68,18.68,0,0,1-4.63,6,22.93,22.93,0,0,1-6.89,4,25.36,25.36,0,0,1-8.45,1.63,21.69,21.69,0,0,1-8.36-1.35,23.84,23.84,0,0,1-6.92-4,19.77,19.77,0,0,1-4.81-5.89,16.68,16.68,0,0,1-2-7.15"/><path class="cls-1" d="M394.51,256.48a14.36,14.36,0,0,0-3.39-2.16,23.2,23.2,0,0,0-4.2-1.47,36.33,36.33,0,0,0-4.67-.84,41.87,41.87,0,0,0-4.86-.29h-13.1v21.12H379.4l6,5.33L384,279.36a14.52,14.52,0,0,0-3.38-2.16,26,26,0,0,0-4-1.47,31.8,31.8,0,0,0-4.17-.84,29.11,29.11,0,0,0-3.85-.29h-4.33v17.1a22.65,22.65,0,0,0,2.1,1.47c.78.48,1.57.92,2.38,1.32a14.22,14.22,0,0,0,2.51.94,9.64,9.64,0,0,0,2.47.34h6.08a24.72,24.72,0,0,0,3.76-.31,30,30,0,0,0,4-.91,24.24,24.24,0,0,0,3.76-1.47,15,15,0,0,0,3.17-2.07l1.38,1.25-6,5.26H373.79a13,13,0,0,1-5.52-1.25,22.23,22.23,0,0,1-4.69-2.89q-1.8-1.43-3.3-2.79c-1-.9-2-1.81-3.1-2.73v-.06a21.89,21.89,0,0,1-3.62-4.42,10.8,10.8,0,0,1-1.71-5.68h2a8.59,8.59,0,0,0,1,4,16.61,16.61,0,0,0,2.32,3.38V251.72h-5V250H389.9l6,5.26Z"/><path class="cls-1" d="M448.85,256.48a14.27,14.27,0,0,0-3.38-2.16,23.22,23.22,0,0,0-4.2-1.47,36.08,36.08,0,0,0-4.67-.84,41.71,41.71,0,0,0-4.86-.29h-13.1v21.12h15.15l6,5.33-1.38,1.19A14.58,14.58,0,0,0,435,277.2a26,26,0,0,0-4-1.47,32.08,32.08,0,0,0-4.17-.84,29.13,29.13,0,0,0-3.85-.29h-4.32v17.1a20.06,20.06,0,0,0,2.1,1.47c.78.48,1.57.92,2.38,1.32a14,14,0,0,0,2.51.94,9.65,9.65,0,0,0,2.47.34h6.08a24.65,24.65,0,0,0,3.76-.31,29.89,29.89,0,0,0,4-.91,24.52,24.52,0,0,0,3.76-1.47A14.67,14.67,0,0,0,448.9,291l1.38,1.25-6,5.26H428.1a13,13,0,0,1-5.51-1.25,22.28,22.28,0,0,1-4.7-2.89q-1.8-1.43-3.29-2.79t-3.11-2.73v-.06a22,22,0,0,1-3.61-4.42,10.87,10.87,0,0,1-1.71-5.68h2a8.59,8.59,0,0,0,1,4,17.07,17.07,0,0,0,2.32,3.38V251.72h-5V250h37.73l6,5.26Z"/><path class="cls-1" d="M175.13,338.8c0-4.8-2.93-7.9-7.46-7.9h-5.26v15.84h5.26c4.53,0,7.46-3.12,7.46-7.94m-7.46,6.52h-3.88v-13h3.85c3.73,0,6,2.42,6,6.47s-2.28,6.53-6,6.53"/><rect class="cls-1" x="180.95" y="330.92" width="1.42" height="15.82"/><polygon class="cls-1" points="199.16 345.32 189.84 345.32 189.84 339.36 197.85 339.36 197.85 337.94 189.84 337.94 189.84 332.32 198.98 332.32 198.98 330.9 188.42 330.9 188.42 346.74 199.16 346.74 199.16 345.32"/><path class="cls-1" d="M221.48,330.9h-6.54v15.84h1.42v-5.83h5.27c2.8,0,4.53-2.6,4.53-5a4.92,4.92,0,0,0-4.68-5m.15,8.59h-5.27v-7.17h5.12a3.52,3.52,0,0,1,3.26,3.57,3.36,3.36,0,0,1-3.1,3.6h0"/><polygon class="cls-1" points="241.82 345.32 232.5 345.32 232.5 339.36 240.5 339.36 240.5 337.94 232.5 337.94 232.5 332.32 241.63 332.32 241.63 330.9 231.08 330.9 231.08 346.74 241.82 346.74 241.82 345.32"/><path class="cls-1" d="M248.05,340.91h4.74l3.76,5.83h1.69l-3.85-6a5.08,5.08,0,0,0-1.23-9.87h-6.54v15.84H248Zm5.27-1.42h-5.27v-7.17h5.12a3.52,3.52,0,0,1,3.26,3.57,3.36,3.36,0,0,1-3.1,3.6h0"/><polygon class="cls-1" points="274.62 345.32 265.3 345.32 265.3 330.9 263.88 330.9 263.88 346.74 274.62 346.74 274.62 345.32"/><polygon class="cls-1" points="290.09 345.32 280.77 345.32 280.77 339.36 288.77 339.36 288.77 337.94 280.77 337.94 280.77 332.32 289.9 332.32 289.9 330.9 279.35 330.9 279.35 346.74 290.09 346.74 290.09 345.32"/><path class="cls-1" d="M139.85,360.13h-5.26V376h5.26c4.53,0,7.46-3.12,7.46-7.94s-2.93-7.9-7.46-7.9m0,14.42H136v-13h3.85c3.72,0,6,2.43,6,6.47s-2.28,6.53-6,6.53"/><polygon class="cls-1" points="154.52 368.59 162.52 368.59 162.52 367.17 154.52 367.17 154.52 361.55 163.66 361.55 163.66 360.13 153.1 360.13 153.1 375.97 163.84 375.97 163.84 374.55 154.52 374.55 154.52 368.59"/><path class="cls-1" d="M179.88,365.12a4.92,4.92,0,0,0-4.68-5h-6.54V376h1.42v-5.83h4.71l3.8,5.83h1.69l-3.85-6a4.9,4.9,0,0,0,3.45-4.88m-9.8-3.57h5.12a3.52,3.52,0,0,1,3.26,3.57,3.36,3.36,0,0,1-3.1,3.6h-5.29Z"/><path class="cls-1" d="M203,360.13,203,360l-.06.15h-.45L195.52,376h1.55l2.32-5.31h7.1l2.3,5.31h1.55l-6.89-15.84Zm-3,9.12,3-6.75,2.92,6.75Z"/><polygon class="cls-1" points="216.8 360.13 215.39 360.13 215.39 375.97 226.13 375.97 226.13 374.55 216.8 374.55 216.8 360.13"/><polygon class="cls-1" points="229.38 361.55 235.06 361.55 235.06 375.97 236.48 375.97 236.48 361.55 242.16 361.55 242.16 360.13 229.38 360.13 229.38 361.55"/><polygon class="cls-1" points="261.94 359.74 261.71 360.13 261.24 360.13 254.69 371.07 248.14 360.13 247.67 360.13 247.44 359.74 247.44 360.13 247.02 360.13 247.02 375.97 248.44 375.97 248.44 363.36 254.24 373.04 255.14 373.04 260.94 363.36 260.94 375.97 262.36 375.97 262.36 360.13 261.94 360.13 261.94 359.74"/><path class="cls-1" d="M274.88,360.13l-.09-.13-.06.15h-.45L267.39,376h1.55l2.32-5.31h7.1l2.32,5.31h1.55l-6.9-15.84Zm-3,9.12,3-6.75,2.92,6.75Z"/><path class="cls-1" d="M298.52,365.12a4.92,4.92,0,0,0-4.68-5H287.3V376h1.42v-5.83h4.75l3.76,5.83h1.69l-3.85-6a4.9,4.9,0,0,0,3.45-4.88m-9.8-3.57h5.07a3.52,3.52,0,0,1,3.26,3.57,3.36,3.36,0,0,1-3.1,3.6h-5.28Z"/><polygon class="cls-1" points="317.7 360.13 315.63 360.13 305.96 369.12 305.96 360.15 304.54 360.15 304.54 375.97 305.96 375.97 305.96 371.07 308.93 368.3 315.02 375.97 316.84 375.97 309.98 367.33 317.7 360.13"/><rect class="cls-1" x="54.49" y="179.36" width="13.24" height="7.87" transform="translate(-123.19 241.29) rotate(-89.03)"/><polygon class="cls-1" points="45.86 137.38 53.98 113.65 61.84 116.34 56.92 130.72 65.04 133.5 69.38 120.82 77.24 123.5 72.89 136.19 83.99 139.99 80.79 149.34 45.86 137.38"/><rect class="cls-1" x="74.97" y="85.35" width="9.89" height="36.94" transform="translate(-49.8 122.22) rotate(-60.49)"/><polygon class="cls-1" points="76.06 75.21 82.44 67.66 104.3 86.14 114.43 74.16 120.78 79.52 104.26 99.06 76.06 75.21"/><path class="cls-1" d="M106.67,41.79c-.17-.35,0-.42.37-.32l25.75,6.64,3.4-26.21c0-.34.18-.51.43-.23L159.2,51.43l-8.07,5.42-9.49-12.59-1.71,14a.3.3,0,0,1-.31.29l-.1,0-14-3.57,8.08,13.6-8,5.39Z"/><polygon class="cls-1" points="156.6 13.38 180.42 5.6 183 13.49 168.56 18.2 171.22 26.35 183.95 22.19 186.53 30.09 173.8 34.24 177.43 45.39 168.04 48.45 156.6 13.38"/><polygon class="cls-1" points="197.81 2.15 223.61 0 224.3 8.28 208.34 9.61 209.05 18.16 222.36 17.05 223.02 24.9 209.71 26 210.02 29.84 226.74 28.45 227.43 36.73 200.87 38.94 197.81 2.15"/><path class="cls-1" d="M234.29,30.61l7.91-4.21c1.43,2.48,3.35,4.59,7,5.15,2.89.45,4.75-.14,5.06-2.18.25-1.56-.82-2.49-3.1-3.67l-4.07-2.12c-5-2.59-8.29-6.39-7.35-12.4,1.12-7.18,7.64-10,14.13-8.95s9.62,3.85,11.37,6.71l-6.48,5a7.65,7.65,0,0,0-5.6-3.56c-2.36-.37-3.71.52-3.93,2s.48,2.22,2.16,3.08L256,17.82c6.91,3.55,8.84,7.42,8,12.56-1,6.71-6,10.88-15.63,9.38-8.2-1.28-12.28-5.76-14.07-9.11"/><polygon class="cls-1" points="287.23 19.83 278.16 16.17 281.28 8.47 308.57 19.5 305.45 27.21 296.39 23.54 285.66 50.06 276.5 46.36 287.23 19.83"/><rect class="cls-1" x="298.09" y="41.01" width="36.9" height="9.88" transform="translate(105.94 286.69) rotate(-57.08)"/><path class="cls-1" d="M330.25,81.1c-.34.11-.57-.12-.46-.46l14-38.64,7.47,7.42-6.77,17.52,17.32-7L368.94,67Z"/><path class="cls-1" d="M345.93,98.43l-5.22-8.13,41.34-5.19c.41-.07.58.2.35.54L360.46,121l-5.52-8.59,1.88-2.89-7.51-11.7ZM366.45,95l-9.21,1.53,4,6.3Z"/><polygon class="cls-1" points="397.99 116.52 401.1 125.9 373.93 134.89 378.87 149.8 370.98 152.41 362.94 128.12 397.99 116.52"/><rect class="cls-1" x="385.85" y="178.12" width="7.87" height="13.24" transform="translate(-1.85 3.96) rotate(-0.58)"/><polygon class="cls-1" points="287.15 216.77 161.61 216.77 169.96 205.02 278.8 205.02 287.15 216.77"/><polygon class="cls-1" points="249.61 174.43 249.61 205.02 257.96 205.02 257.96 182.78 249.61 174.43"/><polygon class="cls-1" points="189.41 179.72 189.41 205.02 197.76 205.02 197.76 171.37 189.41 179.72"/><polygon class="cls-1" points="234.04 106.89 212.21 106.89 189.41 133.17 189.41 161.81 191.43 159.79 197.37 165.86 197.76 165.46 197.76 136.28 216.02 115.24 230.38 115.24 249.61 136.01 249.61 156.52 257.96 164.87 257.96 132.75 234.04 106.89"/><path class="cls-1" d="M229.57,152H217.79l-8.32-8.32V131.93l8.32-8.32h11.77l8.32,8.32v11.76Zm-8.31-8.35h4.85l3.43-3.43v-4.85L226.11,132h-4.85l-3.47,3.39v4.85Z"/><path class="cls-1" d="M234.79,129.26l-3-3L272.09,86l9,9L255.94,120.1,250,114ZM253,111.08l3,3.08L275.17,95l-3-3.05Z"/><path class="cls-1" d="M266.19,195.18,241.06,170l6.06-5.93-15.23-15.23,3-3,40.3,40.3ZM247,170.08l19.2,19.2,3-3.05-19.16-19.16Z"/><path class="cls-1" d="M175.25,189.7l-9-9,25.14-25.14,5.94,6.07,15.23-15.23,3,3Zm-3.05-9,3.05,3.05,19.17-19.17-3-3.08Z"/><path class="cls-1" d="M212.14,129.31,171.79,89l9-9,25.14,25.14-6.07,5.94,15.23,15.23ZM177.79,89,197,108.17l3.08-3L180.79,86Z"/><rect class="cls-1" x="213.66" y="166.13" width="11.8" height="4.18"/><rect class="cls-1" x="222.01" y="174.49" width="11.8" height="4.18"/><rect class="cls-1" x="230.36" y="195.36" width="11.8" height="4.18"/><rect class="cls-1" x="238.71" y="187.01" width="11.8" height="4.18"/><rect class="cls-1" x="192.78" y="195.36" width="11.8" height="4.18"/></g></g></svg>