<svg id="Ebene_1" data-name="Ebene 1" xmlns="http://www.w3.org/2000/svg" viewBox="0 0 3282.19 1362.58"><title>Zeichenfläche 1</title><path d="M2376.94,723.31a74.18,74.18,0,0,0,27.25,19q16.14,6.65,36.89,6.65a244.84,244.84,0,0,0,30.78-1.68,141.77,141.77,0,0,0,24.61-5.15l-6.83-26.65a161.8,161.8,0,0,1-20,4.13,167.32,167.32,0,0,1-23.47,1.62q-26.2,0-39.52-14.61t-15.39-42.22h115.93c.48-6,.72-13.2.72-21.2q-.09-40.9-18.44-62.82t-54.73-21.92q-19.46,0-34.55,6.89a68.45,68.45,0,0,0-25.27,19.58,88.54,88.54,0,0,0-15.45,30.24,137.13,137.13,0,0,0-5.22,38.87q0,21.73,5.75,39.34A83.52,83.52,0,0,0,2376.94,723.31Zm25.88-124.76Q2413.51,584,2433.9,584c12.82,0,22.42,4.07,28.37,12.27s9,19.73,9,34.73v8.27h-80.72C2391.62,621.84,2395.69,608.31,2402.82,598.55Z"/><path d="M2264.67,716.63q-9.34,3.59-25.15,3.59a134,134,0,0,1-19.58-1.44,114,114,0,0,1-17.13-3.59c-4.91-1.44-10.36-3.41-16.47-5.87l-9.28,26.35a101.49,101.49,0,0,0,9.64,3.83,136.71,136.71,0,0,0,14.13,4h0a176.92,176.92,0,0,0,18.34,3.28,186.41,186.41,0,0,0,22.58,1.32,127.39,127.39,0,0,0,30.24-3.35,67.08,67.08,0,0,0,23.22-10.11,46.22,46.22,0,0,0,14.91-17.19c3.53-6.88,5.27-15,5.27-24.19a54.12,54.12,0,0,0-5-23.35c-3.35-7.12-9-13.11-17-17.9s-19-9.34-33.11-13.65c-6.76-2.16-12.87-4.07-18.32-5.93a79.86,79.86,0,0,1-13.77-5.87,27.85,27.85,0,0,1-8.68-7.19,15.74,15.74,0,0,1-3.05-9.82c0-7.6,3-13.23,8.62-17s14.65-5.63,26.65-5.63a161,161,0,0,1,28,2.22,156.26,156.26,0,0,1,24.13,6v-28.8a189.16,189.16,0,0,0-23.17-5.09,202.1,202.1,0,0,0-31-2.1,101.34,101.34,0,0,0-27.55,3.53,63.21,63.21,0,0,0-21.26,10.18,46,46,0,0,0-13.59,16.65,51.5,51.5,0,0,0-4.79,22.82c0,8,1.26,14.67,3.83,20.18a40,40,0,0,0,10.78,14,64.43,64.43,0,0,0,16.35,9.82c6.23,2.72,13,5.26,20.42,7.72,6.23,2.22,13,4.49,20.36,6.89a58.3,58.3,0,0,1,18.32,9.16,18.4,18.4,0,0,1,7.31,15.21A27,27,0,0,1,2277,707C2275,711,2271,714.23,2264.67,716.63Z"/><path d="M1687.43,655.14q10.68,10.5,23.41,24.73t26.35,31.56c9,11.61,17.24,22.63,24.61,33.17h43.67c-5.95-9.11-12.29-18.32-19-27.79s-13.71-18.63-20.9-27.55-14.55-17.6-22.16-25.75-15.15-15.51-22.64-22.1l76.47-78.57h-41.92l-67.91,70.36V480.6H1652.5v264h34.93Z"/><path d="M1838.87,735.56a47.43,47.43,0,0,0,17.91,9.58,77.69,77.69,0,0,0,21.68,3,89,89,0,0,0,20.06-2.58,79.27,79.27,0,0,0,19-6.83,56.24,56.24,0,0,0,13.41-9.58l.66,15.45h33l-.08-125.17c0-10.54-1.38-19.58-4.13-27.19a43.54,43.54,0,0,0-12.69-18.74c-5.75-4.9-13.06-8.57-21.86-10.9s-19.32-3.53-31.32-3.53c-6,0-12.58.34-19.46,1s-12.56,1.38-17,2.22-11.56,2.52-21.44,5.09v28.47a247.88,247.88,0,0,1,23.89-7.07,117.53,117.53,0,0,1,27.19-2.93,87.27,87.27,0,0,1,22.1,2.69c6.89,1.8,12.07,5.21,15.39,10.18s5,12,5,21.14v9.82c-.59,0-1.79.12-3.59.12s-3.71.06-5.69.06-3.84,0-5.69.06-3,.12-3.47.12a238.45,238.45,0,0,0-28.86,2.28,107.07,107.07,0,0,0-23.23,6c-12.28,4.91-21.56,11.78-27.91,20.78s-9.46,20.3-9.46,34.13q0,14.91,4.49,25.33A45.92,45.92,0,0,0,1838.87,735.56Zm22.08-61a28.23,28.23,0,0,1,11.14-11.38,53.13,53.13,0,0,1,18.68-6.23,162,162,0,0,1,26.44-1.89h13v49.32a54.5,54.5,0,0,1-8.62,7.13c-3.59,2.52-8.56,4.77-14.79,6.77a62,62,0,0,1-18.68,2.93,42.92,42.92,0,0,1-16.17-2.93,21,21,0,0,1-11-10.3,35.37,35.37,0,0,1-3.71-16.23C1857.24,685,1858.49,679.28,1860.95,674.61Z"/><path d="M2478.83,971.4q-11.32,48.53-31.8,111.14l-49.16-187.19H2360.5l-49.28,186.71q-19.37-63.29-30.9-112t-18-81.14h-38.8c2.81,13,5.93,26.69,9.46,41s7.24,28.86,11.08,43.59,7.91,29.52,12.1,44.37,8.49,29.4,12.81,43.53,8.69,27.72,13,40.78,8.56,25.15,12.81,36.41h32.94l50.36-198.27,50.36,198.27h32.64c4.43-11.14,9.76-25.21,15.81-42.52s12.88-38.68,20.48-64.31,14.43-51,20.36-76.05h0q9-37.67,14.55-66.72h-36.65Q2490.15,922.87,2478.83,971.4Z"/><path d="M2029,1049.14q10.68,10.5,23.41,24.73t26.35,31.56c9,11.61,17.24,22.63,24.61,33.17l43.72,0c-5.95-9.11-12.29-18.32-19-27.79s-13.71-18.63-20.9-27.55-14.55-17.6-22.16-25.75-15.15-15.51-22.64-22.1l76.47-78.57h-41.92L2029,1027.24V874.6h-34.94v264H2029Z"/><path d="M2096.15,716.61q-9.34,3.59-25.15,3.59a134,134,0,0,1-19.67-1.38,114,114,0,0,1-17.13-3.59c-4.91-1.44-10.36-3.41-16.47-5.87l-9.28,26.35a101.51,101.51,0,0,0,9.64,3.83,136.68,136.68,0,0,0,14.13,4,176.91,176.91,0,0,0,18.38,3.29,186.38,186.38,0,0,0,22.58,1.32,127.39,127.39,0,0,0,30.24-3.35,67.08,67.08,0,0,0,23.23-10.18,46.21,46.21,0,0,0,14.91-17.19c3.53-6.88,5.27-15,5.27-24.19a54.12,54.12,0,0,0-5-23.35c-3.35-7.12-9-13.11-17-17.9s-19-9.34-33.11-13.65c-6.76-2.16-12.87-4.07-18.32-5.93a79.88,79.88,0,0,1-13.77-5.87,27.85,27.85,0,0,1-8.68-7.19,15.74,15.74,0,0,1-3-9.82c0-7.6,3-13.23,8.62-17s14.65-5.63,26.65-5.63a161,161,0,0,1,28,2.22,156.26,156.26,0,0,1,24.13,6v-28.8a189.16,189.16,0,0,0-23.17-5.09,202.09,202.09,0,0,0-31-2.1,101.35,101.35,0,0,0-27.55,3.53,63.21,63.21,0,0,0-21.26,10.18,46,46,0,0,0-13.59,16.65,51.5,51.5,0,0,0-4.79,22.82c0,8,1.26,14.67,3.83,20.18a40,40,0,0,0,10.78,14,64.44,64.44,0,0,0,16.35,9.82c6.23,2.72,13,5.26,20.42,7.72,6.23,2.22,13,4.49,20.36,6.89a58.3,58.3,0,0,1,18.32,9.16,18.4,18.4,0,0,1,7.36,15.21,27,27,0,0,1-2.93,11.74C2106.51,711,2102.44,714.21,2096.15,716.61Z"/><path d="M1798.64,986.27a43.55,43.55,0,0,0-12.69-18.74c-5.75-4.9-13.06-8.57-21.86-10.9s-19.32-3.53-31.32-3.53c-6,0-12.58.34-19.46,1s-12.56,1.38-17,2.22-11.56,2.52-21.44,5.09v28.4a247.88,247.88,0,0,1,23.89-7.07,117.53,117.53,0,0,1,27.19-2.93,87.28,87.28,0,0,1,22.1,2.69c6.89,1.8,12.07,5.21,15.39,10.18s5,12,5,21.14v9.82c-.59,0-1.79.12-3.59.12s-3.71.06-5.69.06-3.84,0-5.69.06-3,.12-3.47.12a238.47,238.47,0,0,0-28.91,2.32,107.08,107.08,0,0,0-23.23,6c-12.28,4.91-21.56,11.78-27.91,20.78s-9.46,20.3-9.46,34.13q0,14.91,4.49,25.33a45.92,45.92,0,0,0,12.1,17,47.44,47.44,0,0,0,17.91,9.58,77.69,77.69,0,0,0,21.68,3,89,89,0,0,0,20.06-2.58,79.27,79.27,0,0,0,19-6.83,56.24,56.24,0,0,0,13.41-9.58l.66,15.45h33l0-125.14C1802.77,1002.92,1801.39,993.88,1798.64,986.27Zm-30.2,112.16a54.49,54.49,0,0,1-8.62,7.13c-3.59,2.52-8.56,4.77-14.79,6.77a62,62,0,0,1-18.68,2.93,42.92,42.92,0,0,1-16.17-2.93,21,21,0,0,1-11-10.3,35.37,35.37,0,0,1-3.71-16.23c0-6.77,1.25-12.52,3.71-17.19a28.23,28.23,0,0,1,11.14-11.38A53.13,53.13,0,0,1,1729,1051a162,162,0,0,1,26.44-1.85h13Z"/><path d="M1946.13,955.78a56.55,56.55,0,0,0-18.26,3.23,52.14,52.14,0,0,0-18.2,11.5,70.51,70.51,0,0,0-14.91,20.72l-.72-34.37h-33.35v181.78h34.91v-98.45a54.18,54.18,0,0,1,3.17-17.55,51.27,51.27,0,0,1,9.64-16.65,50,50,0,0,1,16.17-12.34c6.41-3.23,14-4.85,22.76-4.85a53.42,53.42,0,0,1,12.46,1.08l0-33A65,65,0,0,0,1946.13,955.78Z"/><path d="M2571.2,1117.33a74.18,74.18,0,0,0,27.25,19q16.14,6.65,36.89,6.65a244.81,244.81,0,0,0,30.78-1.68,141.76,141.76,0,0,0,24.61-5.15l-6.83-26.65a161.77,161.77,0,0,1-20,4.13,167.31,167.31,0,0,1-23.47,1.62q-26.2,0-39.52-14.61t-15.39-42.22h115.93c.48-6.05.72-13.18.71-21.15q-.09-40.9-18.44-62.82T2629,952.53q-19.46,0-34.55,6.89A68.45,68.45,0,0,0,2569.17,979a88.54,88.54,0,0,0-15.46,30.25,137.12,137.12,0,0,0-5.21,38.86q0,21.73,5.75,39.34A83.52,83.52,0,0,0,2571.2,1117.33Zm25.88-124.72q10.69-14.55,31.08-14.55c12.84,0,22.41,4.08,28.36,12.28s9,19.73,9,34.73v8.26H2584.8C2585.88,1015.9,2589.95,1002.37,2597.08,992.61Z"/><path d="M1328.38,1110.82a62,62,0,0,1-10,2.28,83.75,83.75,0,0,1-13.71,1.08c-9.46,0-16.19-2.26-20.06-7s-5.87-12.34-5.87-22.82V984h47.19V956.86h-47.19V900.69q-21.26,10.69-34.73,15.45v40.72h-28.44V984H1244v104.24a81.77,81.77,0,0,0,2.87,22.64,43.5,43.5,0,0,0,9,16.95,39.2,39.2,0,0,0,15.81,10.6c6.4,2.45,14.19,3.71,23.29,3.71a149.36,149.36,0,0,0,20.9-1.44h0a126.63,126.63,0,0,0,18.65-3.88Z"/><path d="M2824.34,1110.66q-9.34,3.59-25.15,3.59a134.05,134.05,0,0,1-19.58-1.44,114,114,0,0,1-17.13-3.59c-4.91-1.44-10.36-3.41-16.47-5.87l-9.28,26.35a101.49,101.49,0,0,0,9.64,3.83,136.73,136.73,0,0,0,14.13,4,177,177,0,0,0,18.38,3.29,186.37,186.37,0,0,0,22.58,1.32,127.39,127.39,0,0,0,30.24-3.35,67.08,67.08,0,0,0,23.23-10.18,46.22,46.22,0,0,0,14.91-17.19h0c3.54-6.88,5.27-15,5.23-24.12a54.12,54.12,0,0,0-5-23.35c-3.35-7.12-9-13.11-17-17.9s-19-9.34-33.11-13.65c-6.76-2.16-12.87-4.07-18.32-5.93a79.86,79.86,0,0,1-13.77-5.87,27.85,27.85,0,0,1-8.68-7.19,15.74,15.74,0,0,1-3.05-9.82c0-7.6,3-13.23,8.62-17s14.65-5.63,26.65-5.63a161,161,0,0,1,28,2.22,156.26,156.26,0,0,1,24.13,6v-28.8a189.14,189.14,0,0,0-23.17-5.09,202.09,202.09,0,0,0-31-2.1,101.35,101.35,0,0,0-27.55,3.53,63.21,63.21,0,0,0-21.26,10.18A46,46,0,0,0,2747,983.54a51.51,51.51,0,0,0-4.79,22.82c0,8,1.25,14.67,3.83,20.18a40,40,0,0,0,10.78,14,64.43,64.43,0,0,0,16.35,9.82c6.23,2.72,13,5.26,20.42,7.72,6.23,2.22,13,4.49,20.36,6.89a58.3,58.3,0,0,1,18.32,9.16,18.4,18.4,0,0,1,7.31,15.21,27,27,0,0,1-2.93,11.74C2834.7,1105,2830.63,1108.26,2824.34,1110.66Z"/><path d="M2928.33,1088.24a81.77,81.77,0,0,0,2.87,22.64,43.5,43.5,0,0,0,9,16.95,39.2,39.2,0,0,0,15.81,10.6c6.4,2.45,14.19,3.71,23.29,3.71a149.35,149.35,0,0,0,20.9-1.44h0a126.62,126.62,0,0,0,18.54-3.88l-6.11-26a62,62,0,0,1-10,2.28,83.75,83.75,0,0,1-13.71,1.08c-9.46,0-16.19-2.26-20.06-7s-5.87-12.34-5.87-22.82V984h47.25V956.86h-47.19V900.69q-21.26,10.69-34.73,15.45v40.72h-28.44V984h28.44Z"/><path d="M949.27,1072.79h105q10,34.73,18.26,65.81h37.36c-3.32-12.51-7.19-25.87-11.32-39.94s-8.62-28.5-13.41-43.29-9.8-29.67-15.15-44.67-10.78-29.63-16.35-44-11.24-28.15-16.95-41.32-11.37-25.33-17-36.47H985.52c-5.62,11.14-11.25,23.23-17,36.47s-11.38,26.9-17,41.32-11,29-16.29,44-10.42,29.88-15.21,44.67-9.28,29.18-13.41,43.29-7.91,27.43-11.32,39.94H931Q943.07,1095.79,949.27,1072.79ZM1001.69,924c9,22,17,42.66,24.07,62.33s13.65,38.81,19.76,57.67H958.69Q971.87,1000.8,1001.69,924Z"/><path d="M474,321.15a67.26,67.26,0,0,0,22,14.91,69,69,0,0,0,27.13,5.37,67.68,67.68,0,0,0,27-5.39,69.39,69.39,0,0,0,0-127.89,67.67,67.67,0,0,0-27-5.39A69,69,0,0,0,496,208.15a67.26,67.26,0,0,0-22,14.91,74.08,74.08,0,0,0-15,22.1A68,68,0,0,0,459,299,74.08,74.08,0,0,0,474,321.15Z"/><path d="M1018.14,711.69c-8.51,4.37-20.3,6.59-35.51,6.59a149.1,149.1,0,0,1-24.25-2.16,159.72,159.72,0,0,1-24.25-5.75c-7.55-2.46-13.06-4.55-16.41-6.35l-10.18,29c2.46,1.14,6,2.63,10.72,4.43a133.22,133.22,0,0,0,17.19,5.27,209.2,209.2,0,0,0,23,4.37A197.56,197.56,0,0,0,987,749c14,0,26.52-1.42,37.57-4.64s20.34-7.83,28-14a59.89,59.89,0,0,0,17.55-22.7c4-9,6-19.28,6-30.9q0-17.87-5.75-30A62.53,62.53,0,0,0,1055,626.29a88.17,88.17,0,0,0-22.16-14c-8.44-3.72-17.19-7.31-26.35-10.72-8.27-2.93-15.87-5.69-22.82-8.38a103.2,103.2,0,0,1-17.84-8.86,38.69,38.69,0,0,1-11.68-11.14A27.81,27.81,0,0,1,950,557.74c0-12,4.34-21.35,13.08-27.76s20.9-9.64,36.59-9.64a176.44,176.44,0,0,1,21.5,1.38,200.26,200.26,0,0,1,21.32,4,188.15,188.15,0,0,1,19.28,5.87V499.85q-3.69-.89-12.22-3.23a170,170,0,0,0-21.44-4.19,196.27,196.27,0,0,0-28.08-1.86,123.73,123.73,0,0,0-35.69,4.79,79.46,79.46,0,0,0-27,13.77,60.4,60.4,0,0,0-17,21.8,66.11,66.11,0,0,0-6,28.56,81.55,81.55,0,0,0,2.1,18.68,49.65,49.65,0,0,0,8.68,17.72,64.48,64.48,0,0,0,16.17,15.27,119.23,119.23,0,0,0,18.92,10.42q9.43,4,19.94,7.72c7.36,2.81,15.61,6,24.61,9.58a72.51,72.51,0,0,1,23.29,14.37c6.41,6,9.64,14,9.62,23.77a55.41,55.41,0,0,1-3.41,18.44C1032,701.87,1026.65,707.32,1018.14,711.69Z"/><path d="M1143.91,1138.6h34.91v-264h-58.56v22.61c12.27,1.25,20.18,2.21,23.65,2.81Z"/><path d="M1156.72,733.5A61.75,61.75,0,0,0,1176,744.16c7.44,2.63,16.36,4,26.64,3.94,12.59,0,23.83-2.22,33.59-6.53a64,64,0,0,0,24.55-18.86c6.62-8.2,11.65-18.42,15-30.42s5.09-25.75,5.09-41.08a160.73,160.73,0,0,0-6-43.89c-4-14.49-11.62-26.11-22.7-34.91s-25.09-13.29-41.92-13.29a72.7,72.7,0,0,0-21.86,3.29,53.88,53.88,0,0,0-19.22,10.48,54.45,54.45,0,0,0-13.29,16.41l-.72-26.47h-33.35V817.22h34.91Zm0-77.39a117.53,117.53,0,0,1,2.93-27.19,69.09,69.09,0,0,1,8.5-21.38,41.66,41.66,0,0,1,13.83-14,35.34,35.34,0,0,1,18.8-5,42.38,42.38,0,0,1,22.1,6.11q10.24,6,15.45,20.84t5.21,36.41a139.8,139.8,0,0,1-1.2,19.1,102.08,102.08,0,0,1-3.74,17.1,63.56,63.56,0,0,1-6.83,14.55c-3.05,4.91-7.78,9-14.13,12.28s-13.78,4.91-22.16,4.91a48.75,48.75,0,0,1-21.44-4.55,64,64,0,0,1-17.32-12.47Z"/><path d="M634.2,647.57H314.79v27.67a67.68,67.68,0,0,0,5.39,27,69.92,69.92,0,0,0,37,37,67.68,67.68,0,0,0,27,5.39H662.57a69,69,0,0,0,27.13-5.39,67.28,67.28,0,0,0,22.1-14.91,71.39,71.39,0,0,0,14.73-22.1,67.67,67.67,0,0,0,5.39-27V522.17H411.79V480.49H731.92V452.84a67.67,67.67,0,0,0-5.39-27,71.39,71.39,0,0,0-14.73-22.1,67.27,67.27,0,0,0-22.1-14.91,69,69,0,0,0-27.13-5.39H384.12a67.68,67.68,0,0,0-27,5.39,69.92,69.92,0,0,0-37,37,67.68,67.68,0,0,0-5.39,27V605.89H634.2Z"/><path d="M1421.72,960.68a63.27,63.27,0,0,0-21,20.18l-.72-24h-33.3V1138.6h34.91V1032a59,59,0,0,1,3.05-19.16,49.72,49.72,0,0,1,8.62-15.57,39.92,39.92,0,0,1,13.05-10.48,36.43,36.43,0,0,1,16.53-3.77c10.83,0,18.68,3,23.41,9s7.07,15.57,7.07,28.68V1138.6h34.91V1032a57.43,57.43,0,0,1,3.17-19.16,48.94,48.94,0,0,1,8.8-15.57,40.14,40.14,0,0,1,13.11-10.48,36.43,36.43,0,0,1,16.53-3.77c10.83,0,18.68,3,23.41,9s7.13,15.57,7.13,28.68v117.92h34.95l-.12-127.9c0-18.21-4.79-32.4-14.25-42.46s-23.09-15.09-41-15.09q-19.34,0-33.17,8a73.09,73.09,0,0,0-23.71,22.16A42.55,42.55,0,0,0,1484.78,961c-8.57-5.21-18.94-7.84-31.5-7.84S1430.28,955.68,1421.72,960.68Z"/><path d="M1335.58,735.54h0a47.43,47.43,0,0,0,17.88,9.58,77.69,77.69,0,0,0,21.68,3,89,89,0,0,0,20.06-2.58,79.27,79.27,0,0,0,19-6.83,56.24,56.24,0,0,0,13.41-9.58l.66,15.45h33V619.43c0-10.54-1.38-19.58-4.13-27.19a43.55,43.55,0,0,0-12.69-18.74c-5.75-4.9-13.06-8.57-21.86-10.9s-19.32-3.53-31.32-3.53c-6,0-12.58.34-19.46,1s-12.56,1.38-17,2.22-11.56,2.52-21.44,5.09v28.44a247.88,247.88,0,0,1,23.89-7.07,117.53,117.53,0,0,1,27.19-2.93,87.28,87.28,0,0,1,22.1,2.69c6.89,1.8,12.07,5.21,15.39,10.18s5,12,5,21.14v9.82c-.59,0-1.79.12-3.59.12s-3.71.06-5.69.06-3.84,0-5.69.06-3,.12-3.47.12a238.45,238.45,0,0,0-28.86,2.28,107.07,107.07,0,0,0-23.23,6c-12.28,4.91-21.56,11.78-27.91,20.78s-9.46,20.3-9.46,34.13q0,14.91,4.48,25.34A45.92,45.92,0,0,0,1335.58,735.54Zm22-60.93a28.23,28.23,0,0,1,11.14-11.38A53.13,53.13,0,0,1,1387.4,657a162,162,0,0,1,26.46-1.89h13v49.28a54.48,54.48,0,0,1-8.62,7.13c-3.59,2.52-8.56,4.77-14.79,6.77a62,62,0,0,1-18.7,3,42.92,42.92,0,0,1-16.17-2.93,21,21,0,0,1-11-10.3,35.37,35.37,0,0,1-3.71-16.23C1353.87,685,1355.12,679.28,1357.58,674.61Z"/><path d="M1554.08,646.15a54.18,54.18,0,0,1,3.17-17.55,51.27,51.27,0,0,1,9.64-16.65,50,50,0,0,1,16.17-12.34c6.41-3.23,14-4.85,22.76-4.85a53.42,53.42,0,0,1,12.46,1.08l0-33a65,65,0,0,0-13.65-1.08,56.55,56.55,0,0,0-18.26,3.23,52.14,52.14,0,0,0-18.2,11.5,70.51,70.51,0,0,0-14.91,20.72l-.72-34.37h-33.35V744.6h34.91Z"/></svg>