<svg xmlns="http://www.w3.org/2000/svg" viewBox="0 0 283.46 57.74"><defs><style>.cls-1{fill:#4d4c4c;}</style></defs><title>Element 1</title><g id="Ebene_2" data-name="Ebene 2"><g id="Ebene_1-2" data-name="Ebene 1"><polygon class="cls-1" points="61.37 1.4 45.46 1.4 64.17 56.34 77.35 56.34 61.37 1.4 61.37 1.4"/><path class="cls-1" d="M182.55,3.41A24.35,24.35,0,0,0,169.29,0c-15.06,0-22.9,8.28-22.9,28.6,0,20,7.63,29.14,23.54,29.14a23.61,23.61,0,0,0,13.64-3.9L180,41.53c-2.71,2.39-4.76,3.95-9,3.95-6.24,0-8.17-3.33-8.17-17.09s2.15-16.24,7.74-16.24c3.6,0,5.95,1.47,8.28,4l3.69-12.71Z"/><path class="cls-1" d="M234,29c0-20.75-8.7-29-23.87-29s-23.86,8-23.86,28.6,8.7,29.14,23.86,29.14S234,49.67,234,29Zm-16.23-.43c0,14.09-1.61,18-7.53,18S202.61,43,202.61,29c0-14.62,1.5-17.74,7.52-17.74s7.64,2.8,7.64,17.31Z"/><path class="cls-1" d="M240,56.34h15.16v-41c2.58-2.05,4.62-3.23,7.95-3.23,3.12,0,5.06,1.18,5.06,6.45V56.34h15.26V15.16C283.46,4,278.52,0,269.16,0c-6.88,0-11.39,2.8-15.48,6.67L252.39,1.4H240V56.34Z"/><path class="cls-1" d="M30.82,56.34H42.36V17.74C42.36,4.84,36.34,0,22.58,0A35.53,35.53,0,0,0,7.33,3.25l3.38,11.64a24.34,24.34,0,0,1,10.36-2.63c5.17,0,6.13,2.36,6.13,7.85v2H23.87C7.53,22.15,0,27.31,0,40.11,0,51,4.73,57.74,16.24,57.74a16.16,16.16,0,0,0,9.15-2.64L23,46.92a8.68,8.68,0,0,1-2.58.39c-4,0-5.38-1.94-5.38-7.42,0-5.91,1.62-8.39,11.4-8.39h.75V43.89l3.62,12.45Z"/><path class="cls-1" d="M127.18,56.34h11.54V17.74c0-12.9-6-17.74-19.78-17.74a35.56,35.56,0,0,0-15.25,3.25l3.38,11.64a24.34,24.34,0,0,1,10.37-2.63c5.16,0,6.12,2.36,6.12,7.85v2h-3.33c-16.34,0-23.87,5.16-23.87,18,0,10.85,4.73,17.63,16.24,17.63a16.16,16.16,0,0,0,9.15-2.64l-2.37-8.18a8.74,8.74,0,0,1-2.59.39c-4,0-5.38-1.94-5.38-7.42,0-5.91,1.62-8.39,11.4-8.39h.75V43.89l3.62,12.45Z"/><polygon points="95.67 1.4 79.75 1.4 73.14 24.11 79.91 47.69 95.67 1.4 95.67 1.4"/></g></g></svg>