<svg id="Ebene_1" data-name="Ebene 1" xmlns="http://www.w3.org/2000/svg" viewBox="0 0 737.01 737.01"><defs><style>.cls-1{fill:#fff;}</style></defs><title>Zeichenfläche 1</title><g id="Ebene_2" data-name="Ebene 2"><g id="Ebene_1-2" data-name="Ebene 1-2"><path class="cls-1" d="M314.83,488.18l-.45-.67.09-.23a6.07,6.07,0,0,0,.28-1.22,3.46,3.46,0,0,0,.18-.72,4.49,4.49,0,0,0,.24-1.12l.07-.21a1,1,0,0,0,.12-.23,3.14,3.14,0,0,1,.28-.76l.69-1.86a3.86,3.86,0,0,0,.16-.75l.26-.81a5.21,5.21,0,0,1,.53-1.37l.08-.7a1.45,1.45,0,0,0,.08-.54,1.42,1.42,0,0,1,.11-.63,2,2,0,0,0,.07-.35l.06-.41v-.23l.12-.25a2.49,2.49,0,0,1,.18-.76,2.92,2.92,0,0,1,.18-.83v-.15a3.39,3.39,0,0,1,.32-1.34l.15-.73a3.45,3.45,0,0,0,.26-.79V470l.26-.82.21-.42.13-.51a3,3,0,0,1,.18-.92v-.18l.33-1.37.32-.2v-.19l.07.13.18-.11h.13a.74.74,0,0,1,.78.78,3.21,3.21,0,0,0,.15,1.53v.18a6.4,6.4,0,0,0,.51,2.56l.09.29a1.49,1.49,0,0,0,.1.45v.15a1.62,1.62,0,0,0,.1.51l.2.81V473a2.15,2.15,0,0,1,.12.46l.16.39a6.29,6.29,0,0,0,.25,1l.08.58a1.39,1.39,0,0,1,.06.43,1.45,1.45,0,0,1,.07.66l.77,2.56a2.63,2.63,0,0,0,.16.81v.28a3,3,0,0,1,.18.85,6.21,6.21,0,0,0,.11.67L325,483a5,5,0,0,0,.19.85,22.39,22.39,0,0,1,.44,2.25l.31,1.89-.78.26-.72-.44v-.27a11.08,11.08,0,0,0-.17-1.78,8.58,8.58,0,0,0-.34-1.49l-.56-2.31a3.08,3.08,0,0,0-.21-1l-.2-.94a1.53,1.53,0,0,0-1.34,0h-1.07a7.68,7.68,0,0,0-1.47,0h-1.2l-.6,2.13a2.38,2.38,0,0,0-.11.35v.18c-.19.43-.35.8-.47,1.11l-.24.66-.64,2.93a1.07,1.07,0,0,1-.71.86Zm5.09-9.68h1.84l.51-.11h.47a3.66,3.66,0,0,0-.22-.71l-.27-1.41a3.36,3.36,0,0,1-.13-.85,6,6,0,0,1-.24-1l-.23-.91a2.11,2.11,0,0,1-.19-1l-.46-1.78-.13-.19.08-.23-.23-.55a2.7,2.7,0,0,1-.15-.59,5.16,5.16,0,0,0-.43,1.65l-.07.36-.23.94a4.87,4.87,0,0,0-.32,1.25v.54L319,476l-.39,2.51h.61a2.15,2.15,0,0,1,.46,0H320Z"/><path class="cls-1" d="M328.72,488.18l-.14-.38a2.23,2.23,0,0,1-.08-1.3l-.08-.91v-.1c0-.47.06-1.08.06-1.82v-.49a3.33,3.33,0,0,0,0-.52v-.36a.76.76,0,0,1,0-.35v-.77l-.07-1.54a1,1,0,0,1,0-.51V479a2.14,2.14,0,0,1-.28-.56v-.3a.91.91,0,0,1,.28-.4l-.06-1.13a1,1,0,0,1-.06-.36v-4.44a9.84,9.84,0,0,1,.06-1.24v-1.11a2.19,2.19,0,0,1-.12-.86v-.21a6.25,6.25,0,0,1,.1-1v-.91a1.06,1.06,0,0,1-.1-.48v-.37l.37-.09a3.54,3.54,0,0,1,1.28,0,2.17,2.17,0,0,1,.51,0h.15a4.78,4.78,0,0,1,.76-.25h1.63l.18.06h.79a2.2,2.2,0,0,0,.69.1h.15l.18.06a3.49,3.49,0,0,1,.91.28h.24l.14.14a7,7,0,0,1,2,3.86,5.72,5.72,0,0,1-2.14,5.62,8.85,8.85,0,0,1-4.18,3,4.21,4.21,0,0,0,.45.66,1.89,1.89,0,0,1,.4.64l.26.26.07.2.12.08v.14a3.5,3.5,0,0,0,.32.58,5.57,5.57,0,0,1,.53,1.12l.42,1.1.58,1.21.27.43a.94.94,0,0,1,.17.34l.14.2.52.7a.84.84,0,0,0,.19.23l.26.26v.2a1.22,1.22,0,0,1-.2.69l-.14.21h-1l-1-1.65a1.56,1.56,0,0,1-.27-.64l-.28-.39-1.8-3.9-.81-1.2a3.49,3.49,0,0,1-.66-1l-.15-.18c-.55.08-.71.24-.72.29l.07,1.69a5,5,0,0,1,.06.85,2,2,0,0,1-.06.42l.11,1.79v1.16l.06.23.07,2.47-.1.14a1.08,1.08,0,0,1-.72.44Zm.91-14.58v.63l-.07.44.06,1.84a3.12,3.12,0,0,0,0,.67v.17l.34-.09a4,4,0,0,0,1.1-.23,6.52,6.52,0,0,0,3.71-2.49l.09-.09a4.78,4.78,0,0,0,1.86-5.11,2.86,2.86,0,0,0-.41-.85l-.06-.12-.1-.3-.56-.79-.26-.25-2-.45a1.15,1.15,0,0,0-.28,0h-.25a7.34,7.34,0,0,0-1.35-.11l-.9.22-1.11.06a10,10,0,0,1,0,1.87,2.51,2.51,0,0,0,.1.54l.08.31v.5a3.26,3.26,0,0,0-.1,1.2v.37l.12,1.41a2,2,0,0,1-.06.57"/><path class="cls-1" d="M341.34,488.18l-1-.41.4-.66-.12-2.14v-.07a5.55,5.55,0,0,0,0-1.1,2.84,2.84,0,0,1,0-.77,4.31,4.31,0,0,1,.19-.93v-1.25a4.51,4.51,0,0,1,.07-.68v-1.66a3.46,3.46,0,0,1-.06-.7l-.06-.26v-1.67l-.18-3.62a5.44,5.44,0,0,0,0-1.09v-2.22a.65.65,0,0,1,0-.33l-.06-.12v-.15a5.15,5.15,0,0,0-.11-2.09l-.19-.28.18-.19.11-.33.36-.06a7,7,0,0,1,1.31.16h.19a5,5,0,0,1,1.06.13h.19l1.31-.06.7-.18.88.06.48-.2h.08a3.72,3.72,0,0,0,1.72,0h.28c.35.09.93.25.91.76s-.61.61-.89.65a11,11,0,0,1-1.73,0,6.25,6.25,0,0,0-1,.11h-.67a3.22,3.22,0,0,1-.92.12l-.23.07h-.11a3.06,3.06,0,0,0-.62,0l-.29.07-.81-.14h-.23a1.78,1.78,0,0,0-.71,0h-.12v1.23l-.06.24v.42a2.19,2.19,0,0,1,.06.6,4.16,4.16,0,0,1,0,1.49l.07.62a1,1,0,0,1,0,.52l.06,1.44.12.44a3.21,3.21,0,0,0,0,.52v.27a.8.8,0,0,1,0,.24v.67h1.48l.39.07,1.36-.07.71.28v.33a1.13,1.13,0,0,1-.2.63l-.14.21h-.26a1.1,1.1,0,0,1-.43-.09,4,4,0,0,1-1,0,1.18,1.18,0,0,1-.63-.1,4.12,4.12,0,0,1-.58,0,3.56,3.56,0,0,1-.65.06v1.37a5,5,0,0,1,.06.86l-.06,2.23a3.83,3.83,0,0,1,0,1v.16a1,1,0,0,0-.07.57l.06,1.54a2.68,2.68,0,0,0,.1,1v.1l-.08.52v.35h2.76a2,2,0,0,1,.67,0,4.94,4.94,0,0,1,1.12,0l.68.06h1.06a4,4,0,0,1,1.58-.32.82.82,0,0,1,.65.37.79.79,0,0,1,0,.69l-.11.33h-.29a4.87,4.87,0,0,0-1.31.22h-.13l-.68.06-3-.14a1,1,0,0,1-.33.08l-1.22-.06-.59.06L342,488a1.13,1.13,0,0,0-.47.13Z"/><path class="cls-1" d="M354,488.35l-.53-.27a1.24,1.24,0,0,1-.68-1v-.19a1.23,1.23,0,0,0,0-.65V486a1.08,1.08,0,0,0,0-.33v-1.47l.06-.71a7.92,7.92,0,0,1,.06-1.08l-.07-1.33V481a6.6,6.6,0,0,0,.06-.89l-.06-1.81v-.1a1.1,1.1,0,0,0,0-.33,4.42,4.42,0,0,0,.06-.6v-1.8a5.82,5.82,0,0,0,0-1.16,1.89,1.89,0,0,1,0-.45v-.21a14.47,14.47,0,0,1,.3-1.64v-.72L353,471l.1-.24a1.76,1.76,0,0,0,.12-.5v-1.74a.85.85,0,0,1,0-.32,5.12,5.12,0,0,1-.16-1.34,2.18,2.18,0,0,1,.24-1.61l.12-.22V465l.07-.12.88.53v.17a1.8,1.8,0,0,1,.08.49,4.22,4.22,0,0,1,.37.79,2.07,2.07,0,0,1,.37.62,1.35,1.35,0,0,1,.15.32l.28.61a4.57,4.57,0,0,1,.45.89,4.37,4.37,0,0,1,.49.71l.24.22.67,1.1a3.55,3.55,0,0,0,.48.68l.15.23.51,1,.13.44a2,2,0,0,1,.39.48l.11.16,1,1.92a5.3,5.3,0,0,1,.68,1.34,7.62,7.62,0,0,1,.84,1.28l.35.58.38.76.75,1.1a3.94,3.94,0,0,0,.64,1.17l.78,1.45.13.09.06.15a2.91,2.91,0,0,0,.13.29l.07-.46a2.73,2.73,0,0,1,0-1l-.06-1.13-.12-4.8a8.53,8.53,0,0,0,.12-1.51l-.06-.42.12-1.31v-.13a8.26,8.26,0,0,1-.06-1.14,9.45,9.45,0,0,0,.18-1.24v-1a4.49,4.49,0,0,1,.07-.68v-1.44a2.41,2.41,0,0,1,0-1v-1.09a1,1,0,0,1,.57-.79l.31-.15.62.62-.07.26a3.82,3.82,0,0,0,0,1.44v.11l-.06.19v2.11l-.06.7a1.58,1.58,0,0,1,0,.62v.24l-.19,1.11v1.14l.09.18-.06.19a.57.57,0,0,0,0,.24v.12l-.08.23v1.3l-.06.59a3.22,3.22,0,0,1-.1,1.12h0a6.12,6.12,0,0,1,.08,1.68l.07.42-.06.24a6,6,0,0,1,0,.82l.12,1v.06a4,4,0,0,0,0,.91v.91l.07.15-.09.48v.25a1.77,1.77,0,0,0,0,.71l-.08,1.46.18.26-.48.8h-.26a.9.9,0,0,1-.61-.25l-.11-.17-.42-1.08a1,1,0,0,0-.18-.37l-2.24-3.82a2.41,2.41,0,0,0-.4-.74l-.5-.81a3.13,3.13,0,0,0-.25-.49,5.09,5.09,0,0,0-.29-.52,2.88,2.88,0,0,0-.54-.71l-.1-.15-.31-.55a3.46,3.46,0,0,0-.31-.57l-.06-.13a3.06,3.06,0,0,0-.37-.78l-1.06-2c-.14-.2-.33-.54-.58-1a8.71,8.71,0,0,0-.37-.79,4.74,4.74,0,0,1-.59-.88l-.61-1-.61-.76a.93.93,0,0,1-.17-.31,3.81,3.81,0,0,1-.38-.77l-.21-.31V469a3.11,3.11,0,0,1,0,.73l.06.32v.1a5,5,0,0,0-.1,1.14,1.58,1.58,0,0,0,0,.27l.06.12v.08l-.16,1.35a1.59,1.59,0,0,1,0,.56v3.87l-.07.39a3.47,3.47,0,0,0,0,1.2l.09,1.76-.09.38.08,1.25-.13.92v.17a4,4,0,0,0,0,.91v.15a2.29,2.29,0,0,0,0,.33,5.13,5.13,0,0,1,.06,1.42l.08.74Z"/><path class="cls-1" d="M369.38,488.35l.27-1.08a1,1,0,0,1-.11-.61,1.89,1.89,0,0,0,0-.49v-.32a7.15,7.15,0,0,1,.06-.9l-.06-1.73.13-.92a1.56,1.56,0,0,0,0-.38v-.15a3,3,0,0,0-.1-.73V481l.13-1.11a9.83,9.83,0,0,0,.06-1.08,6.56,6.56,0,0,1-.18-1.1l-.07-.32.07-.73-.18-2.89h0l-.06-.18v-.44a6,6,0,0,1,0-1.74v-.12a1.78,1.78,0,0,0-.09-.57l-.09-.64a5.71,5.71,0,0,1,0-.67l-.09-.19V469a2.32,2.32,0,0,0,0-.84l-.06-1.47a2,2,0,0,0-.15-1v-.18a1.4,1.4,0,0,1,.17-.63l.13-.27h.3a4.8,4.8,0,0,1,1,.12l.81-.07h.46a1.39,1.39,0,0,0,.48,0h.74l1.55.4a5.69,5.69,0,0,0,1,.61l.13.06.08.12a.88.88,0,0,0,.27.21l.21.19,1,1.36.12.3a5,5,0,0,1,.53,1,4.87,4.87,0,0,1,.26.68,3.34,3.34,0,0,0,.37.76l.25.74a1.74,1.74,0,0,0,.1.57v.49l.37,2.8v.77a4.6,4.6,0,0,1,.12,1.15l.08.5v.1a4.93,4.93,0,0,1,.06.5,2.19,2.19,0,0,1-.07.77l.06.24v.13a2,2,0,0,0-.1.53,5.48,5.48,0,0,1-.06.73l-.37,2.27a4.24,4.24,0,0,0-.3.89l-.06.14-.85,1.48a9.89,9.89,0,0,1-7,2.84Zm1.57-1.67H371a2.8,2.8,0,0,0,1.12-.25h.16a6.43,6.43,0,0,0,4.61-2.43l.69-1.44.44-2.79a4.81,4.81,0,0,1,.12-1,3.16,3.16,0,0,1,.09-.82,3.58,3.58,0,0,1-.1-1.51l-.2-1.2L378,475l-.14-.52-.08-.61v-.06a1.66,1.66,0,0,0-.1-.74V473l-.12-1.52-.9-2.2a5.56,5.56,0,0,0-.44-.67l-.38-.64a1.82,1.82,0,0,0-.23-.33l-.08-.1-.13-.23a6.59,6.59,0,0,0-2.87-1.27,6,6,0,0,1-1.86,0,1.31,1.31,0,0,0-.3,0l.11,3.38a4.68,4.68,0,0,0-.06.9,5.92,5.92,0,0,1,.18,1.1l-.06,1.09a3.21,3.21,0,0,0,.06.49l.06,2.65a1.41,1.41,0,0,1,0,.53l.11.44v.59a1.17,1.17,0,0,0,0,.68V478l.13,1.49v.09a4.81,4.81,0,0,0,0,2v1l-.08.36a2.34,2.34,0,0,0,0,.86l.06,1.54-.11.39Z"/><path class="cls-1" d="M386.38,488.35a8.28,8.28,0,0,1-2.11-.31h-.14l-.1-.11a2.56,2.56,0,0,0-.81-.6,4.81,4.81,0,0,0-.6-.36l-.13-.08-.18-.18a3.77,3.77,0,0,1-.67-1.43l-.08-.3,1.06-.84.23.62a3.31,3.31,0,0,0,3.29,2.21h.46c1.13,0,1.86-.63,2.31-2l.09-.16.26-.31c1.63-3.67,1-6.49-1.79-8.62l-1.67-.52-.6-.11-.46-.18a4.3,4.3,0,0,1-1-.29h-.32l-.14-.12a4.79,4.79,0,0,1-1.47-2.46,6.17,6.17,0,0,1,1-4.7,5.49,5.49,0,0,1,3.89-1.78h.85a2.81,2.81,0,0,1,2.16.67,1.49,1.49,0,0,1,.34,1.21V468h-.83l-.14-.2a1.64,1.64,0,0,0-1.86-.65,4.07,4.07,0,0,0-3,1,4.71,4.71,0,0,0-1,3.47,3.35,3.35,0,0,0,.71,1.64l1.84.62a4.52,4.52,0,0,1,1,.31h.18a4.71,4.71,0,0,1,.89.25l.44.2a6.32,6.32,0,0,0,.94.61l.14.11a10.35,10.35,0,0,1,2.14,4.28l.08.13V480a5,5,0,0,1-.13,1.07v.67a2.84,2.84,0,0,1-.14.56l-.11.61v.3l-.14.21a5.15,5.15,0,0,1-.93,2.27,3.74,3.74,0,0,1-3.8,2.71"/><path class="cls-1" d="M394.91,488.18l-1-.41.4-.66-.14-2.13v-.07a5.72,5.72,0,0,0,0-1.1,2.82,2.82,0,0,1,0-.77,4.2,4.2,0,0,1,.2-.93v-1.25a4.39,4.39,0,0,1,.07-.68v-1.66a3.48,3.48,0,0,1-.06-.7l-.06-.26v-1.67l-.18-3.62a5.49,5.49,0,0,0,0-1.09V469a.66.66,0,0,1,0-.33l-.06-.12v-.15a5.19,5.19,0,0,0-.11-2.09l-.06-.26.18-.19.11-.33.36-.06a7,7,0,0,1,1.32.16h.19a5,5,0,0,1,1.06.13h.18l1.31-.06.7-.18.88.06.48-.2h.16a3.71,3.71,0,0,0,1.72,0h.24c.35.09.93.25.91.76s-.61.61-.89.65a11,11,0,0,1-1.73,0,6.26,6.26,0,0,0-1,.11h-.67a3.22,3.22,0,0,1-.92.12l-.23.07h-.2a3.07,3.07,0,0,0-.62,0l-.29.07-.81-.14h-.23a1.77,1.77,0,0,0-.71,0h-.28v1.2l-.06.24v.42a2.17,2.17,0,0,1,.06.6,4.13,4.13,0,0,1,0,1.49l.07.62a1,1,0,0,1,0,.52l.06,1.44.12.44a3.18,3.18,0,0,0,.06.52v.27a.82.82,0,0,1,0,.24v.67h1.48l.39.07,1.36-.07.71.28v.33a1.12,1.12,0,0,1-.2.63l-.14.21h-.26a1.1,1.1,0,0,1-.43-.09,4,4,0,0,1-1,0h0a2.34,2.34,0,0,1-.62-.1,4.12,4.12,0,0,1-.58,0,3.61,3.61,0,0,1-.65.06v1.37a5,5,0,0,1,.06.86l-.06,2.23a3.89,3.89,0,0,1,0,1v.16a1,1,0,0,0-.07.57l.06,1.54a2.71,2.71,0,0,0,.1,1v.1l-.08.52v.35h2.76a2,2,0,0,1,.67,0,4.94,4.94,0,0,1,1.12,0l.68.06h1a4,4,0,0,1,1.58-.32.82.82,0,0,1,.65.37.8.8,0,0,1,0,.69l-.11.33h-.34a4.9,4.9,0,0,0-1.31.22h-.13l-.68.06-3-.14a1,1,0,0,1-.33.08l-1.23-.06-.59.06-.86-.06a1.12,1.12,0,0,0-.47.13Z"/><path class="cls-1" d="M407.47,488.18l-1-.41.4-.66-.12-2.14v-.07a5.72,5.72,0,0,0,0-1.1,2.82,2.82,0,0,1,0-.77,4.22,4.22,0,0,1,.2-.93v-1.25a4.41,4.41,0,0,1,.07-.68v-1.66a3.53,3.53,0,0,1-.06-.7l-.06-.26v-1.67l-.19-3.62a5.21,5.21,0,0,0,0-1.09v-2.22a.65.65,0,0,1,0-.33v-.27a5.19,5.19,0,0,0-.12-2.09l-.06-.26.18-.19.11-.33.36-.06a7,7,0,0,1,1.31.16h.19a4.94,4.94,0,0,1,1.06.13h.19l1.31-.06.7-.18.88.06.47-.2h.16a3.72,3.72,0,0,0,1.72,0h.24c.35.09.93.25.91.76s-.61.61-.89.65a11.06,11.06,0,0,1-1.73,0,6.26,6.26,0,0,0-1,.11H412a3.21,3.21,0,0,1-.91.12l-.23.07h-.11a3.08,3.08,0,0,0-.62,0l-.29.07-.81-.14h-.23a1.78,1.78,0,0,0-.71,0H408v1.21l-.06.24v.42a2.17,2.17,0,0,1,.06.6,4.11,4.11,0,0,1,0,1.49l.07.62a1,1,0,0,1,0,.52l.06,1.44.12.44a3.18,3.18,0,0,0,0,.52v.27a.85.85,0,0,1,0,.24v.67h1.48l.39.07,1.36-.07.71.28v.33a1.13,1.13,0,0,1-.2.63l-.15.21h-.25a1.11,1.11,0,0,1-.43-.09,3.94,3.94,0,0,1-1,0h0a2.35,2.35,0,0,1-.62-.1,4.12,4.12,0,0,1-.58,0,3.57,3.57,0,0,1-.65.06v1.37a5.12,5.12,0,0,1,.06.86l-.06,2.23a3.85,3.85,0,0,1,0,1v.16a1,1,0,0,0-.07.57l.07,1.54a2.69,2.69,0,0,0,.1,1v.1l-.08.52v.35h2.74a2,2,0,0,1,.66,0,5,5,0,0,1,1.12,0l.68.06h1a4,4,0,0,1,1.58-.32.82.82,0,0,1,.65.37.8.8,0,0,1,0,.69l-.11.33h-.34A4.88,4.88,0,0,0,415,488h-.13l-.68.06-3-.14a1,1,0,0,1-.33.08l-1.23-.06-.59.06-.94-.08a1.12,1.12,0,0,0-.47.13Z"/><path class="cls-1" d="M295.48,523l.27-1.08a1,1,0,0,1-.11-.61,1.83,1.83,0,0,0,0-.5v-.32a7.34,7.34,0,0,1,.06-.9l-.06-1.73.13-.92a1.63,1.63,0,0,0,0-.38v-.15a3.09,3.09,0,0,0-.11-.72v-.09l.13-1.11a9.37,9.37,0,0,0,.06-1.08,6.52,6.52,0,0,1-.18-1.1l-.07-.32.07-.73-.18-2.89h0l-.06-.18v-.44a6,6,0,0,1,0-1.74v-.12a1.77,1.77,0,0,0-.1-.57l-.08-.63a5.53,5.53,0,0,1,0-.68l-.07-.21v-.14a2.36,2.36,0,0,0,0-.84l-.06-1.47a2,2,0,0,0-.15-1v-.15a1.41,1.41,0,0,1,.17-.63l.13-.27h.3a5,5,0,0,1,1,.12l.81-.06h.46a1.44,1.44,0,0,0,.48,0h.75l1.55.4a5.55,5.55,0,0,0,1,.61h.13l.07.12a.8.8,0,0,0,.27.21l.21.19,1,1.36.12.3a4.89,4.89,0,0,1,.53,1,4.81,4.81,0,0,1,.26.68,3.4,3.4,0,0,0,.37.76l.26.73a1.74,1.74,0,0,0,.09.57v.55l.37,2.8v.77a4.62,4.62,0,0,1,.12,1.15l.08.5v.11a4.58,4.58,0,0,1,.06.49,2.2,2.2,0,0,1-.07.77l.06.24v.12a2,2,0,0,0-.1.53,5.67,5.67,0,0,1-.06.73L305,517.3a4.24,4.24,0,0,0-.3.89l-.06.14-.85,1.48a9.9,9.9,0,0,1-7,2.84Zm1.57-1.67h.07a2.77,2.77,0,0,0,1.12-.25h.16a6.42,6.42,0,0,0,4.61-2.43l.69-1.44.44-2.79a4.81,4.81,0,0,1,.12-1,3.08,3.08,0,0,1,.09-.82,3.58,3.58,0,0,1-.1-1.51l-.2-1.2.06-.2-.14-.52-.08-.61v-.06a1.65,1.65,0,0,0-.1-.74v-.15l-.12-1.52-.9-2.21a5.35,5.35,0,0,0-.44-.67l-.38-.63a1.75,1.75,0,0,0-.23-.33l-.08-.1-.13-.23a6.65,6.65,0,0,0-2.87-1.27,5.69,5.69,0,0,1-1.86,0h-.3l.11,3.38a4.63,4.63,0,0,0-.06.9,5.85,5.85,0,0,1,.18,1.1l-.06,1.09a3.31,3.31,0,0,0,0,.49l.06,2.65a1.42,1.42,0,0,1,0,.53l.11.45v.55a1.18,1.18,0,0,0,0,.68v.12l.13,1.49v.12a4.81,4.81,0,0,0,0,2v1l-.08.36a2.36,2.36,0,0,0,0,.86l.06,1.54-.11.39Z"/><path class="cls-1" d="M308.88,522.77l-1-.41.4-.66-.12-2.14v-.07a5.74,5.74,0,0,0,0-1.11,2.86,2.86,0,0,1,0-.77,4.32,4.32,0,0,1,.19-.93v-1.24a4.48,4.48,0,0,1,.06-.68V513.1a3.4,3.4,0,0,1-.06-.7l-.06-.26v-1.67l-.18-3.62a5.37,5.37,0,0,0,0-1.09v-2.23a.63.63,0,0,1,0-.33l-.06-.11v-.15a5.13,5.13,0,0,0-.11-2.09l-.06-.26.18-.19.11-.34h.36a6.66,6.66,0,0,1,1.31.16H310a5,5,0,0,1,1.06.13h.19l1.31-.06.7-.19.88.06.47-.2h.16a3.71,3.71,0,0,0,1.72-.06h.24c.35.09.93.25.91.76s-.61.6-.89.65a11.2,11.2,0,0,1-1.73,0,6.06,6.06,0,0,0-1,.11h-.83a3.25,3.25,0,0,1-.92.12l-.23.07H312a3.23,3.23,0,0,0-.62,0l-.29.07-.81-.14H310a1.79,1.79,0,0,0-.71,0h-.08v1.25l-.06.24v.42a2.13,2.13,0,0,1,.06.6,4.17,4.17,0,0,1,0,1.49l.07.62a1,1,0,0,1,0,.51l.06,1.44.12.44a3.29,3.29,0,0,0,0,.52v.27a.84.84,0,0,1,0,.24l.06.27v.4a2.49,2.49,0,0,0,.4,0H311l.39.07,1.36-.07.71.28v.33a1.11,1.11,0,0,1-.2.63l-.15.21h-.25a1.1,1.1,0,0,1-.43-.09,4,4,0,0,1-1,0,1.59,1.59,0,0,1-.64-.1l-1.22.1V513a5,5,0,0,1,.06.86l-.06,2.23a3.8,3.8,0,0,1,0,1v.11a1,1,0,0,0-.07.57l.06,1.54a2.71,2.71,0,0,0,.1,1v.1l-.08.52v.35h2.77a2.11,2.11,0,0,1,.67,0,5.14,5.14,0,0,1,1.12,0l.68.06h1.06a4,4,0,0,1,1.58-.31.82.82,0,0,1,.65.37.79.79,0,0,1,0,.69l-.11.33h-.34a5,5,0,0,0-1.31.22h-.13l-.68.06-3-.13a1,1,0,0,1-.33.07l-1.22-.06-.59.06-.86-.06a1.07,1.07,0,0,0-.47.13Z"/><path class="cls-1" d="M324.52,522.81a8,8,0,0,1-2.91-.59h-.13l-.08-.11A2.65,2.65,0,0,1,321,521a2.82,2.82,0,0,1-.24-.74l-.13-.22v-.14a2.2,2.2,0,0,0-.06-.6l-.13-.91a5.1,5.1,0,0,1,0-.68v-1.13a6.16,6.16,0,0,1,0-.9v-1.36l-.06-.22V514a6,6,0,0,0,.06-1,5.74,5.74,0,0,1,0-1.17,1.1,1.1,0,0,1,0-.46v-1l-.08-.36v-2.66l-.13-.6.08-3.54a6.13,6.13,0,0,0,.16-2.56v-.22l.5-.53h.2a.83.83,0,0,1,.73.29.84.84,0,0,1,.08.78,3.13,3.13,0,0,0,0,1.28,2.85,2.85,0,0,1-.25,1.08v1.5a5.58,5.58,0,0,0,0,1.65V507a1.93,1.93,0,0,1,.09.49,3.39,3.39,0,0,0,0,.93v.17a4.49,4.49,0,0,0,.06,1.53v.62a.9.9,0,0,1,0,.41l-.1,1.42v1l-.06.9a10,10,0,0,1,0,1.87l.09.51-.07,1.07a7.43,7.43,0,0,0,.19,1.23l.12.87.22.5v.26l.09.16a4.77,4.77,0,0,0,2.58.51l.47-.16h.1l.21-.1h.13l.74-.15h.18l.67-.15.28-.24.54-1a1.92,1.92,0,0,0,.09-.21,2.32,2.32,0,0,1,.35-.64l.37-.7.48-1.39a2.54,2.54,0,0,1,.17-.73l.06-.44a2.9,2.9,0,0,0,.22-1l.09-1.11a4,4,0,0,0,.09-.67l.18-.89v-.45a3.62,3.62,0,0,1,.19-.93v-.12a2.78,2.78,0,0,1,0-.86v-.23a4.75,4.75,0,0,1,.18-1,5.22,5.22,0,0,1,0-.84l.17-1v-1.25a3.76,3.76,0,0,0-.06-.9l-.06-.82v-.67a3.86,3.86,0,0,0-.18-.68,1.11,1.11,0,0,1,.66-1.21l.25-.11.68.45-.07.32a2.39,2.39,0,0,0,0,.81v.48l.07.29v0l.07.11v.34l.07.76v1.82a7.65,7.65,0,0,1-.23,2l-.11,1.71v.63a4.59,4.59,0,0,1-.18,1v.38a4.55,4.55,0,0,0-.11.75v.12l-.08.22-.12,1.09a2.38,2.38,0,0,1,0,.52v.14a3.18,3.18,0,0,0-.17.82v.16a1.11,1.11,0,0,0-.11.37v.09l-.08.22v.43l-.5,1.6-.5.93a2.8,2.8,0,0,0-.22.37V520l-.17.16a3.84,3.84,0,0,1-.29.61l-.35.59-.48.55a2.47,2.47,0,0,1-1.62.43,7,7,0,0,1-2.37.42"/><path class="cls-1" d="M340.07,522.86l-.93-.18-.07-.29a6.59,6.59,0,0,1-.07-2.46,3.17,3.17,0,0,0,.18-1.08,7.33,7.33,0,0,0,.06-1,10.7,10.7,0,0,1,.06-1.26V515a2.33,2.33,0,0,1,0-.3l-.1-.2.07-.22v-1.84a5,5,0,0,1,0-.74,4.71,4.71,0,0,0-.06-.76l-.07-.52v-.09a.2.2,0,0,0,0-.15v-.21l-.12-1-.06-2.76-.11-.52-.07-2.68a2.07,2.07,0,0,0-.15-.73l-.08-.45v-.47h-1.68a3.7,3.7,0,0,1-1.11.07h-.58l-.8-.14a1.07,1.07,0,0,1-.45-.73v-.16l.07-.15a.86.86,0,0,1,.51-.42h.32a3.82,3.82,0,0,0,2.3,0h.24a3.8,3.8,0,0,0,1.54,0h.3l.2-.07.18.06h.22c.42,0,.75.06,1,.06h.2a2.66,2.66,0,0,1,1.07,0h1.4a3.31,3.31,0,0,1,1.1-.18l.23-.08h.13a3.11,3.11,0,0,0,1.08,0h.56a2.33,2.33,0,0,1,.64.17l.12.08a.83.83,0,0,1,.07,1.07l-.23.38-.39-.19a1.56,1.56,0,0,0-.46-.13,17,17,0,0,1-2.2.12l-.26.06h-.3a2.42,2.42,0,0,0-.66.11h-.22a5.35,5.35,0,0,0-1.16-.11H340a1.6,1.6,0,0,0,0,.29,8.16,8.16,0,0,1,.24,2.1l.06,1.76a1.86,1.86,0,0,1,.12.71l.11,3.42.2.77-.06.39.12.84v.07a5.88,5.88,0,0,0,0,1.61l.06,2.1-.1,1a10.27,10.27,0,0,1,0,1.18,1.39,1.39,0,0,0,0,.51v.28a4.79,4.79,0,0,0-.06.79,4.34,4.34,0,0,1-.24,1.31v.17a3.82,3.82,0,0,1,.07,1.13l.2.3Z"/><path class="cls-1" d="M352,523a8.43,8.43,0,0,1-2.11-.31h-.14l-.1-.11a2.46,2.46,0,0,0-.81-.6,4.27,4.27,0,0,0-.6-.37l-.13-.09-.18-.18a3.79,3.79,0,0,1-.67-1.43l-.08-.3,1.06-.84.23.62a3.3,3.3,0,0,0,3.29,2.21h.46c1.13,0,1.86-.63,2.3-2l.09-.16.26-.31c1.62-3.67,1-6.49-1.79-8.62l-1.67-.52-.6-.11-.46-.18a4,4,0,0,1-1-.29H349l-.14-.12a4.78,4.78,0,0,1-1.47-2.46,6.16,6.16,0,0,1,1-4.7,5.47,5.47,0,0,1,3.89-1.78h.8a2.8,2.8,0,0,1,2.16.67,1.47,1.47,0,0,1,.34,1.2v.42h-.85l-.14-.19a1.66,1.66,0,0,0-1.86-.66,4.08,4.08,0,0,0-3,1,4.72,4.72,0,0,0-1,3.47,3.34,3.34,0,0,0,.71,1.65l1.85.62a4.56,4.56,0,0,1,1,.31h.18a4.9,4.9,0,0,1,.89.25l.44.2a5.79,5.79,0,0,0,.94.61l.13.11a10.32,10.32,0,0,1,2.14,4.28l.08.12v.11a5,5,0,0,1-.13,1.07v.68a3,3,0,0,1-.14.56l-.11.6v.3l-.14.21a5.15,5.15,0,0,1-.93,2.27,3.74,3.74,0,0,1-3.8,2.71"/><path class="cls-1" d="M364.74,522.8a7.06,7.06,0,0,1-3.89-1.26l-.12-.12-1-1.51a2.15,2.15,0,0,0-.2-.54l-.12-.24-.16-.65a5.47,5.47,0,0,1-.07-.85,3.81,3.81,0,0,1-.17-.6l-.06-.22v-.63a1.24,1.24,0,0,0-.1-.39v-.14l-.06-2.25.09-.26v-1.42a2.83,2.83,0,0,1,0-.9,4.82,4.82,0,0,0,.08-1l.1-.47a.7.7,0,0,1,0-.34,8.27,8.27,0,0,1,.06-1.15l.19-.8a2.09,2.09,0,0,1,.23-.89h0a5.31,5.31,0,0,1,.46-2.35v-.08l.18-.9a2.28,2.28,0,0,0,.19-.4,5.67,5.67,0,0,1,3.75-2.42,5.53,5.53,0,0,1,.62,0,3.26,3.26,0,0,1,3.23,2.06,3.9,3.9,0,0,1,.76,2.41v.33l-1,.41-.19-.42a5.65,5.65,0,0,1-.38-1.41,7.93,7.93,0,0,1-.4-.88,1.55,1.55,0,0,1-.11-.26,2.77,2.77,0,0,0-.52-.25h-.06l-.21-.28-.31-.19c-2.35-.21-3.76,1-4.3,3.53a3.22,3.22,0,0,0-.17,1.38v.13l-.06.12a4,4,0,0,0-.32,1.17V508l-.08.36a3.82,3.82,0,0,1-.12,1,2,2,0,0,1,0,.58l-.29,4.25.12,2,.3,1.42v.42l.33,1.2.6.93.44.5a5.24,5.24,0,0,0,3.71.81A2.91,2.91,0,0,0,367,520.3l.08-.1.57-.52a.82.82,0,0,1,1.12.29v.09l.1.25-.16.21a2.43,2.43,0,0,1-.56.53,5,5,0,0,1-1.74,1.7l-.14.06a6.21,6.21,0,0,1-1.47.17"/><path class="cls-1" d="M380.89,522.83l-.31-.15A1,1,0,0,1,380,522v-.16c0-.39.06-.87.06-1.46v-.25l-.07-.39.07-.22v-1.14a3,3,0,0,1,0-1.48v-.23a11.45,11.45,0,0,1-.17-1.48V515a3.58,3.58,0,0,1,0-.53l-.12-1.27a1.57,1.57,0,0,0-.61-.11,3.64,3.64,0,0,1-.7.06l-.3.1-.12-.06h-.68a4.72,4.72,0,0,1-.84.06h-.61a4.32,4.32,0,0,1-.75.07l-.17.09-.16-.06a1.35,1.35,0,0,0-.66,0h-.13l-.39-.13a4.24,4.24,0,0,1-1.07-.07h-.33a5.49,5.49,0,0,0,0,.81v.31a3.3,3.3,0,0,1,0,.59v1.35a2.62,2.62,0,0,0-.14.65l.12.86v.08a5.09,5.09,0,0,0-.11,1.43v.1l-.07.2v1.18l.15.54-.08.16v.42a2.23,2.23,0,0,0,0,.33v.48h-.48a1.27,1.27,0,0,1-.77-.28l-.24-.18.06-.29a3.18,3.18,0,0,0,0-1.15v-.45l-.12-.35.12-.13v-.09l-.08-.22.08-.42v-.6a2.51,2.51,0,0,0,.1-1l-.07-.33.19-1.4a5.59,5.59,0,0,1-.06-.84,3.74,3.74,0,0,1,0-1.4l-.1-2.84a4.32,4.32,0,0,1,0-1.19v-.94a5.78,5.78,0,0,0,.06-.84l.13-.75v-1.14a4,4,0,0,0,0-1.12v-.07l.11-.61a9.17,9.17,0,0,0-.18-1.47v-.84l-.23-.52.19-.77h.38a1.44,1.44,0,0,1,.63.17l.24.12v.26a9.85,9.85,0,0,1,0,1.58,4.25,4.25,0,0,0,.16.66v1.23a2.78,2.78,0,0,0,0,.93v1a4.85,4.85,0,0,0-.06.84l-.14,1,.1,2.15-.08.09v.09l.09.26-.07.2a2.67,2.67,0,0,1,0,.81l1,.13h.54l.28.06,2-.06a6.35,6.35,0,0,0,1.68,0l.26-.07h.9a3.8,3.8,0,0,1,1,0,1.47,1.47,0,0,0,0-.33v-.22a1.71,1.71,0,0,0,0-.8v-.3a2.55,2.55,0,0,0,0-1h0l.13-1.38-.08-3.23.08-.29a8.47,8.47,0,0,1,.06-1.16V503l-.06-.17.09-.37v-1.27a.74.74,0,0,1,.7-.78h.47l.08.39a6.77,6.77,0,0,1,0,2.7,6,6,0,0,1-.07,1.37l.07,3.22a2.74,2.74,0,0,0-.07.89v.74a4.06,4.06,0,0,0,0,1.12v.12l-.07.22.06,1.87a5.24,5.24,0,0,1,.06.8l.06.26.06,2.16a3.83,3.83,0,0,1,0,1.36l.06,1.26v.07a3.76,3.76,0,0,0,0,1.12v.71l-.06.06v.93l.13.39Z"/><path class="cls-1" d="M385.07,522.72l-.62-.47V522a6.28,6.28,0,0,0,.06-.89v-.18a3.47,3.47,0,0,0,0-1.24v-.26a2,2,0,0,1,0-.76v-.92l-.07-.26v-.17a6.28,6.28,0,0,0,.06-.89v-2.67l-.18-.27.19-.23a3.44,3.44,0,0,1,.08-1.18,2.27,2.27,0,0,1,.06-.8l-.12-1.9v-.08a2,2,0,0,0,0-.62l-.07-.28.07-.45a3.86,3.86,0,0,1,0-.86,2.72,2.72,0,0,1-.06-.91l-.07-.35.08-.23v-1.72l.06-.71v-.25l.07-.49-.14-.62.07-.8a1.39,1.39,0,0,1,.21-1l.33-.45.89.89-.07.27a3.7,3.7,0,0,0,0,1.75v.24a4.2,4.2,0,0,0-.1,1.67v.2a.57.57,0,0,0,0,.24v.82a2.71,2.71,0,0,0,0,1.27v.3a2,2,0,0,1,0,.76V508a6.06,6.06,0,0,1,0,1.26l.06.23v.94l.06,1.08a4.24,4.24,0,0,0-.06.72l-.07.49a1,1,0,0,0,.06.32v.23a2.35,2.35,0,0,0,0,.84v2.75l-.06.33.06,1a2.64,2.64,0,0,1,0,1l.09.45.06,1.76a7,7,0,0,0,.91-.08h.16a1.08,1.08,0,0,0,.32,0,.9.9,0,0,1,.43,0h.12a5.64,5.64,0,0,1,1.38,0h.4a1.25,1.25,0,0,1,.26-.09,1.35,1.35,0,0,1,.48,0h.17a1.53,1.53,0,0,1,.55,0h.3l.9-.12.79.12.53.32v.27a.82.82,0,0,1-.4.7l-.18.12-.21-.06a1.58,1.58,0,0,0-.73,0h-.67l-.13.07-.76-.12-.62.1a5.16,5.16,0,0,0-.6.06h-.21a1.82,1.82,0,0,0-.71,0h-.75l-.21.11-.16-.08-.32.08h-.66l-.31.13h-.13a2.69,2.69,0,0,0-.7,0Z"/><path class="cls-1" d="M396.17,522.8l-.45-.67.09-.23a6.15,6.15,0,0,0,.28-1.22,3.42,3.42,0,0,0,.18-.72,4.49,4.49,0,0,0,.24-1.11l.07-.21a1,1,0,0,0,.12-.23,3.08,3.08,0,0,1,.28-.76l.69-1.86a3.79,3.79,0,0,0,.16-.75l.26-.81a5.24,5.24,0,0,1,.53-1.37l.08-.7a1.46,1.46,0,0,0,.09-.54,1.42,1.42,0,0,1,.11-.63,2,2,0,0,0,.08-.35l.06-.41V510l.12-.25a2.46,2.46,0,0,1,.18-.76,3,3,0,0,1,.18-.83V508a3.34,3.34,0,0,1,.32-1.34l.15-.74a3.52,3.52,0,0,0,.26-.79v-.49l.26-.82.21-.42.13-.51a3,3,0,0,1,.18-.92v-.23l.33-1.37.32-.2v-.2l.07.13.18-.1h.19a.74.74,0,0,1,.78.78,3.24,3.24,0,0,0,.16,1.53v.18a6.43,6.43,0,0,0,.51,2.57l.09.29a1.49,1.49,0,0,0,.1.45v.16a1.62,1.62,0,0,0,.09.5l.21.81v.24a2.25,2.25,0,0,1,.12.46l.16.39a6.15,6.15,0,0,0,.25,1l.08.58a1.35,1.35,0,0,1,.06.43,1.43,1.43,0,0,1,.07.66l.77,2.56a2.66,2.66,0,0,0,.16.81v.25a3,3,0,0,1,.18.86,6.59,6.59,0,0,0,.11.67l.4,1.32a5,5,0,0,0,.19.86,22.67,22.67,0,0,1,.44,2.25l.31,1.89-.78.26-.72-.44V522a11,11,0,0,0-.18-1.78,8.36,8.36,0,0,0-.34-1.49l-.56-2.31a3.07,3.07,0,0,0-.21-1l-.2-.94a1.52,1.52,0,0,0-1.34,0H402a7.84,7.84,0,0,0-1.47,0h-1.2l-.65,2.16a2.18,2.18,0,0,0-.11.35v.16c-.19.43-.35.8-.47,1.11l-.24.66-.64,2.93a1.07,1.07,0,0,1-.71.86Zm5.09-9.68h1.81l.51-.11h.49a3.61,3.61,0,0,0-.22-.71l-.27-1.41a3.47,3.47,0,0,1-.13-.86,6,6,0,0,1-.24-1l-.23-.91a2.07,2.07,0,0,1-.19-1l-.46-1.77-.13-.19.08-.23-.23-.56a2.61,2.61,0,0,1-.15-.59,5.11,5.11,0,0,0-.43,1.65l-.11.28-.23.94a4.9,4.9,0,0,0-.32,1.25v.54l-.55,2.12-.38,2.51h.61a2,2,0,0,1,.46,0h.3Z"/><path class="cls-1" d="M410.64,523l-.53-.27a1.23,1.23,0,0,1-.68-1v-.19a1.23,1.23,0,0,0,0-.65v-.26a1.16,1.16,0,0,0,0-.33v-1.5l.06-.71a7.92,7.92,0,0,1,.06-1.08l-.07-1.33v-.07a6.43,6.43,0,0,0,0-.89l-.06-1.81v-.08a1.13,1.13,0,0,0,0-.33,4.22,4.22,0,0,0,.06-.6V510a5.91,5.91,0,0,0,0-1.16,2,2,0,0,1,0-.45v-.19a14.72,14.72,0,0,1,.19-1.62v-.7l-.15-.22.1-.24a1.77,1.77,0,0,0,.12-.49v-1.73a.88.88,0,0,1,0-.32,5.1,5.1,0,0,1-.16-1.34,2.19,2.19,0,0,1,.24-1.61l.12-.22v-.1l.07-.12.88.53v.17a1.82,1.82,0,0,1,.08.49,4.26,4.26,0,0,1,.37.79,2.07,2.07,0,0,1,.37.62,1.36,1.36,0,0,1,.15.32l.28.61a4.46,4.46,0,0,1,.45.89,4.27,4.27,0,0,1,.49.71l.24.22.67,1.1a3.71,3.71,0,0,0,.48.68l.16.22.51,1,.13.44a1.88,1.88,0,0,1,.39.48l.11.16,1,1.92a5.34,5.34,0,0,1,.68,1.34,7.59,7.59,0,0,1,.84,1.29l.35.58.38.76.75,1.1a3.85,3.85,0,0,0,.65,1.17l.78,1.45.13.08v.15a3,3,0,0,0,.13.29l.07-.46a2.77,2.77,0,0,1,0-1l-.06-1.13-.12-4.81a8.51,8.51,0,0,0,.12-1.51l-.06-.42.12-1.31v-.21a8.25,8.25,0,0,1-.06-1.14,9.22,9.22,0,0,0,.18-1.24v-1a4.53,4.53,0,0,1,.06-.68V502.7a2.42,2.42,0,0,1,0-1v-1.09a1,1,0,0,1,.57-.79l.31-.15.62.62-.07.26a3.82,3.82,0,0,0,0,1.44v.11l-.06.19v2.11l-.06.71a1.58,1.58,0,0,1,0,.62V506l-.1,1.1v1.09l.09.17-.06.19a.6.6,0,0,0,0,.23v.13l-.08.23v1.3l-.06.6a3.23,3.23,0,0,1-.1,1.13h0a6.19,6.19,0,0,1,.08,1.68l.07.42-.06.24a6.18,6.18,0,0,1,0,.82l.12,1v.06a3.88,3.88,0,0,0,0,.91v.91l.07.15-.09.49v.34a1.75,1.75,0,0,0,0,.71l-.08,1.46.18.26-.48.8h-.26a.91.91,0,0,1-.61-.25l-.11-.17-.42-1.08a1,1,0,0,0-.18-.37l-2.24-3.82a2.36,2.36,0,0,0-.4-.74l-.23-.8a3.13,3.13,0,0,0-.25-.49,4.94,4.94,0,0,0-.29-.52,2.91,2.91,0,0,0-.54-.71l-.1-.15-.3-.55a3.43,3.43,0,0,0-.32-.57l-.06-.13a3.08,3.08,0,0,0-.37-.78l-1.06-2a10.38,10.38,0,0,1-.58-1,8.71,8.71,0,0,0-.37-.79,4.85,4.85,0,0,1-.59-.88l-.61-1-.61-.76a.92.92,0,0,1-.17-.32,3.69,3.69,0,0,1-.38-.77l-.21-.31v.18a3.21,3.21,0,0,1,0,.73l.06.32v.1a5,5,0,0,0-.11,1.14,1.55,1.55,0,0,0,0,.27l.06.12v.08l-.16,1.35a1.58,1.58,0,0,1,0,.56v3.88l-.07.39a3.49,3.49,0,0,0,0,1.19l.09,1.76-.09.37.08,1.25-.13.92v.12a3.76,3.76,0,0,0,0,.91v.15a2.21,2.21,0,0,0,0,.33A5.08,5.08,0,0,1,411,521l.08.74Z"/><path class="cls-1" d="M426.07,523l.27-1.08a1,1,0,0,1-.11-.61,1.87,1.87,0,0,0,0-.5v-.32a7,7,0,0,1,.06-.9l-.06-1.73.13-.92a1.59,1.59,0,0,0,0-.38v-.15a3.06,3.06,0,0,0-.1-.72v-.09l.13-1.11a9.87,9.87,0,0,0,.06-1.08,6.43,6.43,0,0,1-.18-1.1l-.07-.32.07-.73-.18-2.89h0l-.06-.18v-.44a6,6,0,0,1,0-1.74v-.12a1.81,1.81,0,0,0-.09-.57l-.09-.63a5.71,5.71,0,0,1,0-.68l-.07-.21v-.14a2.26,2.26,0,0,0,0-.84l-.06-1.47a2,2,0,0,0-.15-1v-.15a1.42,1.42,0,0,1,.17-.63l.13-.27h.3a5,5,0,0,1,1,.12l.81-.06h.41a1.43,1.43,0,0,0,.48,0h.74l1.55.4a5.58,5.58,0,0,0,1,.61h.13l.07.12a.82.82,0,0,0,.27.21l.21.19,1,1.36.12.3a4.83,4.83,0,0,1,.53,1,4.75,4.75,0,0,1,.26.68,3.39,3.39,0,0,0,.37.76l.25.73a1.73,1.73,0,0,0,.1.57v.55l.37,2.8v.77a4.54,4.54,0,0,1,.12,1.15l.08.5v.11a4.85,4.85,0,0,1,.06.49,2.18,2.18,0,0,1-.07.77l.06.24v.12a2,2,0,0,0-.1.53,5.48,5.48,0,0,1-.06.73l-.37,2.27a4.26,4.26,0,0,0-.3.89v.14l-.86,1.48a9.9,9.9,0,0,1-7,2.84Zm1.57-1.67h.07a2.77,2.77,0,0,0,1.12-.25H429a6.43,6.43,0,0,0,4.61-2.43l.69-1.44.44-2.79a4.81,4.81,0,0,1,.12-1,3.17,3.17,0,0,1,.09-.82,3.62,3.62,0,0,1-.1-1.51l-.2-1.2.07-.2-.14-.52-.08-.61v-.06a1.66,1.66,0,0,0-.1-.74v-.15l-.12-1.52-.9-2.21a5.73,5.73,0,0,0-.44-.67l-.38-.63a1.86,1.86,0,0,0-.23-.33l-.13-.25-.13-.23a6.64,6.64,0,0,0-2.87-1.27,5.68,5.68,0,0,1-1.86,0H427l.11,3.38a4.77,4.77,0,0,0-.06.9,5.87,5.87,0,0,1,.18,1.1l-.07,1.12a3.15,3.15,0,0,0,0,.49l.06,2.65a1.41,1.41,0,0,1,0,.53l.11.45v.55a1.18,1.18,0,0,0,0,.68v.12l.13,1.49V514a4.8,4.8,0,0,0,0,2v1l-.08.36a2.32,2.32,0,0,0,0,.86l.07,1.54-.11.39Z"/><path class="cls-1" d="M227.64,343.18l.72-6.68q.42-3.89.85-8.15l.85-8.41q.41-4.15.72-7.41.73-7.33,1.52-12.64a80,80,0,0,1,1.81-9,26.38,26.38,0,0,1,2.3-6,11.19,11.19,0,0,1,2.94-3.51,9.13,9.13,0,0,1,3.72-1.6,25.28,25.28,0,0,1,4.8-.41,16.88,16.88,0,0,1,5.68,1,25.23,25.23,0,0,1,5.6,2.86,31,31,0,0,1,5.08,4.33,31.47,31.47,0,0,1,4.13,5.42,28.52,28.52,0,0,1,2.79,6.19,21.73,21.73,0,0,1,1,6.58,22.18,22.18,0,0,1-.9,5.8,57.7,57.7,0,0,1-2.81,7.64q-1.91,4.37-4.93,10t-7.2,12.9l4.21-.15,5.5-.23,6-.28,5.68-.31c1.75-.1,3.28-.21,4.57-.33a22.9,22.9,0,0,0,2.6-.34,9.29,9.29,0,0,1,2.94,4,12.91,12.91,0,0,1,1,4.93,16.32,16.32,0,0,1-.93,5.58,14.05,14.05,0,0,1-2.58,4.49,12,12,0,0,1-3.87,3,10.9,10.9,0,0,1-4.85,1.09q-3.66,0-6.89-.15t-6.43-.46a21.06,21.06,0,0,1,5.5,4.44,26.89,26.89,0,0,1,4.28,6.58,38.35,38.35,0,0,1,2.76,8.52,50.41,50.41,0,0,1,1,10.25,81,81,0,0,1-1.44,14.86,119.15,119.15,0,0,1-4,15.53,136.78,136.78,0,0,1-6.17,15.38,131.6,131.6,0,0,1-7.92,14.4,114.57,114.57,0,0,1-9.2,12.54,77.15,77.15,0,0,1-10.09,10A46.28,46.28,0,0,1,227.43,482a26,26,0,0,1-10.58,2.38q-10.79,0-16-4.83T195.67,466q0-2,.13-4a38.15,38.15,0,0,1,.59-4.44q.46-2.5,1.31-5.81t2.27-8.08q1.43-4.78,3.54-11.25t5.06-15.28q1.29-3.77,2.76-8.46t3-9.83q1.55-5.14,3.07-10.45t2.86-10.3q1.34-5,2.42-9.37t1.7-7.64q-5.94-.31-5.93-5.26a13.37,13.37,0,0,1,.77-4.44,16.07,16.07,0,0,1,2-4,12.16,12.16,0,0,1,2.92-2.94,6.91,6.91,0,0,1,3.41-1.32m21.62,33.27q-1.13,7.33-2.86,15.1t-3.74,15.34q-2,7.59-4.13,14.68t-4.1,13.13q-2,6-3.69,10.71t-2.79,7.35q-.15.47-.28,1a4,4,0,0,0-.13.9,1.87,1.87,0,0,0,.7,1.6,3,3,0,0,0,1.83.51,5.49,5.49,0,0,0,3.38-1.62,26.85,26.85,0,0,0,4-4.52,65.3,65.3,0,0,0,4.23-6.79q2.14-3.9,4.18-8.44t3.82-9.52q1.79-5,3.1-10t2.09-9.86a57.93,57.93,0,0,0,.77-9.14,41.67,41.67,0,0,0-1.73-12.8q-1.73-5.32-4.62-7.69"/><path class="cls-1" d="M288.17,385.91a23,23,0,0,1-1.7-6.45,55.62,55.62,0,0,1-.41-6.66,19.53,19.53,0,0,1,1.44-6.89,41.07,41.07,0,0,1,3.92-7.64,60,60,0,0,1,5.7-7.46,55.48,55.48,0,0,1,6.76-6.43,36.25,36.25,0,0,1,7.2-4.52,16.5,16.5,0,0,1,6.92-1.7,14.1,14.1,0,0,1,5.76,1,7.09,7.09,0,0,1,3.18,2.71,10.21,10.21,0,0,1,1.37,4.26,50.62,50.62,0,0,1,.28,5.6,20.71,20.71,0,0,1-.62,4.7q-.62,2.64-1.65,5.65t-2.38,6.27q-1.34,3.25-2.78,6.61-2.22,5.47-3.85,9.57t-2.71,7.2a50.31,50.31,0,0,0-1.6,5.37,18.75,18.75,0,0,0-.52,4.08,3.28,3.28,0,0,0,.77,2.48,3.13,3.13,0,0,0,2.22.72,8,8,0,0,0,3.41-1.37,35.55,35.55,0,0,0,5.7-4.52,105.47,105.47,0,0,0,7.79-8.31q4.41-5.13,9.73-12.67a7.9,7.9,0,0,1,3,.6,9.07,9.07,0,0,1,2.63,1.62,8.54,8.54,0,0,1,1.89,2.4,6.27,6.27,0,0,1,.72,3,15.49,15.49,0,0,1-1.47,5.91,47.32,47.32,0,0,1-4.08,7.36,91.69,91.69,0,0,1-6.11,8.1q-3.51,4.18-7.56,8.15a110.78,110.78,0,0,1-8.49,7.51,87,87,0,0,1-8.85,6.22,50,50,0,0,1-8.62,4.23,22.86,22.86,0,0,1-7.87,1.55,25.85,25.85,0,0,1-7.85-1,11.83,11.83,0,0,1-5.16-3.15,12.33,12.33,0,0,1-2.81-5.34,30.11,30.11,0,0,1-.85-7.61,54.8,54.8,0,0,1,.45-6.88,61.08,61.08,0,0,1,1.37-7.15q.92-3.72,2.37-7.9t3.41-9.08m27.3-80.31a74.83,74.83,0,0,1,.67-10.89,26.33,26.33,0,0,1,2-7.17,9.21,9.21,0,0,1,3.23-4,8.1,8.1,0,0,1,4.46-1.24,13.29,13.29,0,0,1,4.26.72,21.39,21.39,0,0,1,4.15,1.94,23.48,23.48,0,0,1,6.76,6.19,17.67,17.67,0,0,1,2,3.59,9,9,0,0,1,.75,3.46,15.15,15.15,0,0,1-.77,4.41,34,34,0,0,1-2.48,5.7,73.85,73.85,0,0,1-4.39,7.1q-2.68,3.9-6.5,8.54a13.92,13.92,0,0,1-5.71-1.16,11.9,11.9,0,0,1-4.46-3.46,17,17,0,0,1-2.92-5.73,27.26,27.26,0,0,1-1.06-8"/><path class="cls-1" d="M342.07,370.28q.92-5.16,2.09-11.27t2.27-12.47q1.11-6.35,2.14-12.59t1.76-11.67a79.13,79.13,0,0,1,4.8-19.16,55.54,55.54,0,0,1,8.13-14.35,34.81,34.81,0,0,1,10.56-9,25.13,25.13,0,0,1,12-3.12,21.22,21.22,0,0,1,6.14.83,11.39,11.39,0,0,1,4.64,2.63,11.76,11.76,0,0,1,2.94,4.67,20.43,20.43,0,0,1,1,6.89,31.6,31.6,0,0,1-.39,4.82,41.44,41.44,0,0,1-1.29,5.5q-.9,3-2.4,6.68t-3.72,8.42q-2.22,4.72-5.27,10.66t-7,13.37q-1.08,3.82-2.32,8.34t-2.53,9.34q-1.29,4.83-2.58,9.73t-2.5,9.58q-1.21,4.67-2.25,8.88t-1.81,7.58q-.77,3.39-1.21,5.76a21.58,21.58,0,0,0-.44,3.35,3.29,3.29,0,0,0,.77,2.48,3.13,3.13,0,0,0,2.22.73,11.73,11.73,0,0,0,5.91-2.15,45.22,45.22,0,0,0,7.41-6,100.24,100.24,0,0,0,8.26-9.24,143.28,143.28,0,0,0,8.41-11.77,8.66,8.66,0,0,1,2.94.52,8.28,8.28,0,0,1,2.58,1.47,7.63,7.63,0,0,1,1.83,2.27,6.17,6.17,0,0,1,.7,2.92,18,18,0,0,1-1.52,6.71,45.64,45.64,0,0,1-4.18,7.74,78.42,78.42,0,0,1-6.27,8.18,97.14,97.14,0,0,1-7.82,8,109.4,109.4,0,0,1-8.82,7.25,79.34,79.34,0,0,1-9.29,5.93,53.84,53.84,0,0,1-9.19,4,28,28,0,0,1-8.4,1.46,26.35,26.35,0,0,1-7.8-1,12.33,12.33,0,0,1-5.19-3,11.61,11.61,0,0,1-2.86-5.06,26,26,0,0,1-.88-7.17,65.91,65.91,0,0,1,.53-8q.52-4.28,1.32-8.83t1.78-9.11q1-4.57,1.91-8.67t1.73-7.51q.8-3.41,1.22-5.63"/><path class="cls-1" d="M471,371.36q6.5-9.76,12-16.47a91.83,91.83,0,0,1,10.16-10.83,37.22,37.22,0,0,1,8.67-6,17.87,17.87,0,0,1,7.43-1.88,14.7,14.7,0,0,1,6.37,1.29,13.11,13.11,0,0,1,4.53,3.46,14.19,14.19,0,0,1,2.66,5,19.93,19.93,0,0,1,.88,5.93,38.89,38.89,0,0,1-1.42,9.6A85.57,85.57,0,0,1,518,373.64q-.93,2.32-2.22,5.29t-2.63,6.25q-1.35,3.23-2.69,6.5t-2.37,6.16q-1,2.89-1.68,5.19a14.31,14.31,0,0,0-.64,3.64,3.26,3.26,0,0,0,.75,2.45,3.09,3.09,0,0,0,2.19.69c1,0,2.48-.67,4.57-2a56.59,56.59,0,0,0,7.38-6,136.28,136.28,0,0,0,9.4-9.94q5.13-5.94,10.6-13.68a9.3,9.3,0,0,1,3,.49,8.75,8.75,0,0,1,2.53,1.3,7.26,7.26,0,0,1,1.9,2.2,5.84,5.84,0,0,1,.72,2.89,15.14,15.14,0,0,1-1.63,6,49.37,49.37,0,0,1-4.46,7.64,105.92,105.92,0,0,1-6.63,8.47q-3.79,4.41-8.18,8.62t-9.11,8a91.12,91.12,0,0,1-9.37,6.6,55.22,55.22,0,0,1-9,4.52,22.58,22.58,0,0,1-8,1.67,26.14,26.14,0,0,1-7.9-1,11.83,11.83,0,0,1-5.16-3.15,12.31,12.31,0,0,1-2.81-5.34,29.73,29.73,0,0,1-.85-7.56,37.06,37.06,0,0,1,.93-7.79q.93-4.28,2.32-8.75t3-8.85q1.6-4.39,3-8.08t2.32-6.43a14.22,14.22,0,0,0,.93-3.87,2.24,2.24,0,0,0-2.53-2.53,6.27,6.27,0,0,0-2.4.88,26,26,0,0,0-4,2.76,52.18,52.18,0,0,0-5.19,4.9,74.12,74.12,0,0,0-5.93,7.3q-1.16,6.1-2.07,11.49T464.39,411q-.75,5.09-1.24,10.12t-.75,10.4a16.94,16.94,0,0,1-1.62,1.41,7.08,7.08,0,0,1-1.78,1,10.77,10.77,0,0,1-2.22.59,17.48,17.48,0,0,1-2.89.21,32,32,0,0,1-8.1-1,16.61,16.61,0,0,1-6.3-3.07,14.2,14.2,0,0,1-4.1-5.45,21.08,21.08,0,0,1-1.57-8.08,43.43,43.43,0,0,1,.59-6.79q.59-3.74,1.57-7.77t2.3-8.18q1.32-4.15,2.71-7.92.62-1.76,1.27-3.49t1.16-3.28q.52-1.55.85-2.84a8.79,8.79,0,0,0,.33-2.06,2.58,2.58,0,0,0-.62-2,2.73,2.73,0,0,0-1.91-.57,5,5,0,0,0-2,.67,16.55,16.55,0,0,0-3.2,2.35,56.27,56.27,0,0,0-4.39,4.49q-2.5,2.81-5.6,7.1-1.08,6.09-2,11.48T423.26,409q-.7,5.09-1.16,10.12t-.72,10.4a12.76,12.76,0,0,1-1.52,1.32,6.2,6.2,0,0,1-1.68.85,10.14,10.14,0,0,1-2.19.44c-.84.08-1.87.13-3.07.13a17.72,17.72,0,0,1-8.21-1.94,20.81,20.81,0,0,1-6.53-5.24,25.33,25.33,0,0,1-4.33-7.61,28,28,0,0,1-1.68-9.06,55.9,55.9,0,0,1,.41-6.53q.42-3.48,1.19-7.23t1.88-7.56q1.11-3.82,2.45-7.49a23.14,23.14,0,0,1-1.7-6.45,55.41,55.41,0,0,1-.41-6.61,17.23,17.23,0,0,1,1.31-6.43,30.39,30.39,0,0,1,3.56-6.4,40,40,0,0,1,5.21-5.91,42.05,42.05,0,0,1,6.32-4.88,33.08,33.08,0,0,1,6.84-3.3,20.6,20.6,0,0,1,6.76-1.22q4.6,0,6.84,2t2.24,6.8a34.37,34.37,0,0,1-.31,4.36,45.29,45.29,0,0,1-1.06,5.34q-.75,3-2,6.48t-3.17,7.72a146.5,146.5,0,0,1,10.71-16.36,67.56,67.56,0,0,1,9.24-10,27.14,27.14,0,0,1,8.1-5,21.37,21.37,0,0,1,7.25-1.37,13.83,13.83,0,0,1,5.32,1A10.9,10.9,0,0,1,473,342a11.37,11.37,0,0,1,2.4,4,14.3,14.3,0,0,1,.83,4.9q0,2.07-.11,4.1a26.94,26.94,0,0,1-.62,4.41,41.08,41.08,0,0,1-1.57,5.29,65.84,65.84,0,0,1-3,6.74"/><path class="cls-1" d="M142.38,149.71l73.45,74.83a12.86,12.86,0,0,1,3.06,4.76q.9,2.57-2.61,6L211.56,240l-2.19,2.15-18.65,18.31q-3.51,3.45-6.06,2.5a12.87,12.87,0,0,1-4.7-3.14l-21.54-21.94,12.51-12.28,10.88,11.08a5.5,5.5,0,0,0,2.38,1.65q1,.23,2.51-1.28l6.25-6.13q1.53-1.51,1.33-2.49a5.56,5.56,0,0,0-1.61-2.41l-3.23-3.29-5.37-5.53L129.87,162Zm6,.16,73.35,74.72a19.48,19.48,0,0,1,1.94,2.3,7.27,7.27,0,0,1,1.17,2.51,4.82,4.82,0,0,1-.24,2.82,9.24,9.24,0,0,1-2.31,3.23l-4.7,4.62-2.19,2.11-18.6,18.25a7.85,7.85,0,0,1-3.73,2.39,6.57,6.57,0,0,1-3.15-.14,9,9,0,0,0,3.15-2.24l18.7-18.36,2.19-2.15,4.71-4.62a8.7,8.7,0,0,0,2.25-3.18,5.7,5.7,0,0,0,.29-2.77,5.87,5.87,0,0,0-1.07-2.51,19.54,19.54,0,0,0-1.94-2.3l-71.62-73Zm35,85.67-8.08-8.23,1.65-1.62,8.12,8.23Z"/><path class="cls-1" d="M228.47,94.07l48,93.57a18.8,18.8,0,0,1,1.16,2.77,6.44,6.44,0,0,1,.34,2.68,5.07,5.07,0,0,1-1,2.52,8.73,8.73,0,0,1-3.1,2.37l-31.74,16.29a8.67,8.67,0,0,1-3.74,1.13,5.08,5.08,0,0,1-2.65-.62,6.53,6.53,0,0,1-2-1.84,19.28,19.28,0,0,1-1.57-2.56l-48-93.57,15.59-8L241,189.1a5.23,5.23,0,0,0,1.7,2.15q.85.51,2.73-.45l7.5-3.85c1.25-.64,1.9-1.29,2-2a5.27,5.27,0,0,0-.76-2.63L212.93,102Zm13.7,93.72-39-75.92,2.19-1.12,39,75.92Zm-8-91.81,48,93.57a19.65,19.65,0,0,1,1.17,2.77,6.62,6.62,0,0,1,.34,2.68,5.13,5.13,0,0,1-1,2.52,8.67,8.67,0,0,1-3.09,2.36L248,216.1a7.94,7.94,0,0,1-4.17,1.1,6.43,6.43,0,0,1-3-1,10.36,10.36,0,0,0,3.89-1.13l31.61-16.23a8.73,8.73,0,0,0,3-2.33,4.81,4.81,0,0,0,1.07-2.62,7.24,7.24,0,0,0-.31-2.71,18.15,18.15,0,0,0-1.13-2.71L232.07,97.12Z"/><path class="cls-1" d="M317.48,105.62,315.42,93.5a5,5,0,0,0-1.08-2.7q-.75-.73-2.87-.37L303,91.87c-1.42.25-2.25.67-2.51,1.29a5.56,5.56,0,0,0,0,2.9l9,53.2,1.29,7.58.77,4.55a5.53,5.53,0,0,0,1,2.72q.67.74,2.79.38l8.49-1.44q2.12-.36,2.59-1.3a5,5,0,0,0,.13-2.91l-2.6-15.31a5,5,0,0,0-1.08-2.7c-.5-.49-1.46-.61-2.87-.37l-5.31.91-3.25-19.1,18.8-3.2a8.77,8.77,0,0,1,3.91,0,5.5,5.5,0,0,1,2.43,1.45,6.38,6.38,0,0,1,1.41,2.33,17.33,17.33,0,0,1,.72,2.83l7.69,45.2a12.17,12.17,0,0,1-.29,5.65q-.8,2.63-5.5,3.43l-25.77,4.38-3.18.55L305.17,186a8.75,8.75,0,0,1-3.91,0,4.88,4.88,0,0,1-2.36-1.47,7.15,7.15,0,0,1-1.33-2.35,17.45,17.45,0,0,1-.72-2.84L280.61,84.13a19.09,19.09,0,0,1-.28-3,6.58,6.58,0,0,1,.48-2.66,5.15,5.15,0,0,1,1.75-2.09A8.73,8.73,0,0,1,286.23,75l9.7-1.65,16.24-2.74,2.42-.41L321.71,69a8.8,8.8,0,0,1,3.91,0,5.76,5.76,0,0,1,2.45,1.39,5.86,5.86,0,0,1,1.41,2.33,19.31,19.31,0,0,1,.73,2.92l4.59,27Zm-4.8-13.53.41,2.43-5.31.9c-1.42.24-2.25.67-2.51,1.29a5.54,5.54,0,0,0,0,2.89l9,53.2,1.29,7.58.13.76-2.27.39-.54-3.18-1.31-7.73-9-53a5.89,5.89,0,0,1,0-2.89c.24-.61,1-1,2.39-1.26Zm26.39,30.56a4.35,4.35,0,0,1,3.14,2.42,16.45,16.45,0,0,1,1.27,4.11l7.69,45.09a19.33,19.33,0,0,1,.27,3A7.23,7.23,0,0,1,351,180a4.93,4.93,0,0,1-1.74,2.17,8.79,8.79,0,0,1-3.67,1.33l-25.77,4.38-3.18.54-6.54,1.14a7.94,7.94,0,0,1-4.32-.2,5.21,5.21,0,0,1-2.43-1.93,9,9,0,0,0,3.89,0l6.52-1.11,3-.52,25.92-4.41a8.78,8.78,0,0,0,3.67-1.32,5.11,5.11,0,0,0,1.75-2.09,6.47,6.47,0,0,0,.48-2.65,19.26,19.26,0,0,0-.27-3l-7.67-45.08a19.49,19.49,0,0,0-.56-2.39,8.56,8.56,0,0,0-1-2.17m-17,21.81-4.25.72-.41-2.43,4.4-.75Zm8.5-71.94a4.81,4.81,0,0,1,3.17,2.62A16.49,16.49,0,0,1,335,79.33l4.59,27-17.28,2.85-.41-2.42,14.85-2.53-4.57-27.14a20.31,20.31,0,0,0-.56-2.4,8.51,8.51,0,0,0-1-2.17"/><path class="cls-1" d="M416.93,183.39l-49.68-6.67,15-111.54,49.68,6.67L429.35,91l-32.28-4.34L392.69,119l20.11,2.7-2.07,15.39-20.11-2.7-3.27,24.38-.27,2,3,.41,29.26,3.93Zm3.71-13.77,2.44.33-2.46,18.23-49.68-6.67.35-2.59,47.24,6.35Zm-4.15-43.06L414.43,142l-20-2.68-2.76,20.57-2.44-.33,3.09-23,20,2.69,1.74-13ZM435.6,76.69,433,95.89l-32.15-4.32-3.38,25.14-2.42-.33,3.71-27.58,32.15,4.32,2.26-16.76Z"/><path class="cls-1" d="M533.29,108.37,484.29,210l-1.39-.67-14.4-6.94,9.57-62.3-26.16,54.29-15.84-7.61,49-101.63,1.38.67,14.41,6.94-9.54,62.31,26.16-54.29ZM474.91,150.9q-.61,2.26-1.09,4.59t-.75,4.58l-19.29,40-15.71-7.54,1.13-2.35,13.57,6.54ZM535.17,114l-49,101.66-1.51-.73-14.29-6.88.45-2.68,12.77,6.16,1.51.73L533,113Zm-41.1,30.72,7.29-47,1.52.73-6.41,41.29Z"/><path class="cls-1" d="M611.5,169.11a8.78,8.78,0,0,1,2.3,3.16,5.73,5.73,0,0,1,.33,2.77,5.89,5.89,0,0,1-1,2.53,19.45,19.45,0,0,1-2,2.31l-44.27,46.3L562,231.29l-17.5,18.34a12.2,12.2,0,0,1-4.71,3.15q-2.59.93-6-2.37L518.61,236l-.67-.64-15.33-14.67,77.79-81.34L595.73,154l.67.64,8.11,7.76,1.78,1.7ZM614,178.3a4.82,4.82,0,0,1-.18,4.09,16.8,16.8,0,0,1-2.59,3.48l-44.31,46.31L562,237.29l-17.43,18.22a18.7,18.7,0,0,1-2.24,2,7.24,7.24,0,0,1-2.47,1.25,4.89,4.89,0,0,1-2.77-.1,8.79,8.79,0,0,1-3.26-2.16l-15.11-14.42-.78-.74-15.22-14.56,1.81-1.89L518,237.75l.78.74L533.88,253a8.7,8.7,0,0,0,3.26,2.16,5,5,0,0,0,2.72.16,6.5,6.5,0,0,0,2.42-1.19,19.63,19.63,0,0,0,2.24-2l17.43-18.23,4.89-5.11,44.42-46.45a19.38,19.38,0,0,0,1.59-1.88,8.43,8.43,0,0,0,1.15-2.09m-25.87.36a4.93,4.93,0,0,0,1.51-2.49c.09-.69-.39-1.54-1.43-2.54l-8.53-8.16-50.9,53.23,8.53,8.16c1,1,1.91,1.44,2.6,1.32a4.91,4.91,0,0,0,2.42-1.63Zm-.62-3.14-1.7,1.77-5.89-5.63-46.86,49-1.78-1.7,48.56-50.83Z"/><path class="cls-1" d="M279.26,577.18l5.1-9.12a4.25,4.25,0,0,0,.72-2.37q-.1-.88-1.7-1.78L277,560.34c-1.07-.6-1.85-.75-2.35-.49a4.73,4.73,0,0,0-1.58,1.89l-27.49,49.12a4.7,4.7,0,0,0-.78,2.33c0,.57.58,1.15,1.64,1.75l6.38,3.58q1.6.89,2.41.52a4.22,4.22,0,0,0,1.64-1.86L264,604.41l13,7.27-13.46,24.06a10.36,10.36,0,0,1-3.21,3.6q-1.93,1.32-5.47-.66l-19.39-10.85-2.4-1.34-4.9-2.74a7.4,7.4,0,0,1-2.56-2.11,4.17,4.17,0,0,1-.77-2.23,6.06,6.06,0,0,1,.37-2.26,15.13,15.13,0,0,1,1-2.26l40.08-71.62a16.54,16.54,0,0,1,1.42-2.13,5.52,5.52,0,0,1,1.74-1.49,4.36,4.36,0,0,1,2.27-.46,7.47,7.47,0,0,1,3.14,1.08l7.3,4.08,12.2,6.83,1.83,1,5.36,3a7.44,7.44,0,0,1,2.56,2.11,4.88,4.88,0,0,1,.86,2.21,5,5,0,0,1-.31,2.3,16.66,16.66,0,0,1-1.07,2.32l-11.36,20.3Zm-2.78,38.43,1.82,1-13.4,24a16.34,16.34,0,0,1-1.42,2.13,6.11,6.11,0,0,1-1.77,1.55,4.17,4.17,0,0,1-2.31.51,7.45,7.45,0,0,1-3.14-1.08l-19.39-10.88-2.4-1.34-4.9-2.75a6.74,6.74,0,0,1-2.75-2.44,4.44,4.44,0,0,1-.58-2.57,7.68,7.68,0,0,0,2.6,2l4.9,2.74,2.28,1.28,19.5,10.91a7.38,7.38,0,0,0,3.14,1.08,4.33,4.33,0,0,0,2.27-.45,5.56,5.56,0,0,0,1.74-1.5,16.13,16.13,0,0,0,1.41-2.13Zm6.37-50.2-1,1.83-3.54-2q-1.6-.89-2.35-.49a4.7,4.7,0,0,0-1.58,1.89l-25.59,45.73-1.71-1,26.61-47.56a5,5,0,0,1,1.55-1.9c.48-.28,1.24-.13,2.26.44Zm22.73-3.23a4.1,4.1,0,0,1,.72,3.4,14.06,14.06,0,0,1-1.39,3.41l-11.36,20.3-8.78-4.91,1-1.83,7,3.89L304.17,566a16.73,16.73,0,0,0,.9-1.85,7.27,7.27,0,0,0,.5-2"/><path class="cls-1" d="M342.56,568l-2.91,97.2-15.48-3.3L325.7,641l-14.32-3-7.9,19.56-15.73-3.37L327,564.72Zm-18,74.34-.18,2.1-10.21-2.18-7.9,19.56-15.73-3.35.85-2.09,13.17,2.8,7.87-19.44Zm-5.91-20,7.41,1.58.26-18.79Zm6-9.54-.1,6.13-1.29,2.93-2.56-.54Zm20.64-40.5-2.91,97.18-15.47-3.28.26-2.19,13.68,2.91L343.72,572Z"/><path class="cls-1" d="M421.66,564.18,435.88,659l-14.71,2.2-7.75-51.7-5.65,36.53.19.37h-.26l-13.18,2h-.26l.07-.41-16.09-33.27,7.75,51.7-14.73,2.21-14.19-94.87,1.29-.2,13.44-2,26,53.85,9-59.1Zm-40.19,61.66,1.42,2.89,1.42,2.89,5.7,38-14.73,2.21-.33-2.2,12.8-1.92Zm14.86-5.8L374.51,575l1.42-.21L396.82,618Zm15.6,29.14.17.24-13.7,2,.09-.28-.79-1.73,12-1.8-.17-.24,4-25.57,1.28,8.53Zm14-81.92,14.24,94.86-14.87,2.23-.33-2.2,12.67-1.9-13.89-92.67Z"/><path class="cls-1" d="M480.17,643l-49.53-82.15,31.11-18.76a7.41,7.41,0,0,1,3.1-1.18,4.17,4.17,0,0,1,2.32.43,6.2,6.2,0,0,1,1.79,1.45,14.91,14.91,0,0,1,1.45,2L497.64,590A7.56,7.56,0,0,1,499,594.6q-.22,2-3.24,3.86l-18.35,11.07,15.52,25.74Zm-9.45-44.52,8.42-5.08c1-.62,1.56-1.22,1.56-1.79a4.44,4.44,0,0,0-.8-2.2l-15.65-25.94a4.83,4.83,0,0,0-1.64-1.84q-.76-.38-2.31.55l-8.42,5.08Zm-9.06-35.28,1.08,1.79-5.93,3.58,15,25-1.68,1L454,567.8Zm40.85,28a7.27,7.27,0,0,1,1.27,4.65q-.27,2.07-3.18,3.83l-18.36,11.07,15.59,25.85-12.66,7.6-1.15-1.9,11-6.61L479.46,610l18.26-11q2.89-1.74,3.17-3.82a7.29,7.29,0,0,0-1.28-4.65l-27.2-45.1a16.37,16.37,0,0,0-1.19-1.72,7.12,7.12,0,0,0-1.46-1.41,3.7,3.7,0,0,1,3.24,1,14,14,0,0,1,2.28,2.9Z"/><path class="cls-1" d="M138.07,495.6a11,11,0,1,0,.09,0l-.09,0"/><path class="cls-1" d="M165.37,504a11,11,0,1,0,.09,0l-.09,0"/><path class="cls-1" d="M172.84,522.57a13.31,13.31,0,0,0-21.34-15.9h0a1.85,1.85,0,0,1-3.31-1h0A13.3,13.3,0,1,0,131.5,519l27,8.36a13.32,13.32,0,0,0,14.36-4.84m-41.52-5.07a11.88,11.88,0,1,1,14.84-7.87h0a11.89,11.89,0,0,1-14.86,7.84m27.29,8.48a11.88,11.88,0,1,1,14.85-7.85h0a11.89,11.89,0,0,1-14.85,7.84"/><polygon class="cls-1" points="185.3 552.93 186.41 553.8 168.01 577.2 166.91 576.33 166.81 573.43 164.98 572.73 164.88 569.83 163.05 569.13 162.94 566.22 161.1 565.52 161.01 562.62 159.17 561.92 155.54 559.09 165.82 546 169.44 548.85 170.56 550.46 173.4 549.87 174.51 551.49 177.37 550.89 178.48 552.51 181.33 551.92 182.44 553.54 185.3 552.93"/><path class="cls-1" d="M139.26,531.48l-12.42-9.76-5.77-4.54-3.22-4.32-6.78,8.6,4.95,2.11,5.79,4.55,12.42,9.76a4.07,4.07,0,0,0,5-6.4"/><path class="cls-1" d="M168.34,534.78,161,529l-30.19-9.18a3.08,3.08,0,0,0-3.32,1v.06h0l-.09.12,12.42,9.76a4.91,4.91,0,0,1-6.07,7.73h0l-12.42-9.76-.73.93h0a4,4,0,0,0,.82,5.47h0l32,25.11,15.64-19.9a4,4,0,0,0-.64-5.62h0"/><path class="cls-1" d="M598.89,495.6a11,11,0,1,1-.09,0l.09,0"/><path class="cls-1" d="M571.61,504a11,11,0,1,1-.09,0l.09,0"/><path class="cls-1" d="M578.5,527.41l27-8.36a13.3,13.3,0,1,0-16.69-13.36h0a1.85,1.85,0,0,1-3.31,1h0a13.3,13.3,0,1,0-7,20.74m12.3-17.75a11.88,11.88,0,1,1,14.86,7.84,11.88,11.88,0,0,1-14.86-7.84h0m-27.28,8.43A11.88,11.88,0,1,1,578.38,526a11.88,11.88,0,0,1-14.86-7.87v0"/><polygon class="cls-1" points="551.67 552.93 550.57 553.8 568.96 577.2 570.06 576.33 570.16 573.43 572 572.73 572.09 569.83 573.93 569.13 574.04 566.22 575.87 565.52 575.97 562.62 577.81 561.92 581.44 559.09 571.16 546 567.54 548.85 566.41 550.46 563.57 549.87 562.46 551.49 559.6 550.89 558.49 552.51 555.64 551.92 554.53 553.54 551.67 552.93"/><path class="cls-1" d="M597.72,531.48l12.45-9.76,5.79-4.55,3.22-4.32,6.76,8.61-5,2.11-5.82,4.55-12.42,9.76a4.07,4.07,0,0,1-5-6.4"/><path class="cls-1" d="M568.64,534.78,576,529l30.2-9.13a3.08,3.08,0,0,1,3.32,1v.06h0l.09.12-12.41,9.79a4.91,4.91,0,0,0,6.07,7.73l12.42-9.76.73.93h0a4,4,0,0,1-.82,5.47h0l-32,25.11-15.64-19.9a4,4,0,0,1,.64-5.62h0"/></g></g></svg>